<svg width="64" height="64" viewBox="0 0 64 64" fill="none" xmlns="http://www.w3.org/2000/svg">
<path d="M60.1868 34.8208L26.9238 19.0658C25.99 18.6257 24.9415 18.4902 23.9265 18.6787C22.9116 18.8671 21.9816 19.3699 21.268 20.1159C20.5545 20.862 20.0936 21.8134 19.9506 22.8358C19.8075 23.8581 19.9895 24.8996 20.4708 25.8128L25.7998 35.8728L41.1868 38.7998C41.4156 38.8432 41.6221 38.9651 41.7707 39.1445C41.9192 39.3238 42.0005 39.5494 42.0005 39.7823C42.0005 40.0152 41.9192 40.2408 41.7707 40.4202C41.6221 40.5996 41.4156 40.7214 41.1868 40.7648L25.7998 43.6998L20.4708 53.7598C19.9891 54.6731 19.8068 55.7147 19.9497 56.7373C20.0926 57.7598 20.5535 58.7116 21.2671 59.4578C21.9807 60.204 22.9109 60.7069 23.926 60.8954C24.9412 61.0838 25.9899 60.9482 26.9238 60.5078L60.1868 44.7528C61.0268 44.3517 61.7365 43.7215 62.2342 42.9347C62.7319 42.148 62.9972 41.2367 62.9998 40.3058V39.2668C62.9972 38.3361 62.7317 37.4249 62.2341 36.6384C61.7364 35.8518 61.0268 35.2218 60.1868 34.8208Z" fill="#EFD6AC"/>
<path d="M50.9 22.553L45.452 11.653C45.2033 11.1537 44.8196 10.7342 44.3445 10.442C43.8693 10.1498 43.3218 9.99666 42.764 10H33V7C33 6.20435 32.6839 5.44129 32.1213 4.87868C31.5587 4.31607 30.7956 4 30 4H4C3.20435 4 2.44129 4.31607 1.87868 4.87868C1.31607 5.44129 1 6.20435 1 7V36C1 36.7956 1.31607 37.5587 1.87868 38.1213C2.44129 38.6839 3.20435 39 4 39H7.08C7.3191 40.6649 8.15041 42.1877 9.42145 43.2893C10.6925 44.3908 12.3181 44.9972 14 44.9972C15.6819 44.9972 17.3075 44.3908 18.5786 43.2893C19.8496 42.1877 20.6809 40.6649 20.92 39H31.08C31.3191 40.6649 32.1504 42.1877 33.4214 43.2893C34.6925 44.3908 36.3181 44.9972 38 44.9972C39.6819 44.9972 41.3075 44.3908 42.5786 43.2893C43.8496 42.1877 44.6809 40.6649 44.92 39H48C48.7957 39 49.5587 38.6839 50.1213 38.1213C50.6839 37.5587 51 36.7956 51 36V23C50.9965 22.8459 50.9625 22.6939 50.9 22.553ZM42.764 12C42.9497 12.0001 43.1316 12.0519 43.2895 12.1496C43.4474 12.2472 43.575 12.3869 43.658 12.553L48.382 22H33V12H42.764ZM12 6H22V15.382L18.342 13.553C17.925 13.3458 17.4657 13.238 17 13.238C16.5343 13.238 16.075 13.3458 15.658 13.553L12 15.382V6ZM3 36V7C3 6.73478 3.10536 6.48043 3.29289 6.29289C3.48043 6.10536 3.73478 6 4 6H10V15.382C9.9995 15.7237 10.0865 16.0598 10.2528 16.3583C10.4191 16.6568 10.6591 16.9077 10.9499 17.0871C11.2407 17.2665 11.5727 17.3684 11.914 17.3831C12.2554 17.3978 12.5949 17.3248 12.9 17.171L16.558 15.342C16.6968 15.2726 16.8498 15.2365 17.005 15.2365C17.1602 15.2365 17.3132 15.2726 17.452 15.342L21.11 17.171C21.4148 17.3224 21.7531 17.3936 22.0931 17.3778C22.433 17.3619 22.7633 17.2596 23.0527 17.0805C23.3421 16.9014 23.5809 16.6514 23.7467 16.3541C23.9125 16.0569 23.9996 15.7223 24 15.382V6H30C30.2652 6 30.5196 6.10536 30.7071 6.29289C30.8946 6.48043 31 6.73478 31 7V37H20.92C20.6809 35.3351 19.8496 33.8123 18.5786 32.7107C17.3075 31.6092 15.6819 31.0028 14 31.0028C12.3181 31.0028 10.6925 31.6092 9.42145 32.7107C8.15041 33.8123 7.3191 35.3351 7.08 37H4C3.73478 37 3.48043 36.8946 3.29289 36.7071C3.10536 36.5196 3 36.2652 3 36ZM14 43C13.0111 43 12.0444 42.7068 11.2221 42.1573C10.3999 41.6079 9.75904 40.827 9.3806 39.9134C9.00216 38.9998 8.90315 37.9944 9.09607 37.0245C9.289 36.0546 9.7652 35.1637 10.4645 34.4645C11.1637 33.7652 12.0546 33.289 13.0245 33.0961C13.9945 32.9031 14.9998 33.0022 15.9134 33.3806C16.827 33.759 17.6079 34.3999 18.1573 35.2221C18.7068 36.0444 19 37.0111 19 38C18.9984 39.3256 18.4711 40.5964 17.5338 41.5338C16.5964 42.4711 15.3256 42.9984 14 43ZM38 43C37.0111 43 36.0444 42.7068 35.2221 42.1573C34.3999 41.6079 33.759 40.827 33.3806 39.9134C33.0022 38.9998 32.9031 37.9944 33.0961 37.0245C33.289 36.0546 33.7652 35.1637 34.4645 34.4645C35.1637 33.7652 36.0546 33.289 37.0245 33.0961C37.9945 32.9031 38.9998 33.0022 39.9134 33.3806C40.827 33.759 41.6079 34.3999 42.1573 35.2221C42.7068 36.0444 43 37.0111 43 38C42.9984 39.3256 42.4711 40.5964 41.5338 41.5338C40.5964 42.4711 39.3256 42.9984 38 43ZM48 37H44.92C44.7358 35.7078 44.1932 34.493 43.3538 33.4934C42.5144 32.4938 41.4117 31.7493 40.1708 31.3445C38.9298 30.9396 37.6003 30.8905 36.3329 31.2027C35.0655 31.515 33.9109 32.176 33 33.111V24H49V36C49 36.2652 48.8946 36.5196 48.7071 36.7071C48.5196 36.8946 48.2652 37 48 37Z" fill="#151A6A"/>
<path d="M22 30H28C28.2652 30 28.5196 29.8946 28.7071 29.7071C28.8946 29.5196 29 29.2652 29 29C29 28.7348 28.8946 28.4804 28.7071 28.2929C28.5196 28.1054 28.2652 28 28 28H22C21.7348 28 21.4804 28.1054 21.2929 28.2929C21.1054 28.4804 21 28.7348 21 29C21 29.2652 21.1054 29.5196 21.2929 29.7071C21.4804 29.8946 21.7348 30 22 30Z" fill="#151A6A"/>
<path d="M28 32H25C24.7348 32 24.4804 32.1054 24.2929 32.2929C24.1054 32.4804 24 32.7348 24 33C24 33.2652 24.1054 33.5196 24.2929 33.7071C24.4804 33.8946 24.7348 34 25 34H28C28.2652 34 28.5196 33.8946 28.7071 33.7071C28.8946 33.5196 29 33.2652 29 33C29 32.7348 28.8946 32.4804 28.7071 32.2929C28.5196 32.1054 28.2652 32 28 32Z" fill="#151A6A"/>
</svg>
