<svg width="64" height="64" viewBox="0 0 64 64" fill="none" xmlns="http://www.w3.org/2000/svg">
<path d="M63 59.5C63 59.2348 62.8946 58.9804 62.7071 58.7929C62.5196 58.6054 62.2652 58.5 62 58.5H57V13.5C57 12.7044 56.6839 11.9413 56.1213 11.3787C55.5587 10.8161 54.7957 10.5 54 10.5H28C27.2044 10.5 26.4413 10.8161 25.8787 11.3787C25.3161 11.9413 25 12.7044 25 13.5V58.5H20C19.7348 58.5 19.4804 58.6054 19.2929 58.7929C19.1054 58.9804 19 59.2348 19 59.5C19 59.7652 19.1054 60.0196 19.2929 60.2071C19.4804 60.3946 19.7348 60.5 20 60.5H62C62.2652 60.5 62.5196 60.3946 62.7071 60.2071C62.8946 60.0196 63 59.7652 63 59.5ZM51 38.5C51 38.7652 50.8946 39.0196 50.7071 39.2071C50.5196 39.3946 50.2652 39.5 50 39.5H44C43.7348 39.5 43.4804 39.3946 43.2929 39.2071C43.1054 39.0196 43 38.7652 43 38.5C43 38.2348 43.1054 37.9804 43.2929 37.7929C43.4804 37.6054 43.7348 37.5 44 37.5H50C50.2652 37.5 50.5196 37.6054 50.7071 37.7929C50.8946 37.9804 51 38.2348 51 38.5ZM31 20.5C31 19.7044 31.3161 18.9413 31.8787 18.3787C32.4413 17.8161 33.2044 17.5 34 17.5H48C48.7956 17.5 49.5587 17.8161 50.1213 18.3787C50.6839 18.9413 51 19.7044 51 20.5V31.5C51 32.2956 50.6839 33.0587 50.1213 33.6213C49.5587 34.1839 48.7956 34.5 48 34.5H34C33.2044 34.5 32.4413 34.1839 31.8787 33.6213C31.3161 33.0587 31 32.2956 31 31.5V20.5ZM48 58.5V47.5H45V50.5C45 51.0304 44.7893 51.5391 44.4142 51.9142C44.0391 52.2893 43.5304 52.5 43 52.5H39C38.4696 52.5 37.9609 52.2893 37.5858 51.9142C37.2107 51.5391 37 51.0304 37 50.5V47.5H34V58.5H32V47.5C32 46.9696 32.2107 46.4609 32.5858 46.0858C32.9609 45.7107 33.4696 45.5 34 45.5H48C48.5304 45.5 49.0391 45.7107 49.4142 46.0858C49.7893 46.4609 50 46.9696 50 47.5V58.5H48Z" fill="#EFD6AC"/>
<path d="M48 19.5H34C33.4477 19.5 33 19.9477 33 20.5V31.5C33 32.0523 33.4477 32.5 34 32.5H48C48.5523 32.5 49 32.0523 49 31.5V20.5C49 19.9477 48.5523 19.5 48 19.5Z" fill="#EFD6AC"/>
<path d="M39 47.5H43V50.5H39V47.5Z" fill="#EFD6AC"/>
<path d="M46.0001 15.5H28.0001C27.2044 15.5 26.4413 15.8161 25.8787 16.3787C25.3161 16.9413 25.0001 17.7043 25.0001 18.5V27.588C24.4626 26.7295 23.8273 25.9362 23.1071 25.224C21.827 23.9662 20.2974 22.9909 18.6171 22.361C19.8548 21.7197 20.9443 20.8259 21.8152 19.7374C22.6861 18.6488 23.3191 17.3898 23.6732 16.0415C24.0273 14.6932 24.0948 13.2856 23.8712 11.9096C23.6476 10.5336 23.1379 9.21979 22.3751 8.05299L29.3511 5.43699C29.4741 5.39103 29.5869 5.32128 29.683 5.23173C29.7791 5.14217 29.8566 5.03457 29.9111 4.91506C29.9656 4.79555 29.996 4.66648 30.0007 4.53521C30.0053 4.40394 29.984 4.27304 29.9381 4.14999C29.8921 4.02694 29.8223 3.91415 29.7328 3.81806C29.6432 3.72197 29.5356 3.64445 29.4161 3.58994C29.2966 3.53544 29.1675 3.505 29.0363 3.50038C28.905 3.49575 28.7741 3.51703 28.6511 3.56299L21.0511 6.41399C20.0293 5.39659 18.7996 4.61232 17.4462 4.11501C16.0928 3.61769 14.6478 3.41912 13.2105 3.53291C11.7731 3.6467 10.3774 4.07017 9.11907 4.77424C7.86079 5.47831 6.76976 6.44632 5.92086 7.61181C5.07196 8.7773 4.48531 10.1127 4.20117 11.5263C3.91702 12.9399 3.94212 14.3982 4.27474 15.8012C4.60735 17.2042 5.2396 18.5186 6.1281 19.6542C7.0166 20.7897 8.14029 21.7196 9.42206 22.38C6.928 23.3865 4.7927 25.1172 3.29154 27.3488C1.79039 29.5804 0.992252 32.2105 1.00006 34.9V44.5C1.00006 45.2956 1.31613 46.0587 1.87874 46.6213C2.44135 47.1839 3.20441 47.5 4.00006 47.5H29.0001C30.6816 47.4968 32.3058 46.8889 33.5763 45.7874C34.8467 44.6858 35.6786 43.1641 35.9201 41.5H46.0001C46.7957 41.5 47.5588 41.1839 48.1214 40.6213C48.684 40.0587 49.0001 39.2956 49.0001 38.5V18.5C49.0001 17.7043 48.684 16.9413 48.1214 16.3787C47.5588 15.8161 46.7957 15.5 46.0001 15.5ZM34.0001 17.5H39.0001V20.5C39.0001 20.7652 38.8947 21.0196 38.7072 21.2071C38.5196 21.3946 38.2653 21.5 38.0001 21.5H35.0001C34.7348 21.5 34.4805 21.3946 34.2929 21.2071C34.1054 21.0196 34.0001 20.7652 34.0001 20.5V17.5ZM14.0001 5.49999C15.7875 5.50037 17.5228 6.10274 18.9261 7.20999L6.14606 12C6.49638 10.1729 7.47189 8.52483 8.90508 7.33872C10.3383 6.15261 12.1397 5.50248 14.0001 5.49999ZM6.03406 14.18L20.4431 8.77999C21.1734 9.77535 21.6633 10.9264 21.8743 12.1428C22.0852 13.3592 22.0115 14.608 21.659 15.7911C21.3064 16.9743 20.6846 18.0597 19.8422 18.9623C18.9998 19.8648 17.9599 20.56 16.8038 20.9933C15.6477 21.4265 14.407 21.5861 13.179 21.4594C11.9509 21.3328 10.7689 20.9234 9.72553 20.2634C8.6822 19.6033 7.80595 18.7106 7.16549 17.6551C6.52502 16.5997 6.13776 15.4102 6.03406 14.18ZM14.0001 23.5C15.4446 23.5 16.875 23.7845 18.2096 24.3373C19.5442 24.8901 20.7568 25.7004 21.7782 26.7218C22.7997 27.7433 23.6099 28.9559 24.1627 30.2905C24.7155 31.6251 25.0001 33.0555 25.0001 34.5V45.5H20.9201C20.6786 43.8359 19.8467 42.3142 18.5763 41.2126C17.3058 40.1111 15.6816 39.5032 14.0001 39.5H10.0001V34.5C10.0001 34.2348 9.8947 33.9804 9.70716 33.7929C9.51963 33.6054 9.26527 33.5 9.00006 33.5C8.73484 33.5 8.48049 33.6054 8.29295 33.7929C8.10541 33.9804 8.00006 34.2348 8.00006 34.5V37.5H3.00006V34.9C2.96003 31.9333 4.09345 29.0709 6.1536 26.9359C8.21375 24.8008 11.0339 23.5659 14.0001 23.5ZM3.00006 44.5V39.5H8.00006C8.00006 40.0304 8.21077 40.5391 8.58584 40.9142C8.96092 41.2893 9.46962 41.5 10.0001 41.5H14.0001C15.1523 41.5014 16.2687 41.9001 17.1613 42.6287C18.0539 43.3573 18.668 44.3714 18.9001 45.5H4.00006C3.73484 45.5 3.48049 45.3946 3.29295 45.2071C3.10541 45.0196 3.00006 44.7652 3.00006 44.5ZM29.0001 45.5H27.0001V41.316C27.3203 41.4344 27.6586 41.4967 28.0001 41.5H33.9001C33.668 42.6286 33.0539 43.6426 32.1613 44.3713C31.2687 45.0999 30.1523 45.4985 29.0001 45.5ZM47.0001 38.5C47.0001 38.7652 46.8947 39.0196 46.7072 39.2071C46.5196 39.3946 46.2653 39.5 46.0001 39.5H28.0001C27.7348 39.5 27.4805 39.3946 27.2929 39.2071C27.1054 39.0196 27.0001 38.7652 27.0001 38.5V18.5C27.0001 18.2348 27.1054 17.9804 27.2929 17.7929C27.4805 17.6053 27.7348 17.5 28.0001 17.5H32.0001V20.5C32.0001 21.2956 32.3161 22.0587 32.8787 22.6213C33.4413 23.1839 34.2044 23.5 35.0001 23.5H38.0001C38.7957 23.5 39.5588 23.1839 40.1214 22.6213C40.684 22.0587 41.0001 21.2956 41.0001 20.5V17.5H46.0001C46.2653 17.5 46.5196 17.6053 46.7072 17.7929C46.8947 17.9804 47.0001 18.2348 47.0001 18.5V38.5Z" fill="#183A37"/>
<path d="M44 30.5H39C38.7348 30.5 38.4804 30.6054 38.2929 30.7929C38.1054 30.9804 38 31.2348 38 31.5C38 31.7652 38.1054 32.0196 38.2929 32.2071C38.4804 32.3946 38.7348 32.5 39 32.5H44C44.2652 32.5 44.5196 32.3946 44.7071 32.2071C44.8946 32.0196 45 31.7652 45 31.5C45 31.2348 44.8946 30.9804 44.7071 30.7929C44.5196 30.6054 44.2652 30.5 44 30.5Z" fill="#183A37"/>
<path d="M44 34.5H40C39.7348 34.5 39.4804 34.6054 39.2929 34.7929C39.1054 34.9804 39 35.2348 39 35.5C39 35.7652 39.1054 36.0196 39.2929 36.2071C39.4804 36.3946 39.7348 36.5 40 36.5H44C44.2652 36.5 44.5196 36.3946 44.7071 36.2071C44.8946 36.0196 45 35.7652 45 35.5C45 35.2348 44.8946 34.9804 44.7071 34.7929C44.5196 34.6054 44.2652 34.5 44 34.5Z" fill="#183A37"/>
</svg>
