<svg width="22" height="23" viewBox="0 0 22 23" fill="none" xmlns="http://www.w3.org/2000/svg">
<path d="M15.4386 7.61353H6.5625L11.0006 11.3814L15.4386 7.61353Z" fill="#CB000D"/>
<path d="M10.9997 12.2832C10.9059 12.2832 10.8152 12.2499 10.744 12.1893L5.89258 8.07056V15.3961H16.1069V8.07056L11.2554 12.1893C11.1843 12.2499 11.0935 12.2832 10.9997 12.2832Z" fill="#CB000D"/>
<path d="M11 0.609619C4.92491 0.609619 0 5.48762 0 11.5049C0 17.5221 4.92491 22.4001 11 22.4001C17.0751 22.4001 22 17.5221 22 11.5049C21.9931 5.49047 17.0722 0.616459 11 0.609619ZM16.8929 15.7851C16.8929 16 16.717 16.1742 16.5 16.1742H5.5C5.28305 16.1742 5.10714 16 5.10714 15.7851V7.22459C5.10714 7.0097 5.28305 6.83547 5.5 6.83547H16.5C16.717 6.83547 16.8929 7.0097 16.8929 7.22459V15.7851Z" fill="#CB000D"/>
</svg>
