<svg width="22" height="22" viewBox="0 0 22 22" fill="none" xmlns="http://www.w3.org/2000/svg">
<path d="M15.4386 7.07129H6.5625L11.0006 10.8754L15.4386 7.07129Z" fill="#EFD6AC"/>
<path d="M10.9997 11.7859C10.9059 11.7859 10.8152 11.7523 10.744 11.6911L5.89258 7.53271V14.9287H16.1069V7.53271L11.2554 11.6911C11.1843 11.7523 11.0935 11.7859 10.9997 11.7859Z" fill="#EFD6AC"/>
<path d="M11 0C4.92491 0 0 4.92491 0 11C0 17.0751 4.92491 22 11 22C17.0751 22 22 17.0751 22 11C21.9931 4.92779 17.0722 0.00690569 11 0ZM16.8929 15.3214C16.8929 15.5384 16.717 15.7143 16.5 15.7143H5.5C5.28305 15.7143 5.10714 15.5384 5.10714 15.3214V6.67857C5.10714 6.46162 5.28305 6.28571 5.5 6.28571H16.5C16.717 6.28571 16.8929 6.46162 16.8929 6.67857V15.3214Z" fill="#EFD6AC"/>
</svg>
