<svg width="24" height="24" viewBox="0 0 24 24" fill="none" xmlns="http://www.w3.org/2000/svg">
<g clip-path="url(#clip0)">
<path d="M15.4646 0.138611C15.3545 0.0227052 15.2036 -0.046875 15.0473 -0.046875H5.68488C3.95728 -0.046875 2.53125 1.37348 2.53125 3.1009V20.8052C2.53125 22.5328 3.95728 23.9532 5.68488 23.9532H18.3921C20.1197 23.9532 21.5457 22.5328 21.5457 20.8052V6.74726C21.5457 6.59657 21.4761 6.45173 21.3776 6.3415L15.4646 0.138611ZM15.6327 1.99952L19.5921 6.15602H17.0182C16.253 6.15602 15.6327 5.54151 15.6327 4.77631V1.99952ZM18.3921 22.7937H5.68488C4.6009 22.7937 3.69068 21.8952 3.69068 20.8052V3.1009C3.69068 2.01691 4.59504 1.11255 5.68488 1.11255H14.4732V4.77631C14.4732 6.18495 15.6096 7.31544 17.0182 7.31544H20.3863V20.8052C20.3863 21.8952 19.4819 22.7937 18.3921 22.7937Z" fill="white"/>
<path d="M16.8095 18.7937H7.26746C6.94867 18.7937 6.68774 19.0544 6.68774 19.3734C6.68774 19.6922 6.94867 19.9531 7.26746 19.9531H16.8153C17.1341 19.9531 17.395 19.6922 17.395 19.3734C17.395 19.0544 17.1341 18.7937 16.8095 18.7937Z" fill="white"/>
<path d="M11.6153 16.7126C11.7255 16.8285 11.8762 16.8981 12.0385 16.8981C12.2009 16.8981 12.3516 16.8285 12.4616 16.7126L15.8588 13.0662C16.079 12.8342 16.0617 12.4633 15.8298 12.2489C15.5978 12.0286 15.2269 12.0458 15.0125 12.2778L12.6182 14.8458V8.5155C12.6182 8.19653 12.3572 7.93579 12.0385 7.93579C11.7197 7.93579 11.4587 8.19653 11.4587 8.5155V14.8458L9.07031 12.2778C8.85003 12.046 8.48474 12.0286 8.25292 12.2489C8.02111 12.4691 8.00372 12.8344 8.22399 13.0662L11.6153 16.7126Z" fill="white"/>
</g>
<defs>
<clipPath id="clip0">
<rect width="24" height="24" fill="white"/>
</clipPath>
</defs>
</svg>
