<svg width="64" height="64" viewBox="0 0 64 64" fill="none" xmlns="http://www.w3.org/2000/svg">
<path d="M46 13C41.4929 13.005 37.1718 14.7977 33.9847 17.9847C30.7977 21.1718 29.005 25.4929 29 30C29 46.228 44.628 62.042 45.293 62.707C45.4805 62.8945 45.7348 62.9998 46 62.9998C46.2652 62.9998 46.5195 62.8945 46.707 62.707C47.372 62.042 63 46.228 63 30C62.995 25.4929 61.2023 21.1718 58.0153 17.9847C54.8282 14.7977 50.5071 13.005 46 13ZM46 37C44.6155 37 43.2622 36.5895 42.111 35.8203C40.9599 35.0511 40.0627 33.9579 39.5328 32.6788C39.003 31.3997 38.8644 29.9922 39.1345 28.6344C39.4046 27.2765 40.0713 26.0292 41.0503 25.0503C42.0292 24.0713 43.2765 23.4046 44.6344 23.1345C45.9922 22.8644 47.3997 23.003 48.6788 23.5328C49.9579 24.0627 51.0511 24.9599 51.8203 26.111C52.5895 27.2622 53 28.6155 53 30C52.9979 31.8559 52.2597 33.6351 50.9474 34.9474C49.6351 36.2597 47.8559 36.9979 46 37ZM59 31C58.7348 31 58.4804 30.8946 58.2929 30.7071C58.1054 30.5196 58 30.2652 58 30C57.9966 26.8185 56.7312 23.7682 54.4815 21.5185C52.2318 19.2688 49.1815 18.0034 46 18C45.7348 18 45.4804 17.8946 45.2929 17.7071C45.1054 17.5196 45 17.2652 45 17C45 16.7348 45.1054 16.4804 45.2929 16.2929C45.4804 16.1054 45.7348 16 46 16C49.7118 16.004 53.2705 17.4802 55.8951 20.1049C58.5198 22.7295 59.996 26.2882 60 30C60 30.2652 59.8946 30.5196 59.7071 30.7071C59.5196 30.8946 59.2652 31 59 31Z" fill="#EFD6AC"/>
<path d="M48 1H4C3.20435 1 2.44129 1.31607 1.87868 1.87868C1.31607 2.44129 1 3.20435 1 4V48C1 48.7957 1.31607 49.5587 1.87868 50.1213C2.44129 50.6839 3.20435 51 4 51H48C48.7957 51 49.5587 50.6839 50.1213 50.1213C50.6839 49.5587 51 48.7957 51 48V4C51 3.20435 50.6839 2.44129 50.1213 1.87868C49.5587 1.31607 48.7957 1 48 1ZM16 3H36V22.315L27 17.406V7C27 6.73478 26.8946 6.48043 26.7071 6.29289C26.5196 6.10536 26.2652 6 26 6C25.7348 6 25.4804 6.10536 25.2929 6.29289C25.1054 6.48043 25 6.73478 25 7V17.406L16 22.315V3ZM49 48C49 48.2652 48.8946 48.5196 48.7071 48.7071C48.5196 48.8946 48.2652 49 48 49H4C3.73478 49 3.48043 48.8946 3.29289 48.7071C3.10536 48.5196 3 48.2652 3 48V4C3 3.73478 3.10536 3.48043 3.29289 3.29289C3.48043 3.10536 3.73478 3 4 3H14V24C14 24.1735 14.0451 24.344 14.1309 24.4948C14.2167 24.6456 14.3403 24.7715 14.4895 24.8601C14.6387 24.9487 14.8084 24.9969 14.9819 25C15.1554 25.0032 15.3267 24.9611 15.479 24.878L26 19.139L36.521 24.878C36.6733 24.9611 36.8446 25.0032 37.0181 25C37.1916 24.9969 37.3613 24.9487 37.5105 24.8601C37.6597 24.7715 37.7833 24.6456 37.8691 24.4948C37.9549 24.344 38 24.1735 38 24V3H48C48.2652 3 48.5196 3.10536 48.7071 3.29289C48.8946 3.48043 49 3.73478 49 4V48Z" fill="#183A37"/>
<path d="M20 44H9C8.73478 44 8.48043 44.1054 8.29289 44.2929C8.10536 44.4804 8 44.7348 8 45C8 45.2652 8.10536 45.5196 8.29289 45.7071C8.48043 45.8946 8.73478 46 9 46H20C20.2652 46 20.5196 45.8946 20.7071 45.7071C20.8946 45.5196 21 45.2652 21 45C21 44.7348 20.8946 44.4804 20.7071 44.2929C20.5196 44.1054 20.2652 44 20 44Z" fill="#183A37"/>
<path d="M44 44H33C32.7348 44 32.4804 44.1054 32.2929 44.2929C32.1054 44.4804 32 44.7348 32 45C32 45.2652 32.1054 45.5196 32.2929 45.7071C32.4804 45.8946 32.7348 46 33 46H44C44.2652 46 44.5196 45.8946 44.7071 45.7071C44.8946 45.5196 45 45.2652 45 45C45 44.7348 44.8946 44.4804 44.7071 44.2929C44.5196 44.1054 44.2652 44 44 44Z" fill="#183A37"/>
<path d="M44 39H33C32.7348 39 32.4804 39.1054 32.2929 39.2929C32.1054 39.4804 32 39.7348 32 40C32 40.2652 32.1054 40.5196 32.2929 40.7071C32.4804 40.8946 32.7348 41 33 41H44C44.2652 41 44.5196 40.8946 44.7071 40.7071C44.8946 40.5196 45 40.2652 45 40C45 39.7348 44.8946 39.4804 44.7071 39.2929C44.5196 39.1054 44.2652 39 44 39Z" fill="#183A37"/>
</svg>
