<svg width="22" height="22" viewBox="0 0 22 22" fill="none" xmlns="http://www.w3.org/2000/svg">
<path d="M12.977 12.6724L12.1359 14.2832C12.0438 14.4596 11.8345 14.5394 11.6483 14.469C9.74902 13.7501 8.24991 12.2506 7.53153 10.3511C7.46113 10.1649 7.54093 9.95559 7.7174 9.86352L9.32815 9.02275L8.8202 6.1448C8.21193 5.80239 7.46765 5.80872 6.86513 6.1611C6.26261 6.51348 5.89239 7.15917 5.89258 7.85722C5.89776 12.4113 9.58846 16.102 14.1426 16.1072C14.8402 16.1072 15.4857 15.7372 15.8381 15.1349C16.1905 14.5327 16.197 13.7886 15.855 13.1804L12.977 12.6724Z" fill="#EFD6AC"/>
<path d="M11 0C4.92491 0 0 4.92491 0 11C0 17.0751 4.92491 22 11 22C17.0751 22 22 17.0751 22 11C21.9931 4.92779 17.0722 0.00690569 11 0ZM14.1429 16.8929C9.15484 16.8873 5.11271 12.8452 5.10714 7.85714C5.10733 6.84009 5.66881 5.90609 6.56693 5.42883C7.46524 4.95176 8.55347 5.00931 9.39635 5.57865C9.48458 5.63811 9.54482 5.73096 9.56323 5.83589L10.1525 9.16999C10.1823 9.3388 10.0994 9.50722 9.94746 9.58644L8.39962 10.395C9.03265 11.826 10.1759 12.9698 11.6065 13.6034L12.4143 12.0537C12.4935 11.9018 12.662 11.8189 12.8308 11.8486L16.1653 12.4379C16.27 12.4563 16.3627 12.5164 16.4221 12.6044C16.9911 13.4473 17.0484 14.5355 16.5712 15.4335C16.0937 16.3316 15.1599 16.8929 14.1429 16.8929Z" fill="#EFD6AC"/>
</svg>
