<svg width="386" height="82" viewBox="0 0 386 82" fill="none" xmlns="http://www.w3.org/2000/svg">
<path d="M18.7968 44.4898C16.2617 44.4898 13.4587 44.5209 10.3877 44.583L10.264 43.248L14.8396 41.8819C15.3548 41.737 15.6228 41.4162 15.6434 40.9195C15.6846 39.3465 15.7052 37.3388 15.7052 34.8964V3.91188H4.79194L2.04044 12.1703L0.80381 12.3876L0 1.27291L0.21641 1.02454C5.2866 1.10733 10.1404 1.14873 14.7777 1.14873H23.0322C27.649 1.14873 32.5234 1.10733 37.6554 1.02454L37.8409 1.27291L35.8932 12.1703L34.6566 12.3876L32.678 3.91188H21.7647V34.8964C21.7647 37.3388 21.7853 39.3465 21.8265 40.9195C21.8471 41.4162 22.1151 41.737 22.6303 41.8819L27.2059 43.248L27.2677 44.583C24.0731 44.5209 21.2494 44.4898 18.7968 44.4898Z" fill="#04151F"/>
<path d="M51.9385 36.3867V41.1058C51.9385 41.6439 52.227 41.9958 52.8041 42.1613L56.2358 43.248L56.3285 44.583C53.8759 44.5209 51.4232 44.4898 48.9706 44.4898C46.5179 44.4898 43.9622 44.5209 41.3035 44.583L41.1798 43.248L44.9824 42.0993C45.5183 41.9337 45.7966 41.6129 45.8172 41.1368C45.8584 39.4603 45.879 37.4009 45.879 34.9585V9.77969C45.879 7.70992 45.8584 5.992 45.8172 4.62595C45.7966 4.08781 45.5492 3.73595 45.0752 3.57036L41.2416 2.35954L41.1798 1.02454C43.8386 1.10733 46.3943 1.14873 48.8469 1.14873C51.3202 1.14873 53.7625 1.10733 56.1739 1.02454L56.3285 2.35954L52.8041 3.44618C52.2889 3.57036 52.0209 3.89118 52.0003 4.40862C51.9591 5.89886 51.9385 7.64782 51.9385 9.65551V31.916L74.9089 7.4512V4.40862C74.9089 3.93258 74.6204 3.61176 74.0433 3.44618L70.6116 2.35954L70.5189 1.02454C73.0333 1.10733 75.5272 1.14873 78.0005 1.14873C80.4531 1.14873 82.9676 1.10733 85.5439 1.02454L85.6676 2.35954L81.7722 3.57036C81.2982 3.73595 81.0508 4.08781 81.0302 4.62595C80.9684 5.992 80.9375 7.70992 80.9375 9.77969V34.9585C80.9375 37.4009 80.9684 39.4603 81.0302 41.1368C81.0508 41.6129 81.3291 41.9337 81.8649 42.0993L85.6058 43.248L85.6676 44.583C82.9264 44.5209 80.3295 44.4898 77.8768 44.4898C75.4242 44.4898 73.023 44.5209 70.6734 44.583L70.5189 43.248L74.0433 42.1613C74.5585 42.0165 74.8265 41.6646 74.8471 41.1058L74.9089 34.9585V11.9219L51.9385 36.3867Z" fill="#04151F"/>
<path d="M102.548 41.1058C102.568 41.6646 102.836 42.0165 103.351 42.1613L106.783 43.248L106.876 44.583C104.423 44.5209 101.97 44.4898 99.5178 44.4898C97.0652 44.4898 94.5095 44.5209 91.8507 44.583L91.7271 43.248L95.5297 42.0993C96.0656 41.9337 96.3438 41.6129 96.3644 41.1368C96.4057 39.4603 96.4263 37.4009 96.4263 34.9585V9.77969C96.4263 7.70992 96.4057 5.992 96.3644 4.62595C96.3438 4.08781 96.0965 3.73595 95.6225 3.57036L91.7889 2.35954L91.7271 1.02454C94.3858 1.10733 96.9415 1.14873 99.3942 1.14873H126.816C129.269 1.14873 131.784 1.10733 134.36 1.02454L134.484 2.35954L130.588 3.57036C130.114 3.73595 129.867 4.08781 129.846 4.62595C129.805 5.992 129.784 7.70992 129.784 9.77969V34.9585C129.784 37.4009 129.805 39.4603 129.846 41.1368C129.867 41.6129 130.145 41.9337 130.681 42.0993L134.422 43.248L134.484 44.583C131.763 44.5209 129.166 44.4898 126.693 44.4898C124.24 44.4898 121.839 44.5209 119.489 44.583L119.366 43.248L122.859 42.1613C123.375 42.0165 123.642 41.6646 123.663 41.1058C123.725 39.4499 123.756 37.4009 123.756 34.9585V3.97397H102.486V34.9585C102.486 37.4009 102.506 39.4499 102.548 41.1058Z" fill="#04151F"/>
<path d="M147.375 22.2294C147.375 28.9769 148.736 34.1513 151.456 37.7527C154.177 41.3334 158.165 43.1238 163.421 43.1238C168.594 43.1238 172.407 41.499 174.86 38.2495C177.333 34.9792 178.569 29.8565 178.569 22.8814C178.569 16.3409 177.261 11.3113 174.643 7.79271C172.026 4.27409 167.986 2.51478 162.524 2.51478C157.227 2.51478 153.373 4.1499 150.962 7.42015C148.571 10.6697 147.375 15.6061 147.375 22.2294ZM185.371 21.8258C185.371 28.9872 183.341 34.7515 179.281 39.1188C175.241 43.4653 169.583 45.6386 162.308 45.6386C155.403 45.6386 150.055 43.6309 146.262 39.6155C142.491 35.5795 140.605 30.1256 140.605 23.2539C140.605 16.0925 142.635 10.4317 146.695 6.27142C150.776 2.09047 156.423 0 163.637 0C170.562 0 175.911 1.95594 179.682 5.86782C183.475 9.759 185.371 15.0783 185.371 21.8258Z" fill="#04151F"/>
<path d="M202.251 34.9585C202.251 37.4009 202.272 39.4085 202.313 40.9816C202.333 41.4783 202.601 41.7991 203.117 41.944L207.383 43.248L207.445 44.583C204.456 44.5209 201.736 44.4898 199.283 44.4898C196.83 44.4898 194.275 44.5209 191.616 44.583L191.492 43.248L195.295 42.0993C195.831 41.9337 196.109 41.6129 196.13 41.1368C196.171 39.4603 196.191 37.4009 196.191 34.9585V9.77969C196.191 8.72411 196.181 7.77201 196.161 6.9234C196.161 6.07479 196.15 5.30898 196.13 4.62595C196.109 4.08781 195.862 3.73595 195.388 3.57036L191.554 2.35954L191.492 1.02454C194.151 1.10733 196.707 1.14873 199.159 1.14873H206.425C211.495 1.14873 216.379 1.10733 221.079 1.02454L221.264 1.27291L219.131 12.667L217.894 12.8844L215.545 3.91188H202.251V34.9585Z" fill="#04151F"/>
<path d="M237.062 23.5023C238.505 23.7507 239.927 23.8749 241.328 23.8749C244.626 23.8749 247.13 23.0263 248.841 21.329C250.572 19.6111 251.438 16.9929 251.438 13.4742C251.438 10.1005 250.613 7.58573 248.965 5.92991C247.336 4.27409 244.76 3.44618 241.236 3.44618C239.855 3.44618 238.464 3.52897 237.062 3.69455V23.5023ZM237.062 34.9585C237.062 36.2004 237.062 37.3181 237.062 38.3116C237.083 39.3051 237.103 40.1951 237.124 40.9816C237.145 41.4576 237.412 41.7784 237.928 41.944L242.194 43.248L242.256 44.583C239.267 44.5209 236.547 44.4898 234.094 44.4898C231.6 44.4898 229.045 44.5209 226.427 44.583L226.303 43.248L230.106 42.0993C230.642 41.9337 230.92 41.6129 230.941 41.1368C230.961 40.3089 230.972 39.3878 230.972 38.3737C230.992 37.3388 231.003 36.2004 231.003 34.9585V9.77969C231.003 8.72411 230.992 7.77201 230.972 6.9234C230.972 6.07479 230.961 5.30898 230.941 4.62595C230.92 4.08781 230.673 3.73595 230.199 3.57036L226.365 2.35954L226.303 1.02454C228.962 1.10733 231.549 1.14873 234.063 1.14873C235.753 1.14873 237.382 1.10733 238.948 1.02454C240.535 0.941748 241.978 0.900353 243.276 0.900353C248.12 0.900353 251.778 1.8628 254.251 3.78769C256.745 5.69188 257.992 8.53783 257.992 12.3255C257.992 16.7755 256.56 20.2321 253.695 22.6951C250.83 25.1581 246.811 26.3896 241.638 26.3896C240.215 26.3896 238.69 26.2965 237.062 26.1102V34.9585Z" fill="#04151F"/>
<path d="M278.7 0.373047L292.427 38.3431C292.942 39.7712 293.406 40.744 293.818 41.2615C294.251 41.7582 294.859 42.1308 295.642 42.3791L298.548 43.2485L298.61 44.5835C295.91 44.5214 293.406 44.4903 291.097 44.4903C288.748 44.4903 285.976 44.5214 282.781 44.5835L282.657 43.2485L285.594 42.3791C286.007 42.2343 286.295 42.079 286.46 41.9134C286.645 41.7272 286.738 41.4477 286.738 41.0752C286.738 40.6612 286.625 40.1231 286.398 39.4608C286.192 38.7777 285.893 37.8774 285.502 36.7597L282.596 28.4392H267.694L264.448 36.7287C264.015 37.8877 263.675 38.8088 263.428 39.4918C263.18 40.1748 263.057 40.713 263.057 41.1062C263.057 41.4581 263.149 41.7272 263.335 41.9134C263.541 42.079 263.84 42.2239 264.232 42.3481L267.107 43.1864L267.169 44.5835C264.242 44.5214 261.851 44.4903 259.996 44.4903C258.141 44.4903 256.07 44.5214 253.782 44.5835L253.627 43.2485L256.75 42.286C257.533 42.0376 258.11 41.6547 258.481 41.1373C258.852 40.6198 259.264 39.8126 259.718 38.7156L275.516 0.838746L278.7 0.373047ZM268.838 25.614H281.575L275.547 8.50727L268.838 25.614Z" fill="#04151F"/>
<path d="M339.942 21.2652C339.942 25.7566 338.437 29.3269 335.428 31.9763C332.419 34.6049 327.802 36.1158 321.578 36.5091V41.1661C321.578 41.6628 321.959 42.025 322.722 42.2527L326.246 43.3083L326.308 44.5812C323.629 44.5191 321.145 44.4881 318.857 44.4881C316.508 44.4881 314.024 44.5191 311.407 44.5812L311.252 43.3083L315.055 42.1596C315.673 41.994 315.982 41.6732 315.982 41.1971V36.6022C309.469 36.271 304.78 34.8946 301.915 32.473C299.051 30.0307 297.618 26.6259 297.618 22.2587C297.618 17.8914 299.04 14.4246 301.885 11.858C304.749 9.29151 309.449 7.79092 315.982 7.35626V3.56857C315.982 3.05113 315.704 2.70962 315.147 2.54403L311.345 1.33322L311.252 0.0603027C313.931 0.122396 316.425 0.153443 318.734 0.153443C321.042 0.153443 323.515 0.122396 326.153 0.0603027L326.308 1.33322L322.474 2.48194C321.877 2.62683 321.578 2.93729 321.578 3.41334V7.29417C328.194 7.56324 332.903 8.9086 335.706 11.3302C338.53 13.7312 339.942 17.0428 339.942 21.2652ZM321.578 9.49848V34.3979C326.277 34.1288 329.472 33.0422 331.162 31.138C332.852 29.2131 333.697 26.1498 333.697 21.9482C333.697 18.2433 332.934 15.3456 331.409 13.2551C329.905 11.144 326.627 9.89174 321.578 9.49848ZM303.863 21.5756C303.863 25.5496 304.718 28.5715 306.429 30.6412C308.16 32.711 311.345 33.9322 315.982 34.3048V9.46744C311.015 9.73651 307.748 10.8438 306.182 12.7894C304.636 14.735 303.863 17.6637 303.863 21.5756Z" fill="#04151F"/>
<path d="M385.914 21.2652C385.914 25.7566 384.409 29.3269 381.4 31.9763C378.391 34.6049 373.774 36.1158 367.55 36.5091V41.1661C367.55 41.6628 367.931 42.025 368.693 42.2527L372.218 43.3083L372.28 44.5812C369.6 44.5191 367.117 44.4881 364.829 44.4881C362.479 44.4881 359.996 44.5191 357.378 44.5812L357.224 43.3083L361.026 42.1596C361.645 41.994 361.954 41.6732 361.954 41.1971V36.6022C355.441 36.271 350.752 34.8946 347.887 32.473C345.022 30.0307 343.59 26.6259 343.59 22.2587C343.59 17.8914 345.012 14.4246 347.856 11.858C350.721 9.29151 355.42 7.79092 361.954 7.35626V3.56857C361.954 3.05113 361.676 2.70962 361.119 2.54403L357.316 1.33322L357.224 0.0603027C359.903 0.122396 362.397 0.153443 364.705 0.153443C367.014 0.153443 369.487 0.122396 372.125 0.0603027L372.28 1.33322L368.446 2.48194C367.848 2.62683 367.55 2.93729 367.55 3.41334V7.29417C374.166 7.56324 378.875 8.9086 381.678 11.3302C384.502 13.7312 385.914 17.0428 385.914 21.2652ZM367.55 9.49848V34.3979C372.249 34.1288 375.443 33.0422 377.134 31.138C378.824 29.2131 379.669 26.1498 379.669 21.9482C379.669 18.2433 378.906 15.3456 377.381 13.2551C375.876 11.144 372.599 9.89174 367.55 9.49848ZM349.835 21.5756C349.835 25.5496 350.69 28.5715 352.401 30.6412C354.132 32.711 357.316 33.9322 361.954 34.3048V9.46744C356.987 9.73651 353.72 10.8438 352.154 12.7894C350.608 14.735 349.835 17.6637 349.835 21.5756Z" fill="#04151F"/>
<path d="M77.3962 78.8722V80.4651C77.3962 80.6467 77.4936 80.7655 77.6884 80.8214L78.8467 81.1882L78.878 81.6388C78.0501 81.6178 77.2222 81.6073 76.3944 81.6073C75.5665 81.6073 74.7038 81.6178 73.8064 81.6388L73.7646 81.1882L75.0482 80.8004C75.2291 80.7445 75.323 80.6362 75.33 80.4755C75.3439 79.9096 75.3508 79.2145 75.3508 78.3901V69.8912C75.3508 69.1926 75.3439 68.6127 75.33 68.1516C75.323 67.9699 75.2395 67.8512 75.0795 67.7953L73.7855 67.3866L73.7646 66.936C74.6621 66.9639 75.5247 66.9779 76.3526 66.9779C77.1875 66.9779 78.0118 66.9639 78.8258 66.936L78.878 67.3866L77.6884 67.7534C77.5144 67.7953 77.424 67.9036 77.417 68.0782C77.4031 68.5813 77.3962 69.1716 77.3962 69.8493V77.3631L85.1497 69.1052V68.0782C85.1497 67.9175 85.0523 67.8093 84.8575 67.7534L83.6991 67.3866L83.6678 66.936C84.5166 66.9639 85.3584 66.9779 86.1932 66.9779C87.0211 66.9779 87.8698 66.9639 88.7394 66.936L88.7812 67.3866L87.4663 67.7953C87.3063 67.8512 87.2228 67.9699 87.2159 68.1516C87.195 68.6127 87.1846 69.1926 87.1846 69.8912V78.3901C87.1846 79.2145 87.195 79.9096 87.2159 80.4755C87.2228 80.6362 87.3167 80.7445 87.4976 80.8004L88.7603 81.1882L88.7812 81.6388C87.8559 81.6178 86.9793 81.6073 86.1514 81.6073C85.3236 81.6073 84.5131 81.6178 83.72 81.6388L83.6678 81.1882L84.8575 80.8214C85.0314 80.7725 85.1218 80.6537 85.1288 80.4651L85.1497 78.3901V70.6143L77.3962 78.8722Z" fill="#04151F"/>
<path d="M94.4476 74.3555V78.3901C94.4476 79.2145 94.4545 79.9062 94.4685 80.4651C94.4754 80.6537 94.5658 80.7725 94.7398 80.8214L95.8981 81.1882L95.9294 81.6388C95.1015 81.6178 94.2737 81.6073 93.4458 81.6073C92.6179 81.6073 91.7553 81.6178 90.8578 81.6388L90.8161 81.1882L92.0996 80.8004C92.2805 80.7445 92.3744 80.6362 92.3814 80.4755C92.3953 79.9096 92.4022 79.2145 92.4022 78.3901V69.8912C92.4022 69.1926 92.3953 68.6127 92.3814 68.1516C92.3744 67.9699 92.2909 67.8512 92.1309 67.7953L90.8369 67.3866L90.8161 66.936C91.7135 66.9639 92.5762 66.9779 93.404 66.9779C94.2389 66.9779 95.0633 66.9639 95.8772 66.936L95.9294 67.3866L94.7398 67.7534C94.5658 67.7953 94.4754 67.9036 94.4685 68.0782C94.4545 68.5813 94.4476 69.1716 94.4476 69.8493V73.4018H102.045V69.8493C102.045 69.1716 102.038 68.5813 102.024 68.0782C102.017 67.9036 101.926 67.7953 101.752 67.7534L100.594 67.3866L100.573 66.936C101.422 66.9639 102.26 66.9779 103.088 66.9779C103.916 66.9779 104.765 66.9639 105.634 66.936L105.676 67.3866L104.361 67.7953C104.201 67.8512 104.118 67.9699 104.111 68.1516C104.097 68.6127 104.09 69.1926 104.09 69.8912V78.3901C104.09 79.2145 104.097 79.9096 104.111 80.4755C104.118 80.6362 104.212 80.7445 104.393 80.8004L105.655 81.1882L105.676 81.6388C104.758 81.6178 103.881 81.6073 103.046 81.6073C102.218 81.6073 101.408 81.6178 100.615 81.6388L100.573 81.1882L101.752 80.8214C101.926 80.7725 102.017 80.6537 102.024 80.4651C102.038 79.9062 102.045 79.2145 102.045 78.3901V74.3555H94.4476Z" fill="#04151F"/>
<path d="M115.944 74.7642H114.515C114.369 74.7642 114.247 74.7782 114.15 74.8061C114.052 74.8341 113.965 74.8795 113.889 74.9423C113.812 75.0052 113.743 75.0891 113.68 75.1938C113.617 75.2917 113.548 75.4139 113.471 75.5606C113.116 76.1964 112.803 76.7867 112.532 77.3317C112.268 77.8696 112.014 78.3831 111.77 78.8722C111.506 79.4031 111.252 79.8747 111.009 80.2869C110.765 80.6991 110.497 81.0205 110.205 81.251C110.08 81.3628 109.955 81.4536 109.829 81.5235C109.711 81.5864 109.575 81.6353 109.422 81.6702C109.269 81.7121 109.092 81.7401 108.89 81.754C108.688 81.768 108.448 81.775 108.17 81.775C107.996 81.775 107.805 81.768 107.596 81.754C107.394 81.7401 107.175 81.7191 106.939 81.6912L106.907 81.2301C107.088 81.1812 107.245 81.1358 107.377 81.0938C107.509 81.0519 107.627 81.003 107.732 80.9471C107.843 80.8842 107.951 80.8144 108.055 80.7375C108.16 80.6537 108.274 80.5489 108.4 80.4231C108.511 80.2974 108.636 80.1332 108.775 79.9306C108.915 79.721 109.061 79.487 109.214 79.2285C109.367 78.963 109.523 78.68 109.683 78.3796C109.85 78.0722 110.021 77.7544 110.195 77.426C110.515 76.8322 110.838 76.2278 111.165 75.613C111.499 74.9982 111.843 74.4184 112.198 73.8734C111.962 73.7058 111.753 73.5066 111.572 73.2761C111.391 73.0386 111.224 72.7801 111.071 72.5006C110.918 72.2142 110.772 71.9068 110.633 71.5784C110.501 71.25 110.362 70.9042 110.215 70.5409C110.021 70.0519 109.826 69.6292 109.631 69.2729C109.443 68.9166 109.228 68.6232 108.984 68.3926C108.748 68.1621 108.469 67.9909 108.149 67.8791C107.829 67.7604 107.478 67.694 107.095 67.68L107.054 67.0303C107.742 66.9744 108.407 66.9464 109.047 66.9464C109.436 66.9464 109.746 66.9744 109.975 67.0303C110.205 67.0792 110.396 67.2084 110.549 67.418C110.709 67.6276 110.852 67.942 110.977 68.3612C111.109 68.7804 111.269 69.3567 111.457 70.0903C111.61 70.6841 111.753 71.1907 111.885 71.6098C112.017 72.022 112.153 72.3679 112.292 72.6473C112.431 72.9268 112.577 73.1468 112.73 73.3075C112.89 73.4682 113.068 73.5905 113.263 73.6743C113.457 73.7581 113.68 73.8105 113.93 73.8315C114.181 73.8525 114.47 73.8629 114.797 73.8629H115.944V69.8493C115.944 69.5069 115.941 69.1891 115.934 68.8956C115.934 68.6022 115.931 68.3297 115.924 68.0782C115.917 67.9036 115.826 67.7953 115.652 67.7534L114.494 67.3866L114.463 66.936C114.88 66.9499 115.291 66.9604 115.694 66.9674C116.104 66.9744 116.518 66.9779 116.936 66.9779C117.332 66.9779 117.729 66.9744 118.125 66.9674C118.529 66.9604 118.939 66.9499 119.357 66.936L119.399 67.3866L118.219 67.7534C118.039 67.7953 117.945 67.9036 117.938 68.0782C117.931 68.3297 117.924 68.6022 117.917 68.8956C117.917 69.1891 117.917 69.5069 117.917 69.8493V73.8629H119.065C119.392 73.8629 119.68 73.8525 119.931 73.8315C120.181 73.8105 120.404 73.7581 120.599 73.6743C120.8 73.5905 120.978 73.4682 121.131 73.3075C121.284 73.1468 121.43 72.9268 121.569 72.6473C121.708 72.3679 121.844 72.022 121.976 71.6098C122.108 71.1907 122.251 70.6841 122.404 70.0903C122.529 69.6013 122.637 69.1856 122.727 68.8432C122.825 68.4939 122.919 68.204 123.009 67.9734C123.107 67.7359 123.204 67.5508 123.301 67.418C123.406 67.2853 123.528 67.184 123.667 67.1141C123.806 67.0442 123.966 66.9988 124.147 66.9779C124.335 66.9569 124.561 66.9464 124.825 66.9464C125.402 66.9464 126.049 66.9744 126.766 67.0303L126.818 67.68C126.31 67.708 125.896 67.7918 125.576 67.9315C125.256 68.0712 124.982 68.2634 124.752 68.5079C124.522 68.7524 124.321 69.0458 124.147 69.3882C123.98 69.7305 123.813 70.1148 123.646 70.5409C123.514 70.8693 123.378 71.1942 123.239 71.5155C123.1 71.8369 122.95 72.1443 122.79 72.4377C122.63 72.7242 122.456 72.9896 122.268 73.2342C122.08 73.4787 121.872 73.6848 121.642 73.8525C121.997 74.3834 122.341 74.9633 122.675 75.5921C123.016 76.2208 123.347 76.8322 123.667 77.426C123.848 77.7544 124.021 78.0687 124.188 78.3692C124.355 78.6696 124.512 78.9525 124.658 79.218C124.811 79.4765 124.954 79.7105 125.086 79.9201C125.225 80.1227 125.354 80.2904 125.472 80.4231C125.583 80.5489 125.691 80.6537 125.795 80.7375C125.9 80.8144 126.008 80.8842 126.119 80.9471C126.237 81.003 126.359 81.0519 126.484 81.0938C126.616 81.1358 126.762 81.1777 126.923 81.2196L126.954 81.6807C126.46 81.7436 126.042 81.775 125.702 81.775C125.416 81.775 125.173 81.768 124.971 81.754C124.769 81.7401 124.592 81.7121 124.439 81.6702C124.286 81.6353 124.147 81.5864 124.021 81.5235C123.903 81.4536 123.781 81.3628 123.656 81.251C123.364 81.0205 123.096 80.6991 122.853 80.2869C122.609 79.8747 122.355 79.4031 122.091 78.8722C121.854 78.3831 121.6 77.8696 121.329 77.3317C121.065 76.7867 120.755 76.1964 120.4 75.5606C120.317 75.4139 120.24 75.2917 120.171 75.1938C120.108 75.0891 120.039 75.0052 119.962 74.9423C119.893 74.8795 119.809 74.8341 119.712 74.8061C119.621 74.7782 119.503 74.7642 119.357 74.7642H117.917V78.3901C117.917 78.8093 117.917 79.1866 117.917 79.5219C117.924 79.8572 117.931 80.1612 117.938 80.4336C117.945 80.6572 118.039 80.7934 118.219 80.8423L119.378 81.1882L119.399 81.6388C118.571 81.6178 117.75 81.6073 116.936 81.6073C115.851 81.6073 115.044 81.6178 114.515 81.6388L114.463 81.1882L115.652 80.8423C115.819 80.7934 115.91 80.6572 115.924 80.4336C115.931 80.1612 115.934 79.8572 115.934 79.5219C115.941 79.1866 115.944 78.8093 115.944 78.3901V74.7642Z" fill="#04151F"/>
<path d="M130.784 66.9779H133.319C134.878 66.9779 136.523 66.9639 138.255 66.936L138.318 67.0198L137.713 70.258L137.295 70.3313L136.648 67.9106H131.827V73.6743H132.777C133.5 73.6743 134.307 73.6673 135.198 73.6534C135.379 73.6464 135.497 73.5555 135.553 73.3809L135.918 71.9661L136.481 71.9452C136.46 72.9233 136.45 73.6464 136.45 74.1145C136.45 74.5686 136.46 75.2812 136.481 76.2523L135.918 76.2942L135.542 74.8585C135.486 74.6769 135.379 74.5825 135.219 74.5756C134.314 74.5616 133.497 74.5546 132.766 74.5546H131.827V78.3692C131.827 79.1446 131.834 79.9096 131.848 80.6642H136.857L138.13 78.0024L138.6 77.9185L138.37 81.5654L138.297 81.6388C136.495 81.6178 134.833 81.6073 133.309 81.6073H130.825C129.984 81.6073 129.121 81.6178 128.237 81.6388L128.196 81.1882L129.479 80.8004C129.653 80.7515 129.747 80.6432 129.761 80.4755C129.768 80.1961 129.771 79.8852 129.771 79.5429C129.778 79.1935 129.782 78.8093 129.782 78.3901V69.8912C129.782 69.5349 129.778 69.2135 129.771 68.9271C129.771 68.6406 129.768 68.3821 129.761 68.1516C129.754 67.9699 129.67 67.8512 129.51 67.7953L128.216 67.3866L128.196 66.936C129.093 66.9639 129.956 66.9779 130.784 66.9779Z" fill="#04151F"/>
<path d="M144.245 74.3555V78.3901C144.245 79.2145 144.252 79.9062 144.266 80.4651C144.273 80.6537 144.364 80.7725 144.537 80.8214L145.696 81.1882L145.727 81.6388C144.899 81.6178 144.071 81.6073 143.243 81.6073C142.416 81.6073 141.553 81.6178 140.655 81.6388L140.614 81.1882L141.897 80.8004C142.078 80.7445 142.172 80.6362 142.179 80.4755C142.193 79.9096 142.2 79.2145 142.2 78.3901V69.8912C142.2 69.1926 142.193 68.6127 142.179 68.1516C142.172 67.9699 142.089 67.8512 141.929 67.7953L140.635 67.3866L140.614 66.936C141.511 66.9639 142.374 66.9779 143.202 66.9779C144.037 66.9779 144.861 66.9639 145.675 66.936L145.727 67.3866L144.537 67.7534C144.364 67.7953 144.273 67.9036 144.266 68.0782C144.252 68.5813 144.245 69.1716 144.245 69.8493V73.4018H151.842V69.8493C151.842 69.1716 151.835 68.5813 151.821 68.0782C151.814 67.9036 151.724 67.7953 151.55 67.7534L150.392 67.3866L150.371 66.936C151.22 66.9639 152.058 66.9779 152.886 66.9779C153.714 66.9779 154.562 66.9639 155.432 66.936L155.474 67.3866L154.159 67.7953C153.999 67.8512 153.915 67.9699 153.908 68.1516C153.894 68.6127 153.888 69.1926 153.888 69.8912V78.3901C153.888 79.2145 153.894 79.9096 153.908 80.4755C153.915 80.6362 154.009 80.7445 154.19 80.8004L155.453 81.1882L155.474 81.6388C154.555 81.6178 153.679 81.6073 152.844 81.6073C152.016 81.6073 151.206 81.6178 150.413 81.6388L150.371 81.1882L151.55 80.8214C151.724 80.7725 151.814 80.6537 151.821 80.4651C151.835 79.9062 151.842 79.2145 151.842 78.3901V74.3555H144.245Z" fill="#04151F"/>
<path d="M160.107 66.9779H162.643C164.201 66.9779 165.846 66.9639 167.579 66.936L167.641 67.0198L167.036 70.258L166.619 70.3313L165.972 67.9106H161.151V73.6743H162.1C162.824 73.6743 163.631 73.6673 164.521 73.6534C164.702 73.6464 164.82 73.5555 164.876 73.3809L165.241 71.9661L165.805 71.9452C165.784 72.9233 165.773 73.6464 165.773 74.1145C165.773 74.5686 165.784 75.2812 165.805 76.2523L165.241 76.2942L164.866 74.8585C164.81 74.6769 164.702 74.5825 164.542 74.5756C163.638 74.5616 162.82 74.5546 162.09 74.5546H161.151V78.3692C161.151 79.1446 161.158 79.9096 161.171 80.6642H166.18L167.454 78.0024L167.923 77.9185L167.694 81.5654L167.62 81.6388C165.819 81.6178 164.156 81.6073 162.632 81.6073H160.149C159.307 81.6073 158.444 81.6178 157.561 81.6388L157.519 81.1882L158.803 80.8004C158.977 80.7515 159.07 80.6432 159.084 80.4755C159.091 80.1961 159.095 79.8852 159.095 79.5429C159.102 79.1935 159.105 78.8093 159.105 78.3901V69.8912C159.105 69.5349 159.102 69.2135 159.095 68.9271C159.095 68.6406 159.091 68.3821 159.084 68.1516C159.077 67.9699 158.994 67.8512 158.834 67.7953L157.54 67.3866L157.519 66.936C158.416 66.9639 159.279 66.9779 160.107 66.9779Z" fill="#04151F"/>
<path d="M173.569 74.5232C174.056 74.607 174.536 74.6489 175.009 74.6489C176.122 74.6489 176.967 74.3625 177.545 73.7896C178.129 73.2097 178.421 72.3259 178.421 71.1383C178.421 69.9995 178.143 69.1506 177.586 68.5917C177.037 68.0328 176.167 67.7534 174.977 67.7534C174.511 67.7534 174.042 67.7813 173.569 67.8372V74.5232ZM173.569 78.3901C173.569 78.8093 173.569 79.1866 173.569 79.5219C173.576 79.8572 173.583 80.1577 173.59 80.4231C173.596 80.5838 173.687 80.6921 173.861 80.748L175.301 81.1882L175.322 81.6388C174.313 81.6178 173.395 81.6073 172.567 81.6073C171.725 81.6073 170.862 81.6178 169.979 81.6388L169.937 81.1882L171.221 80.8004C171.402 80.7445 171.495 80.6362 171.502 80.4755C171.509 80.1961 171.513 79.8852 171.513 79.5429C171.52 79.1935 171.523 78.8093 171.523 78.3901V69.8912C171.523 69.5349 171.52 69.2135 171.513 68.9271C171.513 68.6406 171.509 68.3821 171.502 68.1516C171.495 67.9699 171.412 67.8512 171.252 67.7953L169.958 67.3866L169.937 66.936C170.835 66.9639 171.708 66.9779 172.556 66.9779C173.127 66.9779 173.676 66.9639 174.205 66.936C174.741 66.908 175.228 66.894 175.666 66.894C177.301 66.894 178.536 67.2189 179.371 67.8686C180.213 68.5114 180.633 69.472 180.633 70.7505C180.633 72.2526 180.15 73.4193 179.183 74.2507C178.216 75.0821 176.859 75.4978 175.113 75.4978C174.633 75.4978 174.118 75.4663 173.569 75.4034V78.3901Z" fill="#04151F"/>
<path d="M185.567 74.3564V78.391C185.567 79.2154 185.574 79.9071 185.587 80.466C185.594 80.6546 185.685 80.7734 185.859 80.8223L187.017 81.1891L187.048 81.6397C186.221 81.6187 185.393 81.6083 184.565 81.6083C183.737 81.6083 182.874 81.6187 181.977 81.6397L181.935 81.1891L183.219 80.8013C183.399 80.7454 183.493 80.6372 183.5 80.4765C183.514 79.9106 183.521 79.2154 183.521 78.391V69.8921C183.521 69.1935 183.514 68.6136 183.5 68.1525C183.493 67.9709 183.41 67.8521 183.25 67.7962L181.956 67.3875L181.935 66.9369C182.833 66.9648 183.695 66.9788 184.523 66.9788C185.358 66.9788 186.182 66.9648 186.996 66.9369L187.048 67.3875L185.859 67.7543C185.685 67.7962 185.594 67.9045 185.587 68.0791C185.574 68.5822 185.567 69.1725 185.567 69.8502V73.4028H193.164V69.8502C193.164 69.1725 193.157 68.5822 193.143 68.0791C193.136 67.9045 193.045 67.7962 192.871 67.7543L191.713 67.3875L191.692 66.9369C192.541 66.9648 193.379 66.9788 194.207 66.9788C195.035 66.9788 195.884 66.9648 196.753 66.9369L196.795 67.3875L195.48 67.7962C195.32 67.8521 195.237 67.9709 195.23 68.1525C195.216 68.6136 195.209 69.1935 195.209 69.8921V78.391C195.209 79.2154 195.216 79.9106 195.23 80.4765C195.237 80.6372 195.331 80.7454 195.511 80.8013L196.774 81.1891L196.795 81.6397C195.877 81.6187 195 81.6083 194.165 81.6083C193.337 81.6083 192.527 81.6187 191.734 81.6397L191.692 81.1891L192.871 80.8223C193.045 80.7734 193.136 80.6546 193.143 80.466C193.157 79.9071 193.164 79.2154 193.164 78.391V74.3564H185.567Z" fill="#04151F"/>
<path d="M205.686 66.7168L210.319 79.5333C210.493 80.0154 210.65 80.3437 210.789 80.5184C210.935 80.6861 211.14 80.8118 211.405 80.8957L212.386 81.1891L212.406 81.6397C211.495 81.6187 210.65 81.6083 209.871 81.6083C209.078 81.6083 208.142 81.6187 207.063 81.6397L207.022 81.1891L208.013 80.8957C208.152 80.8467 208.25 80.7944 208.305 80.7385C208.368 80.6756 208.399 80.5813 208.399 80.4555C208.399 80.3158 208.361 80.1341 208.284 79.9106C208.215 79.68 208.114 79.3761 207.982 78.9989L207.001 76.1903H201.971L200.875 78.9884C200.729 79.3796 200.614 79.6905 200.531 79.9211C200.447 80.1516 200.406 80.3333 200.406 80.466C200.406 80.5848 200.437 80.6756 200.5 80.7385C200.569 80.7944 200.67 80.8433 200.802 80.8852L201.773 81.1681L201.794 81.6397C200.806 81.6187 199.999 81.6083 199.373 81.6083C198.746 81.6083 198.047 81.6187 197.275 81.6397L197.223 81.1891L198.277 80.8642C198.541 80.7804 198.736 80.6511 198.861 80.4765C198.986 80.3018 199.126 80.0293 199.279 79.6591L204.611 66.874L205.686 66.7168ZM202.357 75.2367H206.656L204.622 69.4624L202.357 75.2367Z" fill="#04151F"/>
<path d="M219.993 74.9642C219.84 74.9642 219.711 74.9782 219.607 75.0061C219.509 75.0271 219.422 75.069 219.346 75.1319C219.269 75.1948 219.196 75.2786 219.127 75.3834C219.064 75.4812 218.991 75.6035 218.908 75.7502C218.664 76.1764 218.431 76.6095 218.208 77.0497C217.993 77.4828 217.767 77.909 217.53 78.3282C217.182 78.9779 216.845 79.5647 216.518 80.0887C216.198 80.6127 215.878 81.0005 215.558 81.252C215.426 81.3568 215.294 81.4441 215.161 81.5139C215.029 81.5838 214.88 81.6362 214.713 81.6711C214.546 81.7131 214.354 81.741 214.139 81.755C213.923 81.769 213.673 81.7759 213.387 81.7759C213.039 81.7759 212.65 81.748 212.219 81.6921L212.187 81.231C212.368 81.1821 212.532 81.1367 212.678 81.0948C212.824 81.0528 212.959 81.0039 213.085 80.9481C213.21 80.8922 213.328 80.8258 213.439 80.7489C213.558 80.6651 213.683 80.5568 213.815 80.4241C214.052 80.1865 214.302 79.8477 214.567 79.4076C214.831 78.9674 215.13 78.4609 215.464 77.888C215.735 77.4199 216.017 76.9169 216.309 76.379C216.608 75.834 216.942 75.2611 217.311 74.6603C215.245 74.1084 214.212 72.8718 214.212 70.9505C214.212 69.665 214.692 68.666 215.652 67.9534C216.612 67.2408 217.861 66.8845 219.398 66.8845C219.809 66.8845 220.257 66.9019 220.744 66.9369C221.231 66.9648 221.757 66.9788 222.32 66.9788C223.099 66.9788 223.958 66.9648 224.898 66.9369L224.939 67.398L223.624 67.8067C223.471 67.8626 223.388 67.9848 223.374 68.1735C223.367 68.418 223.36 68.6835 223.353 68.9699C223.353 69.2563 223.353 69.5812 223.353 69.9445V78.391C223.353 78.8102 223.353 79.1875 223.353 79.5228C223.36 79.8582 223.367 80.1726 223.374 80.466C223.381 80.6337 223.475 80.7454 223.656 80.8013L224.918 81.1891L224.939 81.6397C224.049 81.6187 223.172 81.6083 222.31 81.6083C221.454 81.6083 220.64 81.6187 219.868 81.6397L219.826 81.1891L221.016 80.8223C221.183 80.7734 221.273 80.6407 221.287 80.4241C221.294 80.1586 221.297 79.8582 221.297 79.5228C221.304 79.1875 221.308 78.8102 221.308 78.391V74.9642H219.993ZM221.308 67.8276C220.793 67.7717 220.323 67.7438 219.899 67.7438C218.695 67.7438 217.812 67.9988 217.248 68.5088C216.692 69.0118 216.414 69.8083 216.414 70.8981C216.414 72.0439 216.723 72.8823 217.342 73.4132C217.968 73.9442 218.918 74.2097 220.191 74.2097C220.623 74.2097 220.995 74.2062 221.308 74.1992V67.8276Z" fill="#04151F"/>
<path d="M236.022 80.466C236.029 80.6546 236.119 80.7734 236.293 80.8223L237.451 81.1891L237.483 81.6397C236.655 81.6187 235.827 81.6083 234.999 81.6083C234.171 81.6083 233.308 81.6187 232.411 81.6397L232.369 81.1891L233.653 80.8013C233.834 80.7454 233.928 80.6372 233.935 80.4765C233.949 79.9106 233.955 79.2154 233.955 78.391V69.8921C233.955 69.1935 233.949 68.6136 233.935 68.1525C233.928 67.9709 233.844 67.8521 233.684 67.7962L232.39 67.3875L232.369 66.9369C233.267 66.9648 234.129 66.9788 234.957 66.9788H244.213C245.041 66.9788 245.89 66.9648 246.76 66.9369L246.801 67.3875L245.487 67.7962C245.327 67.8521 245.243 67.9709 245.236 68.1525C245.222 68.6136 245.215 69.1935 245.215 69.8921V78.391C245.215 79.2154 245.222 79.9106 245.236 80.4765C245.243 80.6372 245.337 80.7454 245.518 80.8013L246.781 81.1891L246.801 81.6397C245.883 81.6187 245.007 81.6083 244.172 81.6083C243.344 81.6083 242.533 81.6187 241.74 81.6397L241.699 81.1891L242.878 80.8223C243.052 80.7734 243.142 80.6546 243.149 80.466C243.17 79.9071 243.18 79.2154 243.18 78.391V67.9324H236.001V78.391C236.001 79.2154 236.008 79.9071 236.022 80.466Z" fill="#04151F"/>
<path d="M251.435 66.9788H253.971C255.529 66.9788 257.174 66.9648 258.906 66.9369L258.969 67.0207L258.364 70.2589L257.946 70.3322L257.299 67.9115H252.478V73.6752H253.428C254.151 73.6752 254.958 73.6682 255.849 73.6543C256.03 73.6473 256.148 73.5565 256.204 73.3818L256.569 71.9671L257.132 71.9461C257.112 72.9242 257.101 73.6473 257.101 74.1154C257.101 74.5695 257.112 75.2821 257.132 76.2532L256.569 76.2951L256.193 74.8594C256.138 74.6778 256.03 74.5835 255.87 74.5765C254.965 74.5625 254.148 74.5555 253.417 74.5555H252.478V78.3701C252.478 79.1456 252.485 79.9106 252.499 80.6651H257.508L258.781 78.0033L259.251 77.9195L259.021 81.5663L258.948 81.6397C257.146 81.6187 255.484 81.6083 253.96 81.6083H251.476C250.635 81.6083 249.772 81.6187 248.889 81.6397L248.847 81.1891L250.13 80.8013C250.304 80.7524 250.398 80.6441 250.412 80.4765C250.419 80.197 250.423 79.8861 250.423 79.5438C250.429 79.1945 250.433 78.8102 250.433 78.391V69.8921C250.433 69.5358 250.429 69.2144 250.423 68.928C250.423 68.6415 250.419 68.383 250.412 68.1525C250.405 67.9709 250.322 67.8521 250.162 67.7962L248.868 67.3875L248.847 66.9369C249.744 66.9648 250.607 66.9788 251.435 66.9788Z" fill="#04151F"/>
<path d="M263.766 69.8502V71.2754C263.766 72.3304 264.009 73.0674 264.496 73.4866C264.99 73.9058 265.724 74.1154 266.698 74.1154C267.679 74.1154 268.653 73.9267 269.62 73.5495V69.8502C269.62 69.1725 269.613 68.5822 269.599 68.0791C269.592 67.9045 269.502 67.7962 269.328 67.7543L268.17 67.3875L268.149 66.9369C268.99 66.9648 269.829 66.9788 270.664 66.9788C271.491 66.9788 272.34 66.9648 273.21 66.9369L273.252 67.3875L271.937 67.7962C271.777 67.8521 271.693 67.9709 271.686 68.1525C271.672 68.6136 271.665 69.1935 271.665 69.8921V78.391C271.665 79.2154 271.672 79.9106 271.686 80.4765C271.693 80.6372 271.787 80.7455 271.968 80.8013L273.231 81.1891L273.252 81.6397C272.333 81.6188 271.457 81.6083 270.622 81.6083C269.794 81.6083 268.91 81.6188 267.971 81.6397L267.93 81.1891L269.328 80.7594C269.502 80.7035 269.592 80.5848 269.599 80.4031C269.613 79.8861 269.62 79.2154 269.62 78.391V74.4822C268.166 75.1389 266.806 75.4672 265.54 75.4672C264.267 75.4672 263.31 75.1633 262.67 74.5555C262.037 73.9407 261.72 73.0185 261.72 71.7889V69.8921C261.72 69.1935 261.714 68.6136 261.7 68.1525C261.693 67.9709 261.609 67.8521 261.449 67.7962L260.155 67.3875L260.134 66.9369C261.032 66.9648 261.894 66.9788 262.722 66.9788C263.55 66.9788 264.34 66.9648 265.091 66.9369L265.133 67.3875L264.058 67.7543C263.884 67.7962 263.794 67.9045 263.787 68.0791C263.773 68.5822 263.766 69.1725 263.766 69.8502Z" fill="#04151F"/>
<path d="M282.143 66.7168L286.776 79.5333C286.95 80.0154 287.106 80.3437 287.245 80.5184C287.392 80.6861 287.597 80.8118 287.861 80.8957L288.842 81.1891L288.863 81.6397C287.952 81.6188 287.106 81.6083 286.327 81.6083C285.534 81.6083 284.598 81.6188 283.52 81.6397L283.478 81.1891L284.47 80.8957C284.609 80.8468 284.706 80.7944 284.762 80.7385C284.824 80.6756 284.856 80.5813 284.856 80.4555C284.856 80.3158 284.817 80.1341 284.741 79.9106C284.671 79.68 284.571 79.3761 284.438 78.9989L283.457 76.1903H278.428L277.332 78.9884C277.186 79.3796 277.071 79.6905 276.987 79.9211C276.904 80.1516 276.862 80.3333 276.862 80.466C276.862 80.5848 276.894 80.6756 276.956 80.7385C277.026 80.7944 277.127 80.8433 277.259 80.8852L278.229 81.1681L278.25 81.6397C277.262 81.6188 276.455 81.6083 275.829 81.6083C275.203 81.6083 274.504 81.6188 273.732 81.6397L273.679 81.1891L274.733 80.8642C274.998 80.7804 275.193 80.6511 275.318 80.4765C275.443 80.3018 275.582 80.0294 275.735 79.6591L281.068 66.874L282.143 66.7168ZM278.814 75.2367H283.113L281.078 69.4624L278.814 75.2367Z" fill="#04151F"/>
<path d="M294.222 81.6074C293.366 81.6074 292.42 81.6178 291.383 81.6388L291.342 81.1882L292.886 80.7271C293.06 80.6782 293.15 80.5699 293.157 80.4022C293.171 79.8713 293.178 79.1936 293.178 78.3692V67.9106H289.494L288.566 70.6982L288.148 70.7715L287.877 67.0199L287.95 66.936C289.661 66.964 291.3 66.978 292.865 66.978H295.651C297.21 66.978 298.855 66.964 300.587 66.936L300.65 67.0199L299.992 70.6982L299.575 70.7715L298.907 67.9106H295.223V78.3692C295.223 79.1936 295.23 79.8713 295.244 80.4022C295.251 80.5699 295.342 80.6782 295.516 80.7271L297.06 81.1882L297.081 81.6388C296.003 81.6178 295.05 81.6074 294.222 81.6074Z" fill="#04151F"/>
<path d="M305.408 69.8493V73.2971C305.979 73.2412 306.546 73.2133 307.109 73.2133C308.96 73.2133 310.348 73.5591 311.273 74.2507C312.198 74.9354 312.661 75.91 312.661 77.1745C312.661 77.9849 312.508 78.6766 312.202 79.2495C311.896 79.8224 311.482 80.2869 310.96 80.6433C310.438 80.9996 309.83 81.2615 309.134 81.4292C308.445 81.5899 307.718 81.6702 306.953 81.6702C306.598 81.6702 306.212 81.6598 305.795 81.6388C305.384 81.6178 304.921 81.6074 304.407 81.6074C303.565 81.6074 302.702 81.6178 301.819 81.6388L301.777 81.1882L303.06 80.8004C303.234 80.7515 303.328 80.6433 303.342 80.4756C303.349 80.1961 303.353 79.8852 303.353 79.5429C303.36 79.1936 303.363 78.8093 303.363 78.3902V69.8913C303.363 69.535 303.36 69.2136 303.353 68.9271C303.353 68.6407 303.349 68.3822 303.342 68.1517C303.335 67.97 303.252 67.8512 303.092 67.7954L301.798 67.3867L301.777 66.936C302.674 66.964 303.537 66.978 304.365 66.978C305.2 66.978 306.097 66.964 307.057 66.936L307.109 67.3867L305.701 67.8058C305.527 67.8687 305.436 67.977 305.429 68.1307C305.422 68.3752 305.415 68.6442 305.408 68.9376C305.408 69.2241 305.408 69.528 305.408 69.8493ZM305.408 74.1459V80.6747C305.777 80.7935 306.264 80.8528 306.869 80.8528C308.038 80.8528 308.918 80.5629 309.51 79.983C310.108 79.3962 310.407 78.5404 310.407 77.4156C310.407 76.2838 310.094 75.4489 309.468 74.911C308.849 74.366 307.878 74.0935 306.556 74.0935C306.389 74.0935 306.208 74.1005 306.014 74.1145C305.826 74.1215 305.624 74.132 305.408 74.1459Z" fill="#04151F"/>
<path d="M64.8294 80.0126L0.85791 77.5113L64.8294 74.4541V80.0126Z" fill="#CB000D"/>
<path d="M321.637 80.0126L385.619 77.5113L321.637 74.4541V80.0126Z" fill="#CB000D"/>
</svg>
