<svg width="22" height="23" viewBox="0 0 22 23" fill="none" xmlns="http://www.w3.org/2000/svg">
<g clip-path="url(#clip0)">
<path d="M10.9996 5.38574C8.58271 5.38574 7.13965 6.88214 7.13965 9.38838C7.13965 10.8146 9.05296 14.1098 10.9989 16.7406C12.9332 14.1009 14.8596 10.8466 14.8596 9.38838C14.8596 6.88214 13.4165 5.38574 10.9996 5.38574ZM10.9955 11.1034C10.0591 11.1034 9.30012 10.3516 9.30012 9.42413C9.30012 8.49667 10.0591 7.7449 10.9955 7.7449C11.9319 7.7449 12.6909 8.49667 12.6909 9.42413C12.6909 10.3516 11.9319 11.1034 10.9955 11.1034Z" fill="#CB000D"/>
<path d="M11 0.619141C4.92491 0.619141 0 5.49714 0 11.5144C0 17.5316 4.92491 22.4096 11 22.4096C17.0751 22.4096 22 17.5316 22 11.5144C22 5.49714 17.0751 0.619141 11 0.619141ZM11.6442 18.1673L11 19.0049L10.3596 18.1673C9.88831 17.5571 5.76503 12.1048 5.76503 9.38845C5.76503 6.12975 7.81859 4.0239 11 4.0239C14.1814 4.0239 16.235 6.12975 16.235 9.38845C16.235 12.1007 12.1113 17.5531 11.6442 18.1673Z" fill="#CB000D"/>
</g>
<defs>
<clipPath id="clip0">
<rect width="22" height="21.7905" fill="white" transform="translate(0 0.619141)"/>
</clipPath>
</defs>
</svg>
