<svg width="24" height="24" viewBox="0 0 24 24" fill="none" xmlns="http://www.w3.org/2000/svg">
<path d="M14.7656 4.26562H9.14062C8.75231 4.26562 8.4375 4.58044 8.4375 4.96875C8.4375 5.35706 8.75231 5.67188 9.14062 5.67188H14.7656C15.1539 5.67188 15.4688 5.35706 15.4688 4.96875C15.4688 4.58044 15.1539 4.26562 14.7656 4.26562Z" fill="#CB000D"/>
<path d="M14.7656 7.07812H9.14062C8.75231 7.07812 8.4375 7.39294 8.4375 7.78125C8.4375 8.16956 8.75231 8.48438 9.14062 8.48438H14.7656C15.1539 8.48438 15.4688 8.16956 15.4688 7.78125C15.4688 7.39294 15.1539 7.07812 14.7656 7.07812Z" fill="#CB000D"/>
<path d="M14.7656 9.89062H3.51562C3.12731 9.89062 2.8125 10.2054 2.8125 10.5938C2.8125 10.9821 3.12731 11.2969 3.51562 11.2969H14.7656C15.1539 11.2969 15.4688 10.9821 15.4688 10.5938C15.4688 10.2054 15.1539 9.89062 14.7656 9.89062Z" fill="#CB000D"/>
<path d="M12.2167 12.7031H3.51562C3.12731 12.7031 2.8125 13.0179 2.8125 13.4062C2.8125 13.7946 3.12731 14.1094 3.51562 14.1094H12.2167C12.605 14.1094 12.9198 13.7946 12.9198 13.4062C12.9198 13.0179 12.605 12.7031 12.2167 12.7031Z" fill="#CB000D"/>
<path d="M18.3281 12.7031V2.10938C18.3281 0.9435 17.3393 0 16.1719 0H6.32803C6.14977 0 5.96639 0.0705 5.82891 0.208031L0.203906 5.87991C0.0746719 6.01017 0 6.19134 0 6.375V21.8906C0 23.0537 0.946266 24 2.10938 24C3.59278 24 4.08534 24 4.08323 24C6.23962 24 10.4828 24 18.3281 24C21.4328 24 24 21.4437 24 18.3281C24 15.2265 21.4556 12.7031 18.3281 12.7031ZM5.625 2.41064V5.67188H2.39072L5.625 2.41064ZM2.10938 22.5938C1.72167 22.5938 1.40625 22.2783 1.40625 21.8906V7.07812H6.32812C6.71644 7.07812 7.03125 6.76331 7.03125 6.375V1.40625H16.1719C16.5714 1.40625 16.9219 1.7348 16.9219 2.10938V12.8782C15.4295 13.2571 14.1723 14.2247 13.4176 15.5156H3.51562C3.12731 15.5156 2.8125 15.8304 2.8125 16.2188C2.8125 16.6071 3.12731 16.9219 3.51562 16.9219H12.8357C12.7186 17.3715 12.6562 17.8427 12.6562 18.3281H3.51562C3.12731 18.3281 2.8125 18.6429 2.8125 19.0312C2.8125 19.4196 3.12731 19.7344 3.51562 19.7344H12.8346C13.1188 20.8339 13.7333 21.825 14.6103 22.5938H2.10938ZM18.3281 22.5938C16.0159 22.5938 14.0625 20.6403 14.0625 18.3281C14.0625 16.0019 15.976 14.1094 18.3281 14.1094C20.6802 14.1094 22.5938 16.0019 22.5938 18.3281C22.5938 20.6403 20.6403 22.5938 18.3281 22.5938Z" fill="#CB000D"/>
<path d="M20.9859 17.132C20.7136 16.8551 20.2684 16.8514 19.9915 17.1237L17.6212 19.4552L16.6611 18.526C16.382 18.2559 15.9369 18.2632 15.6668 18.5423C15.3968 18.8213 15.4041 19.2665 15.6832 19.5365L17.1363 20.9427C17.4104 21.208 17.8461 21.2064 18.1183 20.9388L20.9777 18.1263C21.2545 17.854 21.2582 17.4088 20.9859 17.132Z" fill="#CB000D"/>
</svg>
