<svg width="255" height="375" viewBox="0 0 255 375" fill="none" xmlns="http://www.w3.org/2000/svg">
<path d="M2.76849 5.53696C4.29748 5.53696 5.53697 4.29746 5.53697 2.76847C5.53697 1.23947 4.29748 0 2.76849 0C1.23949 0 0 1.23947 0 2.76847C0 4.29746 1.23949 5.53696 2.76849 5.53696Z" fill="#CFCFCF" fill-opacity="0.67"/>
<path d="M27.6659 5.53696C29.1949 5.53696 30.4344 4.29746 30.4344 2.76847C30.4344 1.23947 29.1949 0 27.6659 0C26.137 0 24.8975 1.23947 24.8975 2.76847C24.8975 4.29746 26.137 5.53696 27.6659 5.53696Z" fill="#CFCFCF" fill-opacity="0.67"/>
<path d="M52.5673 5.53696C54.0963 5.53696 55.3358 4.29746 55.3358 2.76847C55.3358 1.23947 54.0963 0 52.5673 0C51.0383 0 49.7988 1.23947 49.7988 2.76847C49.7988 4.29746 51.0383 5.53696 52.5673 5.53696Z" fill="#CFCFCF" fill-opacity="0.67"/>
<path d="M80.2362 2.76847C80.2362 4.29195 78.9912 5.53696 77.4677 5.53696C75.9442 5.53696 74.6992 4.29195 74.6992 2.76847C74.6992 1.24498 75.9442 0 77.4677 0C78.9912 0 80.2362 1.24498 80.2362 2.76847Z" fill="#CFCFCF" fill-opacity="0.67"/>
<path d="M105.138 2.76847C105.138 4.29195 103.893 5.53696 102.369 5.53696C100.846 5.53696 99.6006 4.29195 99.6006 2.76847C99.6006 1.24498 100.846 0 102.369 0C103.893 0 105.138 1.24498 105.138 2.76847Z" fill="#CFCFCF" fill-opacity="0.67"/>
<path d="M127.268 5.53696C128.797 5.53696 130.036 4.29746 130.036 2.76847C130.036 1.23947 128.797 0 127.268 0C125.739 0 124.499 1.23947 124.499 2.76847C124.499 4.29746 125.739 5.53696 127.268 5.53696Z" fill="#CFCFCF" fill-opacity="0.67"/>
<path d="M152.166 5.53696C153.695 5.53696 154.934 4.29746 154.934 2.76847C154.934 1.23947 153.695 0 152.166 0C150.637 0 149.397 1.23947 149.397 2.76847C149.397 4.29746 150.637 5.53696 152.166 5.53696Z" fill="#CFCFCF" fill-opacity="0.67"/>
<path d="M177.068 5.53696C178.597 5.53696 179.836 4.29746 179.836 2.76847C179.836 1.23947 178.597 0 177.068 0C175.539 0 174.299 1.23947 174.299 2.76847C174.299 4.29746 175.539 5.53696 177.068 5.53696Z" fill="#CFCFCF" fill-opacity="0.67"/>
<path d="M201.968 5.53696C203.497 5.53696 204.736 4.29746 204.736 2.76847C204.736 1.23947 203.497 0 201.968 0C200.439 0 199.199 1.23947 199.199 2.76847C199.199 4.29746 200.439 5.53696 201.968 5.53696Z" fill="#CFCFCF" fill-opacity="0.67"/>
<path d="M226.869 5.53696C228.398 5.53696 229.638 4.29746 229.638 2.76847C229.638 1.23947 228.398 0 226.869 0C225.34 0 224.101 1.23947 224.101 2.76847C224.101 4.29746 225.34 5.53696 226.869 5.53696Z" fill="#CFCFCF" fill-opacity="0.67"/>
<path d="M251.768 5.53696C253.297 5.53696 254.536 4.29746 254.536 2.76847C254.536 1.23947 253.297 0 251.768 0C250.239 0 248.999 1.23947 248.999 2.76847C248.999 4.29746 250.239 5.53696 251.768 5.53696Z" fill="#CFCFCF" fill-opacity="0.67"/>
<path d="M2.76849 39.0741C4.29748 39.0741 5.53697 37.8346 5.53697 36.3056C5.53697 34.7766 4.29748 33.5371 2.76849 33.5371C1.23949 33.5371 0 34.7766 0 36.3056C0 37.8346 1.23949 39.0741 2.76849 39.0741Z" fill="#CFCFCF" fill-opacity="0.67"/>
<path d="M27.6659 39.0738C29.1949 39.0738 30.4344 37.8344 30.4344 36.3054C30.4344 34.7764 29.1949 33.5369 27.6659 33.5369C26.137 33.5369 24.8975 34.7764 24.8975 36.3054C24.8975 37.8344 26.137 39.0738 27.6659 39.0738Z" fill="#CFCFCF" fill-opacity="0.67"/>
<path d="M52.5673 39.0738C54.0963 39.0738 55.3358 37.8344 55.3358 36.3054C55.3358 34.7764 54.0963 33.5369 52.5673 33.5369C51.0383 33.5369 49.7988 34.7764 49.7988 36.3054C49.7988 37.8344 51.0383 39.0738 52.5673 39.0738Z" fill="#CFCFCF" fill-opacity="0.67"/>
<path d="M80.2362 36.3054C80.2362 37.8288 78.9912 39.0738 77.4677 39.0738C75.9442 39.0738 74.6992 37.8288 74.6992 36.3054C74.6992 34.7819 75.9442 33.5369 77.4677 33.5369C78.9912 33.5369 80.2362 34.7819 80.2362 36.3054Z" fill="#CFCFCF" fill-opacity="0.67"/>
<path d="M105.138 36.3054C105.138 37.8288 103.893 39.0738 102.369 39.0738C100.846 39.0738 99.6006 37.8288 99.6006 36.3054C99.6006 34.7819 100.846 33.5369 102.369 33.5369C103.893 33.5369 105.138 34.7819 105.138 36.3054Z" fill="#CFCFCF" fill-opacity="0.67"/>
<path d="M127.268 39.0738C128.797 39.0738 130.036 37.8344 130.036 36.3054C130.036 34.7764 128.797 33.5369 127.268 33.5369C125.739 33.5369 124.499 34.7764 124.499 36.3054C124.499 37.8344 125.739 39.0738 127.268 39.0738Z" fill="#CFCFCF" fill-opacity="0.67"/>
<path d="M152.166 39.0738C153.695 39.0738 154.934 37.8344 154.934 36.3054C154.934 34.7764 153.695 33.5369 152.166 33.5369C150.637 33.5369 149.397 34.7764 149.397 36.3054C149.397 37.8344 150.637 39.0738 152.166 39.0738Z" fill="#CFCFCF" fill-opacity="0.67"/>
<path d="M177.068 39.0738C178.597 39.0738 179.836 37.8344 179.836 36.3054C179.836 34.7764 178.597 33.5369 177.068 33.5369C175.539 33.5369 174.299 34.7764 174.299 36.3054C174.299 37.8344 175.539 39.0738 177.068 39.0738Z" fill="#CFCFCF" fill-opacity="0.67"/>
<path d="M201.968 39.0738C203.497 39.0738 204.736 37.8344 204.736 36.3054C204.736 34.7764 203.497 33.5369 201.968 33.5369C200.439 33.5369 199.199 34.7764 199.199 36.3054C199.199 37.8344 200.439 39.0738 201.968 39.0738Z" fill="#CFCFCF" fill-opacity="0.67"/>
<path d="M226.869 39.0738C228.398 39.0738 229.638 37.8344 229.638 36.3054C229.638 34.7764 228.398 33.5369 226.869 33.5369C225.34 33.5369 224.101 34.7764 224.101 36.3054C224.101 37.8344 225.34 39.0738 226.869 39.0738Z" fill="#CFCFCF" fill-opacity="0.67"/>
<path d="M251.768 39.0738C253.297 39.0738 254.536 37.8344 254.536 36.3054C254.536 34.7764 253.297 33.5369 251.768 33.5369C250.239 33.5369 248.999 34.7764 248.999 36.3054C248.999 37.8344 250.239 39.0738 251.768 39.0738Z" fill="#CFCFCF" fill-opacity="0.67"/>
<path d="M2.76849 72.611C4.29748 72.611 5.53697 71.3715 5.53697 69.8425C5.53697 68.3135 4.29748 67.074 2.76849 67.074C1.23949 67.074 0 68.3135 0 69.8425C0 71.3715 1.23949 72.611 2.76849 72.611Z" fill="#CFCFCF" fill-opacity="0.67"/>
<path d="M27.6659 72.611C29.1949 72.611 30.4344 71.3715 30.4344 69.8425C30.4344 68.3135 29.1949 67.074 27.6659 67.074C26.137 67.074 24.8975 68.3135 24.8975 69.8425C24.8975 71.3715 26.137 72.611 27.6659 72.611Z" fill="#CFCFCF" fill-opacity="0.67"/>
<path d="M52.5673 72.611C54.0963 72.611 55.3358 71.3715 55.3358 69.8425C55.3358 68.3135 54.0963 67.074 52.5673 67.074C51.0383 67.074 49.7988 68.3135 49.7988 69.8425C49.7988 71.3715 51.0383 72.611 52.5673 72.611Z" fill="#CFCFCF" fill-opacity="0.67"/>
<path d="M80.2362 69.8425C80.2362 71.366 78.9912 72.611 77.4677 72.611C75.9442 72.611 74.6992 71.366 74.6992 69.8425C74.6992 68.319 75.9442 67.074 77.4677 67.074C78.9912 67.074 80.2362 68.319 80.2362 69.8425Z" fill="#CFCFCF" fill-opacity="0.67"/>
<path d="M105.138 69.8425C105.138 71.366 103.893 72.611 102.369 72.611C100.846 72.611 99.6006 71.366 99.6006 69.8425C99.6006 68.319 100.846 67.074 102.369 67.074C103.893 67.074 105.138 68.319 105.138 69.8425Z" fill="#CFCFCF" fill-opacity="0.67"/>
<path d="M127.268 72.611C128.797 72.611 130.036 71.3715 130.036 69.8425C130.036 68.3135 128.797 67.074 127.268 67.074C125.739 67.074 124.499 68.3135 124.499 69.8425C124.499 71.3715 125.739 72.611 127.268 72.611Z" fill="#CFCFCF" fill-opacity="0.67"/>
<path d="M152.166 72.611C153.695 72.611 154.934 71.3715 154.934 69.8425C154.934 68.3135 153.695 67.074 152.166 67.074C150.637 67.074 149.397 68.3135 149.397 69.8425C149.397 71.3715 150.637 72.611 152.166 72.611Z" fill="#CFCFCF" fill-opacity="0.67"/>
<path d="M177.068 72.611C178.597 72.611 179.836 71.3715 179.836 69.8425C179.836 68.3135 178.597 67.074 177.068 67.074C175.539 67.074 174.299 68.3135 174.299 69.8425C174.299 71.3715 175.539 72.611 177.068 72.611Z" fill="#CFCFCF" fill-opacity="0.67"/>
<path d="M201.968 72.611C203.497 72.611 204.736 71.3715 204.736 69.8425C204.736 68.3135 203.497 67.074 201.968 67.074C200.439 67.074 199.199 68.3135 199.199 69.8425C199.199 71.3715 200.439 72.611 201.968 72.611Z" fill="#CFCFCF" fill-opacity="0.67"/>
<path d="M226.869 72.611C228.398 72.611 229.638 71.3715 229.638 69.8425C229.638 68.3135 228.398 67.074 226.869 67.074C225.34 67.074 224.101 68.3135 224.101 69.8425C224.101 71.3715 225.34 72.611 226.869 72.611Z" fill="#CFCFCF" fill-opacity="0.67"/>
<path d="M251.768 72.611C253.297 72.611 254.536 71.3715 254.536 69.8425C254.536 68.3135 253.297 67.074 251.768 67.074C250.239 67.074 248.999 68.3135 248.999 69.8425C248.999 71.3715 250.239 72.611 251.768 72.611Z" fill="#CFCFCF" fill-opacity="0.67"/>
<path d="M5.53697 103.38C5.53697 104.903 4.29197 106.148 2.76849 106.148C1.245 106.148 0 104.903 0 103.38C0 101.856 1.245 100.611 2.76849 100.611C4.29197 100.611 5.53697 101.856 5.53697 103.38Z" fill="#CFCFCF" fill-opacity="0.67"/>
<path d="M30.4344 103.38C30.4344 104.903 29.1894 106.148 27.6659 106.148C26.1425 106.148 24.8975 104.903 24.8975 103.38C24.8975 101.856 26.1425 100.611 27.6659 100.611C29.1894 100.611 30.4344 101.856 30.4344 103.38Z" fill="#CFCFCF" fill-opacity="0.67"/>
<path d="M55.3358 103.38C55.3358 104.903 54.0908 106.148 52.5673 106.148C51.0438 106.148 49.7988 104.903 49.7988 103.38C49.7988 101.856 51.0438 100.611 52.5673 100.611C54.0908 100.611 55.3358 101.856 55.3358 103.38Z" fill="#CFCFCF" fill-opacity="0.67"/>
<path d="M80.2362 103.38C80.2362 104.903 78.9912 106.148 77.4677 106.148C75.9442 106.148 74.6992 104.903 74.6992 103.38C74.6992 101.856 75.9442 100.611 77.4677 100.611C78.9912 100.611 80.2362 101.856 80.2362 103.38Z" fill="#CFCFCF" fill-opacity="0.67"/>
<path d="M105.138 103.38C105.138 104.903 103.893 106.148 102.369 106.148C100.846 106.148 99.6006 104.903 99.6006 103.38C99.6006 101.856 100.846 100.611 102.369 100.611C103.893 100.611 105.138 101.856 105.138 103.38Z" fill="#CFCFCF" fill-opacity="0.67"/>
<path d="M130.036 103.38C130.036 104.903 128.791 106.148 127.268 106.148C125.744 106.148 124.499 104.903 124.499 103.38C124.499 101.856 125.744 100.611 127.268 100.611C128.791 100.611 130.036 101.856 130.036 103.38Z" fill="#CFCFCF" fill-opacity="0.67"/>
<path d="M154.934 103.38C154.934 104.903 153.689 106.148 152.166 106.148C150.642 106.148 149.397 104.903 149.397 103.38C149.397 101.856 150.642 100.611 152.166 100.611C153.689 100.611 154.934 101.856 154.934 103.38Z" fill="#CFCFCF" fill-opacity="0.67"/>
<path d="M179.836 103.38C179.836 104.903 178.591 106.148 177.068 106.148C175.544 106.148 174.299 104.903 174.299 103.38C174.299 101.856 175.544 100.611 177.068 100.611C178.591 100.611 179.836 101.856 179.836 103.38Z" fill="#CFCFCF" fill-opacity="0.67"/>
<path d="M204.736 103.38C204.736 104.903 203.491 106.148 201.968 106.148C200.444 106.148 199.199 104.903 199.199 103.38C199.199 101.856 200.444 100.611 201.968 100.611C203.491 100.611 204.736 101.856 204.736 103.38Z" fill="#CFCFCF" fill-opacity="0.67"/>
<path d="M229.638 103.38C229.638 104.903 228.393 106.148 226.869 106.148C225.346 106.148 224.101 104.903 224.101 103.38C224.101 101.856 225.346 100.611 226.869 100.611C228.393 100.611 229.638 101.856 229.638 103.38Z" fill="#CFCFCF" fill-opacity="0.67"/>
<path d="M254.536 103.38C254.536 104.903 253.291 106.148 251.768 106.148C250.244 106.148 248.999 104.903 248.999 103.38C248.999 101.856 250.244 100.611 251.768 100.611C253.291 100.611 254.536 101.856 254.536 103.38Z" fill="#CFCFCF" fill-opacity="0.67"/>
<path d="M5.53697 136.917C5.53697 138.44 4.29197 139.685 2.76849 139.685C1.245 139.685 0 138.44 0 136.917C0 135.393 1.245 134.148 2.76849 134.148C4.29197 134.148 5.53697 135.393 5.53697 136.917Z" fill="#CFCFCF" fill-opacity="0.67"/>
<path d="M30.4344 136.917C30.4344 138.44 29.1894 139.685 27.6659 139.685C26.1425 139.685 24.8975 138.44 24.8975 136.917C24.8975 135.393 26.1425 134.148 27.6659 134.148C29.1894 134.148 30.4344 135.393 30.4344 136.917Z" fill="#CFCFCF" fill-opacity="0.67"/>
<path d="M55.3358 136.917C55.3358 138.44 54.0908 139.685 52.5673 139.685C51.0438 139.685 49.7988 138.44 49.7988 136.917C49.7988 135.393 51.0438 134.148 52.5673 134.148C54.0908 134.148 55.3358 135.393 55.3358 136.917Z" fill="#CFCFCF" fill-opacity="0.67"/>
<path d="M80.2362 136.917C80.2362 138.44 78.9912 139.685 77.4677 139.685C75.9442 139.685 74.6992 138.44 74.6992 136.917C74.6992 135.393 75.9442 134.148 77.4677 134.148C78.9912 134.148 80.2362 135.393 80.2362 136.917Z" fill="#CFCFCF" fill-opacity="0.67"/>
<path d="M105.138 136.917C105.138 138.44 103.893 139.685 102.369 139.685C100.846 139.685 99.6006 138.44 99.6006 136.917C99.6006 135.393 100.846 134.148 102.369 134.148C103.893 134.148 105.138 135.393 105.138 136.917Z" fill="#CFCFCF" fill-opacity="0.67"/>
<path d="M130.036 136.917C130.036 138.44 128.791 139.685 127.268 139.685C125.744 139.685 124.499 138.44 124.499 136.917C124.499 135.393 125.744 134.148 127.268 134.148C128.791 134.148 130.036 135.393 130.036 136.917Z" fill="#CFCFCF" fill-opacity="0.67"/>
<path d="M154.934 136.917C154.934 138.44 153.689 139.685 152.166 139.685C150.642 139.685 149.397 138.44 149.397 136.917C149.397 135.393 150.642 134.148 152.166 134.148C153.689 134.148 154.934 135.393 154.934 136.917Z" fill="#CFCFCF" fill-opacity="0.67"/>
<path d="M179.836 136.917C179.836 138.44 178.591 139.685 177.068 139.685C175.544 139.685 174.299 138.44 174.299 136.917C174.299 135.393 175.544 134.148 177.068 134.148C178.591 134.148 179.836 135.393 179.836 136.917Z" fill="#CFCFCF" fill-opacity="0.67"/>
<path d="M204.736 136.917C204.736 138.44 203.491 139.685 201.968 139.685C200.444 139.685 199.199 138.44 199.199 136.917C199.199 135.393 200.444 134.148 201.968 134.148C203.491 134.148 204.736 135.393 204.736 136.917Z" fill="#CFCFCF" fill-opacity="0.67"/>
<path d="M229.638 136.917C229.638 138.44 228.393 139.685 226.869 139.685C225.346 139.685 224.101 138.44 224.101 136.917C224.101 135.393 225.346 134.148 226.869 134.148C228.393 134.148 229.638 135.393 229.638 136.917Z" fill="#CFCFCF" fill-opacity="0.67"/>
<path d="M254.536 136.917C254.536 138.44 253.291 139.685 251.768 139.685C250.244 139.685 248.999 138.44 248.999 136.917C248.999 135.393 250.244 134.148 251.768 134.148C253.291 134.148 254.536 135.393 254.536 136.917Z" fill="#CFCFCF" fill-opacity="0.67"/>
<path d="M5.53697 170.454C5.53697 171.978 4.29197 173.223 2.76849 173.223C1.245 173.223 0 171.978 0 170.454C0 168.931 1.245 167.686 2.76849 167.686C4.29197 167.686 5.53697 168.931 5.53697 170.454Z" fill="#CFCFCF" fill-opacity="0.67"/>
<path d="M30.4344 170.454C30.4344 171.977 29.1894 173.222 27.6659 173.222C26.1425 173.222 24.8975 171.977 24.8975 170.454C24.8975 168.93 26.1425 167.685 27.6659 167.685C29.1894 167.685 30.4344 168.93 30.4344 170.454Z" fill="#CFCFCF" fill-opacity="0.67"/>
<path d="M55.3358 170.454C55.3358 171.977 54.0908 173.222 52.5673 173.222C51.0438 173.222 49.7988 171.977 49.7988 170.454C49.7988 168.93 51.0438 167.685 52.5673 167.685C54.0908 167.685 55.3358 168.93 55.3358 170.454Z" fill="#CFCFCF" fill-opacity="0.67"/>
<path d="M80.2362 170.454C80.2362 171.977 78.9912 173.222 77.4677 173.222C75.9442 173.222 74.6992 171.977 74.6992 170.454C74.6992 168.93 75.9442 167.685 77.4677 167.685C78.9912 167.685 80.2362 168.93 80.2362 170.454Z" fill="#CFCFCF" fill-opacity="0.67"/>
<path d="M105.138 170.454C105.138 171.977 103.893 173.222 102.369 173.222C100.846 173.222 99.6006 171.977 99.6006 170.454C99.6006 168.93 100.846 167.685 102.369 167.685C103.893 167.685 105.138 168.93 105.138 170.454Z" fill="#CFCFCF" fill-opacity="0.67"/>
<path d="M130.036 170.454C130.036 171.977 128.791 173.222 127.268 173.222C125.744 173.222 124.499 171.977 124.499 170.454C124.499 168.93 125.744 167.685 127.268 167.685C128.791 167.685 130.036 168.93 130.036 170.454Z" fill="#CFCFCF" fill-opacity="0.67"/>
<path d="M154.934 170.454C154.934 171.977 153.689 173.222 152.166 173.222C150.642 173.222 149.397 171.977 149.397 170.454C149.397 168.93 150.642 167.685 152.166 167.685C153.689 167.685 154.934 168.93 154.934 170.454Z" fill="#CFCFCF" fill-opacity="0.67"/>
<path d="M179.836 170.454C179.836 171.977 178.591 173.222 177.068 173.222C175.544 173.222 174.299 171.977 174.299 170.454C174.299 168.93 175.544 167.685 177.068 167.685C178.591 167.685 179.836 168.93 179.836 170.454Z" fill="#CFCFCF" fill-opacity="0.67"/>
<path d="M204.736 170.454C204.736 171.977 203.491 173.222 201.968 173.222C200.444 173.222 199.199 171.977 199.199 170.454C199.199 168.93 200.444 167.685 201.968 167.685C203.491 167.685 204.736 168.93 204.736 170.454Z" fill="#CFCFCF" fill-opacity="0.67"/>
<path d="M229.638 170.454C229.638 171.977 228.393 173.222 226.869 173.222C225.346 173.222 224.101 171.977 224.101 170.454C224.101 168.93 225.346 167.685 226.869 167.685C228.393 167.685 229.638 168.93 229.638 170.454Z" fill="#CFCFCF" fill-opacity="0.67"/>
<path d="M254.536 170.454C254.536 171.977 253.291 173.222 251.768 173.222C250.244 173.222 248.999 171.977 248.999 170.454C248.999 168.93 250.244 167.685 251.768 167.685C253.291 167.685 254.536 168.93 254.536 170.454Z" fill="#CFCFCF" fill-opacity="0.67"/>
<path d="M2.76849 206.76C4.29748 206.76 5.53697 205.521 5.53697 203.992C5.53697 202.463 4.29748 201.223 2.76849 201.223C1.23949 201.223 0 202.463 0 203.992C0 205.521 1.23949 206.76 2.76849 206.76Z" fill="#CFCFCF" fill-opacity="0.67"/>
<path d="M27.6659 206.76C29.1949 206.76 30.4344 205.52 30.4344 203.991C30.4344 202.462 29.1949 201.223 27.6659 201.223C26.137 201.223 24.8975 202.462 24.8975 203.991C24.8975 205.52 26.137 206.76 27.6659 206.76Z" fill="#CFCFCF" fill-opacity="0.67"/>
<path d="M52.5673 206.76C54.0963 206.76 55.3358 205.52 55.3358 203.991C55.3358 202.462 54.0963 201.223 52.5673 201.223C51.0383 201.223 49.7988 202.462 49.7988 203.991C49.7988 205.52 51.0383 206.76 52.5673 206.76Z" fill="#CFCFCF" fill-opacity="0.67"/>
<path d="M80.2362 203.991C80.2362 205.515 78.9912 206.76 77.4677 206.76C75.9442 206.76 74.6992 205.515 74.6992 203.991C74.6992 202.468 75.9442 201.223 77.4677 201.223C78.9912 201.239 80.2362 202.468 80.2362 203.991Z" fill="#CFCFCF" fill-opacity="0.67"/>
<path d="M105.138 203.991C105.138 205.515 103.893 206.76 102.369 206.76C100.846 206.76 99.6006 205.515 99.6006 203.991C99.6006 202.468 100.846 201.223 102.369 201.223C103.893 201.239 105.138 202.468 105.138 203.991Z" fill="#CFCFCF" fill-opacity="0.67"/>
<path d="M127.268 206.76C128.797 206.76 130.036 205.52 130.036 203.991C130.036 202.462 128.797 201.223 127.268 201.223C125.739 201.223 124.499 202.462 124.499 203.991C124.499 205.52 125.739 206.76 127.268 206.76Z" fill="#CFCFCF" fill-opacity="0.67"/>
<path d="M152.166 206.76C153.695 206.76 154.934 205.52 154.934 203.991C154.934 202.462 153.695 201.223 152.166 201.223C150.637 201.223 149.397 202.462 149.397 203.991C149.397 205.52 150.637 206.76 152.166 206.76Z" fill="#CFCFCF" fill-opacity="0.67"/>
<path d="M177.068 206.76C178.597 206.76 179.836 205.52 179.836 203.991C179.836 202.462 178.597 201.223 177.068 201.223C175.539 201.223 174.299 202.462 174.299 203.991C174.299 205.52 175.539 206.76 177.068 206.76Z" fill="#CFCFCF" fill-opacity="0.67"/>
<path d="M201.968 206.76C203.497 206.76 204.736 205.52 204.736 203.991C204.736 202.462 203.497 201.223 201.968 201.223C200.439 201.223 199.199 202.462 199.199 203.991C199.199 205.52 200.439 206.76 201.968 206.76Z" fill="#CFCFCF" fill-opacity="0.67"/>
<path d="M226.869 206.76C228.398 206.76 229.638 205.52 229.638 203.991C229.638 202.462 228.398 201.223 226.869 201.223C225.34 201.223 224.101 202.462 224.101 203.991C224.101 205.52 225.34 206.76 226.869 206.76Z" fill="#CFCFCF" fill-opacity="0.67"/>
<path d="M251.768 206.76C253.297 206.76 254.536 205.52 254.536 203.991C254.536 202.462 253.297 201.223 251.768 201.223C250.239 201.223 248.999 202.462 248.999 203.991C248.999 205.52 250.239 206.76 251.768 206.76Z" fill="#CFCFCF" fill-opacity="0.67"/>
<path d="M5.53697 237.529C5.53697 239.052 4.29197 240.297 2.76849 240.297C1.245 240.297 0 239.052 0 237.529C0 236.005 1.245 234.76 2.76849 234.76C4.29197 234.76 5.53697 235.989 5.53697 237.529Z" fill="#CFCFCF" fill-opacity="0.67"/>
<path d="M30.4344 237.529C30.4344 239.052 29.1894 240.297 27.6659 240.297C26.1425 240.297 24.8975 239.052 24.8975 237.529C24.8975 236.005 26.1425 234.76 27.6659 234.76C29.1894 234.76 30.4344 235.989 30.4344 237.529Z" fill="#CFCFCF" fill-opacity="0.67"/>
<path d="M55.3358 237.529C55.3358 239.052 54.0908 240.297 52.5673 240.297C51.0438 240.297 49.7988 239.052 49.7988 237.529C49.7988 236.005 51.0438 234.76 52.5673 234.76C54.0908 234.76 55.3358 235.989 55.3358 237.529Z" fill="#CFCFCF" fill-opacity="0.67"/>
<path d="M80.2362 237.529C80.2362 239.052 78.9912 240.297 77.4677 240.297C75.9442 240.297 74.6992 239.052 74.6992 237.529C74.6992 236.005 75.9442 234.76 77.4677 234.76C78.9912 234.76 80.2362 235.989 80.2362 237.529Z" fill="#CFCFCF" fill-opacity="0.67"/>
<path d="M105.138 237.529C105.138 239.052 103.893 240.297 102.369 240.297C100.846 240.297 99.6006 239.052 99.6006 237.529C99.6006 236.005 100.846 234.76 102.369 234.76C103.893 234.76 105.138 235.989 105.138 237.529Z" fill="#CFCFCF" fill-opacity="0.67"/>
<path d="M130.036 237.529C130.036 239.052 128.791 240.297 127.268 240.297C125.744 240.297 124.499 239.052 124.499 237.529C124.499 236.005 125.744 234.76 127.268 234.76C128.791 234.76 130.036 235.989 130.036 237.529Z" fill="#CFCFCF" fill-opacity="0.67"/>
<path d="M154.934 237.529C154.934 239.052 153.689 240.297 152.166 240.297C150.642 240.297 149.397 239.052 149.397 237.529C149.397 236.005 150.642 234.76 152.166 234.76C153.689 234.76 154.934 235.989 154.934 237.529Z" fill="#CFCFCF" fill-opacity="0.67"/>
<path d="M179.836 237.529C179.836 239.052 178.591 240.297 177.068 240.297C175.544 240.297 174.299 239.052 174.299 237.529C174.299 236.005 175.544 234.76 177.068 234.76C178.591 234.76 179.836 235.989 179.836 237.529Z" fill="#CFCFCF" fill-opacity="0.67"/>
<path d="M204.736 237.529C204.736 239.052 203.491 240.297 201.968 240.297C200.444 240.297 199.199 239.052 199.199 237.529C199.199 236.005 200.444 234.76 201.968 234.76C203.491 234.76 204.736 235.989 204.736 237.529Z" fill="#CFCFCF" fill-opacity="0.67"/>
<path d="M229.638 237.529C229.638 239.052 228.393 240.297 226.869 240.297C225.346 240.297 224.101 239.052 224.101 237.529C224.101 236.005 225.346 234.76 226.869 234.76C228.393 234.76 229.638 235.989 229.638 237.529Z" fill="#CFCFCF" fill-opacity="0.67"/>
<path d="M254.536 237.529C254.536 239.052 253.291 240.297 251.768 240.297C250.244 240.297 248.999 239.052 248.999 237.529C248.999 236.005 250.244 234.76 251.768 234.76C253.291 234.76 254.536 235.989 254.536 237.529Z" fill="#CFCFCF" fill-opacity="0.67"/>
<path d="M5.53697 271.066C5.53697 272.589 4.29197 273.834 2.76849 273.834C1.245 273.834 0 272.589 0 271.066C0 269.542 1.245 268.297 2.76849 268.297C4.29197 268.297 5.53697 269.526 5.53697 271.066Z" fill="#CFCFCF" fill-opacity="0.67"/>
<path d="M30.4344 271.066C30.4344 272.589 29.1894 273.834 27.6659 273.834C26.1425 273.834 24.8975 272.589 24.8975 271.066C24.8975 269.542 26.1425 268.297 27.6659 268.297C29.1894 268.297 30.4344 269.526 30.4344 271.066Z" fill="#CFCFCF" fill-opacity="0.67"/>
<path d="M55.3358 271.066C55.3358 272.589 54.0908 273.834 52.5673 273.834C51.0438 273.834 49.7988 272.589 49.7988 271.066C49.7988 269.542 51.0438 268.297 52.5673 268.297C54.0908 268.297 55.3358 269.526 55.3358 271.066Z" fill="#CFCFCF" fill-opacity="0.67"/>
<path d="M80.2362 271.066C80.2362 272.589 78.9912 273.834 77.4677 273.834C75.9442 273.834 74.6992 272.589 74.6992 271.066C74.6992 269.542 75.9442 268.297 77.4677 268.297C78.9912 268.297 80.2362 269.526 80.2362 271.066Z" fill="#CFCFCF" fill-opacity="0.67"/>
<path d="M105.138 271.066C105.138 272.589 103.893 273.834 102.369 273.834C100.846 273.834 99.6006 272.589 99.6006 271.066C99.6006 269.542 100.846 268.297 102.369 268.297C103.893 268.297 105.138 269.526 105.138 271.066Z" fill="#CFCFCF" fill-opacity="0.67"/>
<path d="M130.036 271.066C130.036 272.589 128.791 273.834 127.268 273.834C125.744 273.834 124.499 272.589 124.499 271.066C124.499 269.542 125.744 268.297 127.268 268.297C128.791 268.297 130.036 269.526 130.036 271.066Z" fill="#CFCFCF" fill-opacity="0.67"/>
<path d="M154.934 271.066C154.934 272.589 153.689 273.834 152.166 273.834C150.642 273.834 149.397 272.589 149.397 271.066C149.397 269.542 150.642 268.297 152.166 268.297C153.689 268.297 154.934 269.526 154.934 271.066Z" fill="#CFCFCF" fill-opacity="0.67"/>
<path d="M179.836 271.066C179.836 272.589 178.591 273.834 177.068 273.834C175.544 273.834 174.299 272.589 174.299 271.066C174.299 269.542 175.544 268.297 177.068 268.297C178.591 268.297 179.836 269.526 179.836 271.066Z" fill="#CFCFCF" fill-opacity="0.67"/>
<path d="M204.736 271.066C204.736 272.589 203.491 273.834 201.968 273.834C200.444 273.834 199.199 272.589 199.199 271.066C199.199 269.542 200.444 268.297 201.968 268.297C203.491 268.297 204.736 269.526 204.736 271.066Z" fill="#CFCFCF" fill-opacity="0.67"/>
<path d="M229.638 271.066C229.638 272.589 228.393 273.834 226.869 273.834C225.346 273.834 224.101 272.589 224.101 271.066C224.101 269.542 225.346 268.297 226.869 268.297C228.393 268.297 229.638 269.526 229.638 271.066Z" fill="#CFCFCF" fill-opacity="0.67"/>
<path d="M254.536 271.066C254.536 272.589 253.291 273.834 251.768 273.834C250.244 273.834 248.999 272.589 248.999 271.066C248.999 269.542 250.244 268.297 251.768 268.297C253.291 268.297 254.536 269.526 254.536 271.066Z" fill="#CFCFCF" fill-opacity="0.67"/>
<path d="M5.53697 304.603C5.53697 306.127 4.29197 307.372 2.76849 307.372C1.245 307.372 0 306.127 0 304.603C0 303.08 1.245 301.835 2.76849 301.835C4.29197 301.835 5.53697 303.08 5.53697 304.603Z" fill="#CFCFCF" fill-opacity="0.67"/>
<path d="M30.4344 304.603C30.4344 306.126 29.1894 307.371 27.6659 307.371C26.1425 307.371 24.8975 306.126 24.8975 304.603C24.8975 303.079 26.1425 301.834 27.6659 301.834C29.1894 301.834 30.4344 303.079 30.4344 304.603Z" fill="#CFCFCF" fill-opacity="0.67"/>
<path d="M55.3358 304.603C55.3358 306.126 54.0908 307.371 52.5673 307.371C51.0438 307.371 49.7988 306.126 49.7988 304.603C49.7988 303.079 51.0438 301.834 52.5673 301.834C54.0908 301.834 55.3358 303.079 55.3358 304.603Z" fill="#CFCFCF" fill-opacity="0.67"/>
<path d="M80.2362 304.603C80.2362 306.126 78.9912 307.371 77.4677 307.371C75.9442 307.371 74.6992 306.126 74.6992 304.603C74.6992 303.079 75.9442 301.834 77.4677 301.834C78.9912 301.834 80.2362 303.079 80.2362 304.603Z" fill="#CFCFCF" fill-opacity="0.67"/>
<path d="M105.138 304.603C105.138 306.126 103.893 307.371 102.369 307.371C100.846 307.371 99.6006 306.126 99.6006 304.603C99.6006 303.079 100.846 301.834 102.369 301.834C103.893 301.834 105.138 303.079 105.138 304.603Z" fill="#CFCFCF" fill-opacity="0.67"/>
<path d="M130.036 304.603C130.036 306.126 128.791 307.371 127.268 307.371C125.744 307.371 124.499 306.126 124.499 304.603C124.499 303.079 125.744 301.834 127.268 301.834C128.791 301.834 130.036 303.079 130.036 304.603Z" fill="#CFCFCF" fill-opacity="0.67"/>
<path d="M154.934 304.603C154.934 306.126 153.689 307.371 152.166 307.371C150.642 307.371 149.397 306.126 149.397 304.603C149.397 303.079 150.642 301.834 152.166 301.834C153.689 301.834 154.934 303.079 154.934 304.603Z" fill="#CFCFCF" fill-opacity="0.67"/>
<path d="M179.836 304.603C179.836 306.126 178.591 307.371 177.068 307.371C175.544 307.371 174.299 306.126 174.299 304.603C174.299 303.079 175.544 301.834 177.068 301.834C178.591 301.834 179.836 303.079 179.836 304.603Z" fill="#CFCFCF" fill-opacity="0.67"/>
<path d="M204.736 304.603C204.736 306.126 203.491 307.371 201.968 307.371C200.444 307.371 199.199 306.126 199.199 304.603C199.199 303.079 200.444 301.834 201.968 301.834C203.491 301.834 204.736 303.079 204.736 304.603Z" fill="#CFCFCF" fill-opacity="0.67"/>
<path d="M229.638 304.603C229.638 306.126 228.393 307.371 226.869 307.371C225.346 307.371 224.101 306.126 224.101 304.603C224.101 303.079 225.346 301.834 226.869 301.834C228.393 301.834 229.638 303.079 229.638 304.603Z" fill="#CFCFCF" fill-opacity="0.67"/>
<path d="M254.536 304.603C254.536 306.126 253.291 307.371 251.768 307.371C250.244 307.371 248.999 306.126 248.999 304.603C248.999 303.079 250.244 301.834 251.768 301.834C253.291 301.834 254.536 303.079 254.536 304.603Z" fill="#CFCFCF" fill-opacity="0.67"/>
<path d="M2.76849 340.909C4.29748 340.909 5.53697 339.669 5.53697 338.14C5.53697 336.611 4.29748 335.372 2.76849 335.372C1.23949 335.372 0 336.611 0 338.14C0 339.669 1.23949 340.909 2.76849 340.909Z" fill="#CFCFCF" fill-opacity="0.67"/>
<path d="M27.6659 340.909C29.1949 340.909 30.4344 339.669 30.4344 338.14C30.4344 336.611 29.1949 335.372 27.6659 335.372C26.137 335.372 24.8975 336.611 24.8975 338.14C24.8975 339.669 26.137 340.909 27.6659 340.909Z" fill="#CFCFCF" fill-opacity="0.67"/>
<path d="M52.5673 340.909C54.0963 340.909 55.3358 339.669 55.3358 338.14C55.3358 336.611 54.0963 335.372 52.5673 335.372C51.0383 335.372 49.7988 336.611 49.7988 338.14C49.7988 339.669 51.0383 340.909 52.5673 340.909Z" fill="#CFCFCF" fill-opacity="0.67"/>
<path d="M80.2362 338.14C80.2362 339.664 78.9912 340.909 77.4677 340.909C75.9442 340.909 74.6992 339.664 74.6992 338.14C74.6992 336.617 75.9442 335.372 77.4677 335.372C78.9912 335.372 80.2362 336.617 80.2362 338.14Z" fill="#CFCFCF" fill-opacity="0.67"/>
<path d="M105.138 338.14C105.138 339.664 103.893 340.909 102.369 340.909C100.846 340.909 99.6006 339.664 99.6006 338.14C99.6006 336.617 100.846 335.372 102.369 335.372C103.893 335.372 105.138 336.617 105.138 338.14Z" fill="#CFCFCF" fill-opacity="0.67"/>
<path d="M127.268 340.909C128.797 340.909 130.036 339.669 130.036 338.14C130.036 336.611 128.797 335.372 127.268 335.372C125.739 335.372 124.499 336.611 124.499 338.14C124.499 339.669 125.739 340.909 127.268 340.909Z" fill="#CFCFCF" fill-opacity="0.67"/>
<path d="M152.166 340.909C153.695 340.909 154.934 339.669 154.934 338.14C154.934 336.611 153.695 335.372 152.166 335.372C150.637 335.372 149.397 336.611 149.397 338.14C149.397 339.669 150.637 340.909 152.166 340.909Z" fill="#CFCFCF" fill-opacity="0.67"/>
<path d="M177.068 340.909C178.597 340.909 179.836 339.669 179.836 338.14C179.836 336.611 178.597 335.372 177.068 335.372C175.539 335.372 174.299 336.611 174.299 338.14C174.299 339.669 175.539 340.909 177.068 340.909Z" fill="#CFCFCF" fill-opacity="0.67"/>
<path d="M201.968 340.909C203.497 340.909 204.736 339.669 204.736 338.14C204.736 336.611 203.497 335.372 201.968 335.372C200.439 335.372 199.199 336.611 199.199 338.14C199.199 339.669 200.439 340.909 201.968 340.909Z" fill="#CFCFCF" fill-opacity="0.67"/>
<path d="M226.869 340.909C228.398 340.909 229.638 339.669 229.638 338.14C229.638 336.611 228.398 335.372 226.869 335.372C225.34 335.372 224.101 336.611 224.101 338.14C224.101 339.669 225.34 340.909 226.869 340.909Z" fill="#CFCFCF" fill-opacity="0.67"/>
<path d="M251.768 340.909C253.297 340.909 254.536 339.669 254.536 338.14C254.536 336.611 253.297 335.372 251.768 335.372C250.239 335.372 248.999 336.611 248.999 338.14C248.999 339.669 250.239 340.909 251.768 340.909Z" fill="#CFCFCF" fill-opacity="0.67"/>
<path d="M5.53697 371.678C5.53697 373.201 4.29197 374.446 2.76849 374.446C1.245 374.446 0 373.201 0 371.678C0 370.154 1.245 368.909 2.76849 368.909C4.29197 368.909 5.53697 370.154 5.53697 371.678Z" fill="#CFCFCF" fill-opacity="0.67"/>
<path d="M30.4344 371.678C30.4344 373.201 29.1894 374.446 27.6659 374.446C26.1425 374.446 24.8975 373.201 24.8975 371.678C24.8975 370.154 26.1425 368.909 27.6659 368.909C29.1894 368.909 30.4344 370.154 30.4344 371.678Z" fill="#CFCFCF" fill-opacity="0.67"/>
<path d="M55.3358 371.678C55.3358 373.201 54.0908 374.446 52.5673 374.446C51.0438 374.446 49.7988 373.201 49.7988 371.678C49.7988 370.154 51.0438 368.909 52.5673 368.909C54.0908 368.909 55.3358 370.154 55.3358 371.678Z" fill="#CFCFCF" fill-opacity="0.67"/>
<path d="M80.2362 371.678C80.2362 373.201 78.9912 374.446 77.4677 374.446C75.9442 374.446 74.6992 373.201 74.6992 371.678C74.6992 370.154 75.9442 368.909 77.4677 368.909C78.9912 368.909 80.2362 370.154 80.2362 371.678Z" fill="#CFCFCF" fill-opacity="0.67"/>
<path d="M105.138 371.678C105.138 373.201 103.893 374.446 102.369 374.446C100.846 374.446 99.6006 373.201 99.6006 371.678C99.6006 370.154 100.846 368.909 102.369 368.909C103.893 368.909 105.138 370.154 105.138 371.678Z" fill="#CFCFCF" fill-opacity="0.67"/>
<path d="M130.036 371.678C130.036 373.201 128.791 374.446 127.268 374.446C125.744 374.446 124.499 373.201 124.499 371.678C124.499 370.154 125.744 368.909 127.268 368.909C128.791 368.909 130.036 370.154 130.036 371.678Z" fill="#CFCFCF" fill-opacity="0.67"/>
<path d="M154.934 371.678C154.934 373.201 153.689 374.446 152.166 374.446C150.642 374.446 149.397 373.201 149.397 371.678C149.397 370.154 150.642 368.909 152.166 368.909C153.689 368.909 154.934 370.154 154.934 371.678Z" fill="#CFCFCF" fill-opacity="0.67"/>
<path d="M179.836 371.678C179.836 373.201 178.591 374.446 177.068 374.446C175.544 374.446 174.299 373.201 174.299 371.678C174.299 370.154 175.544 368.909 177.068 368.909C178.591 368.909 179.836 370.154 179.836 371.678Z" fill="#CFCFCF" fill-opacity="0.67"/>
<path d="M204.736 371.678C204.736 373.201 203.491 374.446 201.968 374.446C200.444 374.446 199.199 373.201 199.199 371.678C199.199 370.154 200.444 368.909 201.968 368.909C203.491 368.909 204.736 370.154 204.736 371.678Z" fill="#CFCFCF" fill-opacity="0.67"/>
<path d="M229.638 371.678C229.638 373.201 228.393 374.446 226.869 374.446C225.346 374.446 224.101 373.201 224.101 371.678C224.101 370.154 225.346 368.909 226.869 368.909C228.393 368.909 229.638 370.154 229.638 371.678Z" fill="#CFCFCF" fill-opacity="0.67"/>
<path d="M254.536 371.678C254.536 373.201 253.291 374.446 251.768 374.446C250.244 374.446 248.999 373.201 248.999 371.678C248.999 370.154 250.244 368.909 251.768 368.909C253.291 368.909 254.536 370.154 254.536 371.678Z" fill="#CFCFCF" fill-opacity="0.67"/>
</svg>
