<svg width="56" height="56" viewBox="0 0 56 56" fill="none" xmlns="http://www.w3.org/2000/svg">
<path d="M45.9373 13.2387C45.804 13.1617 45.6528 13.1213 45.4989 13.1215C45.345 13.1216 45.1939 13.1623 45.0608 13.2396C44.9277 13.3168 44.8173 13.4277 44.7407 13.5612C44.6642 13.6947 44.6242 13.8461 44.6248 13.9999V29.7499H28.8748V13.9999C28.8754 13.8461 28.8354 13.6947 28.7589 13.5612C28.6823 13.4277 28.5719 13.3168 28.4388 13.2396C28.3057 13.1623 28.1546 13.1216 28.0007 13.1215C27.8468 13.1213 27.6956 13.1617 27.5623 13.2387C24.8212 14.8339 22.5397 17.1114 20.9396 19.8497C19.3396 22.588 18.4755 25.6937 18.4315 28.8649C18.3874 32.0361 19.1649 35.1647 20.6883 37.9463C22.2117 40.728 24.4291 43.068 27.1248 44.7387V52.4999C27.1248 53.1961 27.4014 53.8638 27.8937 54.3561C28.3859 54.8484 29.0536 55.1249 29.7498 55.1249H32.3748V48.1249C32.3748 47.8929 32.467 47.6703 32.6311 47.5062C32.7952 47.3421 33.0177 47.2499 33.2498 47.2499C33.4819 47.2499 33.7044 47.3421 33.8685 47.5062C34.0326 47.6703 34.1248 47.8929 34.1248 48.1249V55.1249H39.3748V48.1249C39.3748 47.8929 39.467 47.6703 39.6311 47.5062C39.7952 47.3421 40.0177 47.2499 40.2498 47.2499C40.4819 47.2499 40.7044 47.3421 40.8685 47.5062C41.0326 47.6703 41.1248 47.8929 41.1248 48.1249V55.1249H43.7498C44.446 55.1249 45.1137 54.8484 45.606 54.3561C46.0982 53.8638 46.3748 53.1961 46.3748 52.4999V44.7737C49.0705 43.103 51.2879 40.763 52.8113 37.9813C54.3347 35.1997 55.1122 32.0711 55.0681 28.8999C55.0241 25.7287 54.16 22.623 52.56 19.8847C50.9599 17.1464 48.6784 14.8689 45.9373 13.2737V13.2387Z" fill="#EFD6AC"/>
<path d="M42 0.875H10.5C9.80381 0.875 9.13613 1.15156 8.64384 1.64384C8.15156 2.13613 7.875 2.80381 7.875 3.5V4.375H7C6.30381 4.375 5.63613 4.65156 5.14384 5.14384C4.65156 5.63613 4.375 6.30381 4.375 7V7.875H3.5C2.80381 7.875 2.13613 8.15156 1.64384 8.64384C1.15156 9.13613 0.875 9.80381 0.875 10.5V42C0.875 42.6962 1.15156 43.3639 1.64384 43.8562C2.13613 44.3484 2.80381 44.625 3.5 44.625H35C35.6962 44.625 36.3639 44.3484 36.8562 43.8562C37.3484 43.3639 37.625 42.6962 37.625 42V41.125H38.5C39.1962 41.125 39.8639 40.8484 40.3562 40.3562C40.8484 39.8639 41.125 39.1962 41.125 38.5V37.625H42C42.6962 37.625 43.3639 37.3484 43.8562 36.8562C44.3484 36.3639 44.625 35.6962 44.625 35V3.5C44.625 2.80381 44.3484 2.13613 43.8562 1.64384C43.3639 1.15156 42.6962 0.875 42 0.875ZM35.875 42C35.875 42.2321 35.7828 42.4546 35.6187 42.6187C35.4546 42.7828 35.2321 42.875 35 42.875H3.5C3.26794 42.875 3.04538 42.7828 2.88128 42.6187C2.71719 42.4546 2.625 42.2321 2.625 42V14H35.875V42ZM35.875 12.25H2.625V10.5C2.625 10.2679 2.71719 10.0454 2.88128 9.88128C3.04538 9.71719 3.26794 9.625 3.5 9.625H35.875V12.25ZM39.375 38.5C39.375 38.7321 39.2828 38.9546 39.1187 39.1187C38.9546 39.2828 38.7321 39.375 38.5 39.375H37.625V8.75C37.625 8.51794 37.5328 8.29538 37.3687 8.13128C37.2046 7.96719 36.9821 7.875 36.75 7.875H6.125V7C6.125 6.76794 6.21719 6.54538 6.38128 6.38128C6.54538 6.21719 6.76794 6.125 7 6.125H38.5C38.7321 6.125 38.9546 6.21719 39.1187 6.38128C39.2828 6.54538 39.375 6.76794 39.375 7V38.5ZM42.875 35C42.875 35.2321 42.7828 35.4546 42.6187 35.6187C42.4546 35.7828 42.2321 35.875 42 35.875H41.125V7C41.125 6.30381 40.8484 5.63613 40.3562 5.14384C39.8639 4.65156 39.1962 4.375 38.5 4.375H9.625V3.5C9.625 3.26794 9.71719 3.04538 9.88128 2.88128C10.0454 2.71719 10.2679 2.625 10.5 2.625H42C42.2321 2.625 42.4546 2.71719 42.6187 2.88128C42.7828 3.04538 42.875 3.26794 42.875 3.5V35Z" fill="#183A37" fill-opacity="0.9"/>
<path d="M6.125 27.125H32.375C32.6071 27.125 32.8296 27.0328 32.9937 26.8687C33.1578 26.7046 33.25 26.4821 33.25 26.25C33.25 26.0179 33.1578 25.7954 32.9937 25.6313C32.8296 25.4672 32.6071 25.375 32.375 25.375H6.125C5.89294 25.375 5.67038 25.4672 5.50628 25.6313C5.34219 25.7954 5.25 26.0179 5.25 26.25C5.25 26.4821 5.34219 26.7046 5.50628 26.8687C5.67038 27.0328 5.89294 27.125 6.125 27.125Z" fill="#183A37" fill-opacity="0.9"/>
<path d="M6.125 18.375H16.625C16.8571 18.375 17.0796 18.2828 17.2437 18.1187C17.4078 17.9546 17.5 17.7321 17.5 17.5C17.5 17.2679 17.4078 17.0454 17.2437 16.8813C17.0796 16.7172 16.8571 16.625 16.625 16.625H6.125C5.89294 16.625 5.67038 16.7172 5.50628 16.8813C5.34219 17.0454 5.25 17.2679 5.25 17.5C5.25 17.7321 5.34219 17.9546 5.50628 18.1187C5.67038 18.2828 5.89294 18.375 6.125 18.375Z" fill="#183A37" fill-opacity="0.9"/>
<path d="M6.125 22.75H16.625C16.8571 22.75 17.0796 22.6578 17.2437 22.4937C17.4078 22.3296 17.5 22.1071 17.5 21.875C17.5 21.6429 17.4078 21.4204 17.2437 21.2563C17.0796 21.0922 16.8571 21 16.625 21H6.125C5.89294 21 5.67038 21.0922 5.50628 21.2563C5.34219 21.4204 5.25 21.6429 5.25 21.875C5.25 22.1071 5.34219 22.3296 5.50628 22.4937C5.67038 22.6578 5.89294 22.75 6.125 22.75Z" fill="#183A37" fill-opacity="0.9"/>
<path d="M6.125 35.875H16.625C16.8571 35.875 17.0796 35.7828 17.2437 35.6187C17.4078 35.4546 17.5 35.2321 17.5 35C17.5 34.7679 17.4078 34.5454 17.2437 34.3813C17.0796 34.2172 16.8571 34.125 16.625 34.125H6.125C5.89294 34.125 5.67038 34.2172 5.50628 34.3813C5.34219 34.5454 5.25 34.7679 5.25 35C5.25 35.2321 5.34219 35.4546 5.50628 35.6187C5.67038 35.7828 5.89294 35.875 6.125 35.875Z" fill="#183A37" fill-opacity="0.9"/>
<path d="M6.125 31.5H16.625C16.8571 31.5 17.0796 31.4078 17.2437 31.2437C17.4078 31.0796 17.5 30.8571 17.5 30.625C17.5 30.3929 17.4078 30.1704 17.2437 30.0063C17.0796 29.8422 16.8571 29.75 16.625 29.75H6.125C5.89294 29.75 5.67038 29.8422 5.50628 30.0063C5.34219 30.1704 5.25 30.3929 5.25 30.625C5.25 30.8571 5.34219 31.0796 5.50628 31.2437C5.67038 31.4078 5.89294 31.5 6.125 31.5Z" fill="#183A37" fill-opacity="0.9"/>
<path d="M21.875 22.75H32.375C32.6071 22.75 32.8296 22.6578 32.9937 22.4937C33.1578 22.3296 33.25 22.1071 33.25 21.875C33.25 21.6429 33.1578 21.4204 32.9937 21.2563C32.8296 21.0922 32.6071 21 32.375 21H21.875C21.6429 21 21.4204 21.0922 21.2563 21.2563C21.0922 21.4204 21 21.6429 21 21.875C21 22.1071 21.0922 22.3296 21.2563 22.4937C21.4204 22.6578 21.6429 22.75 21.875 22.75Z" fill="#183A37" fill-opacity="0.9"/>
<path d="M32.375 34.125H21.875C21.6429 34.125 21.4204 34.2172 21.2563 34.3813C21.0922 34.5454 21 34.7679 21 35C21 35.2321 21.0922 35.4546 21.2563 35.6187C21.4204 35.7828 21.6429 35.875 21.875 35.875H32.375C32.6071 35.875 32.8296 35.7828 32.9937 35.6187C33.1578 35.4546 33.25 35.2321 33.25 35C33.25 34.7679 33.1578 34.5454 32.9937 34.3813C32.8296 34.2172 32.6071 34.125 32.375 34.125Z" fill="#183A37" fill-opacity="0.9"/>
<path d="M32.375 38.5H21.875C21.6429 38.5 21.4204 38.5922 21.2563 38.7563C21.0922 38.9204 21 39.1429 21 39.375C21 39.6071 21.0922 39.8296 21.2563 39.9937C21.4204 40.1578 21.6429 40.25 21.875 40.25H32.375C32.6071 40.25 32.8296 40.1578 32.9937 39.9937C33.1578 39.8296 33.25 39.6071 33.25 39.375C33.25 39.1429 33.1578 38.9204 32.9937 38.7563C32.8296 38.5922 32.6071 38.5 32.375 38.5Z" fill="#183A37" fill-opacity="0.9"/>
<path d="M32.375 29.75H21.875C21.6429 29.75 21.4204 29.8422 21.2563 30.0063C21.0922 30.1704 21 30.3929 21 30.625C21 30.8571 21.0922 31.0796 21.2563 31.2437C21.4204 31.4078 21.6429 31.5 21.875 31.5H32.375C32.6071 31.5 32.8296 31.4078 32.9937 31.2437C33.1578 31.0796 33.25 30.8571 33.25 30.625C33.25 30.3929 33.1578 30.1704 32.9937 30.0063C32.8296 29.8422 32.6071 29.75 32.375 29.75Z" fill="#183A37" fill-opacity="0.9"/>
</svg>
