<svg width="22" height="23" viewBox="0 0 22 23" fill="none" xmlns="http://www.w3.org/2000/svg">
<g clip-path="url(#clip0)">
<path d="M12.977 13.1708L12.1359 14.7662C12.0438 14.941 11.8345 15.0201 11.6483 14.9503C9.74902 14.2382 8.24991 12.753 7.53153 10.8717C7.46113 10.6872 7.54093 10.4799 7.7174 10.3887L9.32815 9.55592L8.8202 6.70538C8.21193 6.36623 7.46765 6.3725 6.86513 6.72153C6.26261 7.07056 5.89239 7.71009 5.89258 8.40149C5.89776 12.9122 9.58846 16.5678 14.1426 16.5729C14.8402 16.5729 15.4857 16.2064 15.8381 15.6098C16.1905 15.0134 16.197 14.2764 15.855 13.6739L12.977 13.1708Z" fill="#CB000D"/>
<path d="M11 0.619141C4.92491 0.619141 0 5.49715 0 11.5144C0 17.5316 4.92491 22.4096 11 22.4096C17.0751 22.4096 22 17.5316 22 11.5144C21.9931 5.5 17.0722 0.625981 11 0.619141ZM14.1429 17.3511C9.15484 17.3456 5.11271 13.342 5.10714 8.40145C5.10733 7.39408 5.66881 6.46899 6.56693 5.99627C7.46524 5.52375 8.55347 5.58074 9.39635 6.14466C9.48458 6.20356 9.54482 6.29552 9.56323 6.39945L10.1525 9.7018C10.1823 9.869 10.0994 10.0358 9.94746 10.1143L8.39962 10.9151C9.03265 12.3325 10.1759 13.4655 11.6065 14.093L12.4143 12.558C12.4935 12.4076 12.662 12.3255 12.8308 12.3549L16.1653 12.9386C16.27 12.9568 16.3627 13.0163 16.4221 13.1035C16.9911 13.9384 17.0484 15.0162 16.5712 15.9056C16.0937 16.7952 15.1599 17.3511 14.1429 17.3511Z" fill="#CB000D"/>
</g>
<defs>
<clipPath id="clip0">
<rect width="22" height="21.7905" fill="white" transform="translate(0 0.619141)"/>
</clipPath>
</defs>
</svg>
