<svg width="56" height="56" viewBox="0 0 56 56" fill="none" xmlns="http://www.w3.org/2000/svg">
<path d="M24.0625 30.625H20.5625C19.8663 30.625 19.1986 30.9016 18.7063 31.3938C18.2141 31.8861 17.9375 32.5538 17.9375 33.25C17.9375 33.9462 18.2141 34.6139 18.7063 35.1062C19.1986 35.5984 19.8663 35.875 20.5625 35.875H24.0625C24.7587 35.875 25.4264 35.5984 25.9187 35.1062C26.4109 34.6139 26.6875 33.9462 26.6875 33.25C26.6875 32.5538 26.4109 31.8861 25.9187 31.3938C25.4264 30.9016 24.7587 30.625 24.0625 30.625Z" fill="#EFD6AC"/>
<path d="M24.0625 17.5H20.5625C19.8663 17.5 19.1986 17.7766 18.7063 18.2688C18.2141 18.7611 17.9375 19.4288 17.9375 20.125C17.9375 20.8212 18.2141 21.4889 18.7063 21.9812C19.1986 22.4734 19.8663 22.75 20.5625 22.75H24.0625C24.7587 22.75 25.4264 22.4734 25.9187 21.9812C26.4109 21.4889 26.6875 20.8212 26.6875 20.125C26.6875 19.4288 26.4109 18.7611 25.9187 18.2688C25.4264 17.7766 24.7587 17.5 24.0625 17.5Z" fill="#EFD6AC"/>
<path d="M24.0625 43.75H20.5625C19.8663 43.75 19.1986 44.0266 18.7063 44.5188C18.2141 45.0111 17.9375 45.6788 17.9375 46.375C17.9375 47.0712 18.2141 47.7389 18.7063 48.2312C19.1986 48.7234 19.8663 49 20.5625 49H24.0625C24.7587 49 25.4264 48.7234 25.9187 48.2312C26.4109 47.7389 26.6875 47.0712 26.6875 46.375C26.6875 45.6788 26.4109 45.0111 25.9187 44.5188C25.4264 44.0266 24.7587 43.75 24.0625 43.75Z" fill="#EFD6AC"/>
<path d="M52.0625 11.375H24.0625C23.3663 11.375 22.6986 11.6516 22.2063 12.1438C21.7141 12.6361 21.4375 13.3038 21.4375 14V15.75H24.0625C25.2228 15.75 26.3356 16.2109 27.1561 17.0314C27.9766 17.8519 28.4375 18.9647 28.4375 20.125C28.4375 21.2853 27.9766 22.3981 27.1561 23.2186C26.3356 24.0391 25.2228 24.5 24.0625 24.5H21.4375V28.875H24.0625C25.2228 28.875 26.3356 29.3359 27.1561 30.1564C27.9766 30.9769 28.4375 32.0897 28.4375 33.25C28.4375 34.4103 27.9766 35.5231 27.1561 36.3436C26.3356 37.1641 25.2228 37.625 24.0625 37.625H21.4375V42H24.0625C25.2228 42 26.3356 42.4609 27.1561 43.2814C27.9766 44.1019 28.4375 45.2147 28.4375 46.375C28.4375 47.5353 27.9766 48.6481 27.1561 49.4686C26.3356 50.2891 25.2228 50.75 24.0625 50.75H21.4375V52.5C21.4375 53.1962 21.7141 53.8639 22.2063 54.3562C22.6986 54.8484 23.3663 55.125 24.0625 55.125H52.0625C52.7587 55.125 53.4264 54.8484 53.9187 54.3562C54.4109 53.8639 54.6875 53.1962 54.6875 52.5V14C54.6875 13.3038 54.4109 12.6361 53.9187 12.1438C53.4264 11.6516 52.7587 11.375 52.0625 11.375ZM43.3125 28.875C43.3125 29.1071 43.2203 29.3296 43.0562 29.4937C42.8921 29.6578 42.6696 29.75 42.4375 29.75H38.0625V36.75H42.4375C42.6696 36.75 42.8921 36.8422 43.0562 37.0063C43.2203 37.1704 43.3125 37.3929 43.3125 37.625V47.25C43.3125 47.4821 43.2203 47.7046 43.0562 47.8687C42.8921 48.0328 42.6696 48.125 42.4375 48.125H37.1875C35.5636 48.1231 34.0068 47.4772 32.8585 46.329C31.7103 45.1807 31.0644 43.6239 31.0625 42V24.5C31.0644 22.8761 31.7103 21.3193 32.8585 20.171C34.0068 19.0228 35.5636 18.3769 37.1875 18.375H42.4375C42.6696 18.375 42.8921 18.4672 43.0562 18.6313C43.2203 18.7954 43.3125 19.0179 43.3125 19.25V28.875ZM45.7888 36.9626C45.6247 36.7985 45.5326 36.576 45.5326 36.344C45.5326 36.112 45.6247 35.8895 45.7888 35.7254C46.4439 35.0682 46.8118 34.178 46.8118 33.25C46.8118 32.322 46.4439 31.4318 45.7888 30.7746C45.6294 30.6096 45.5412 30.3886 45.5432 30.1591C45.5452 29.9297 45.6372 29.7103 45.7994 29.548C45.9616 29.3858 46.1811 29.2938 46.4105 29.2918C46.6399 29.2898 46.861 29.378 47.026 29.5374C48.0086 30.5231 48.5604 31.8582 48.5604 33.25C48.5604 34.6418 48.0086 35.9769 47.026 36.9626C46.862 37.1261 46.6398 37.2179 46.4082 37.2179C46.1767 37.2179 45.9545 37.1261 45.7905 36.9626H45.7888ZM49.5005 39.4371C49.3355 39.5965 49.1144 39.6847 48.885 39.6827C48.6556 39.6807 48.4361 39.5887 48.2739 39.4265C48.1117 39.2642 48.0197 39.0448 48.0177 38.8154C48.0157 38.5859 48.1039 38.3649 48.2633 38.1999C49.5739 36.886 50.31 35.1059 50.31 33.25C50.31 31.3941 49.5739 29.614 48.2633 28.3001C48.1039 28.1351 48.0157 27.9141 48.0177 27.6846C48.0197 27.4552 48.1117 27.2358 48.2739 27.0735C48.4361 26.9113 48.6556 26.8193 48.885 26.8173C49.1144 26.8153 49.3355 26.9035 49.5005 27.0629C51.1389 28.7051 52.0591 30.9299 52.0594 33.2496C52.0598 35.5693 51.1401 37.7945 49.5023 39.4371H49.5005Z" fill="#EFD6AC"/>
<path d="M32.8125 24.5V42C32.8139 43.1599 33.2753 44.2719 34.0954 45.0921C34.9156 45.9122 36.0276 46.3736 37.1875 46.375H41.5625V38.5H37.1875C36.9554 38.5 36.7329 38.4078 36.5688 38.2437C36.4047 38.0796 36.3125 37.8571 36.3125 37.625V28.875C36.3125 28.6429 36.4047 28.4204 36.5688 28.2563C36.7329 28.0922 36.9554 28 37.1875 28H41.5625V20.125H37.1875C36.0276 20.1264 34.9156 20.5878 34.0954 21.4079C33.2753 22.2281 32.8139 23.3401 32.8125 24.5Z" fill="#EFD6AC"/>
<path d="M21.4375 25.375C23.8603 25.375 26.2287 24.6566 28.2432 23.3105C30.2577 21.9645 31.8279 20.0513 32.755 17.8129C33.6822 15.5745 33.9248 13.1114 33.4521 10.7351C32.9795 8.35888 31.8128 6.17614 30.0996 4.46295C28.3864 2.74975 26.2036 1.58305 23.8274 1.11039C21.4511 0.637717 18.988 0.880308 16.7496 1.80748C14.5112 2.73465 12.598 4.30477 11.252 6.31927C9.90595 8.33377 9.1875 10.7022 9.1875 13.125C9.19097 16.3728 10.4827 19.4867 12.7793 21.7832C15.0758 24.0798 18.1897 25.3715 21.4375 25.375ZM21.4375 2.62501C23.0065 2.62544 24.5553 2.97812 25.9698 3.65704C27.3843 4.33595 28.6283 5.32378 29.61 6.54763C28.6303 7.77589 27.3874 8.76863 25.973 9.45267C24.5585 10.1367 23.0086 10.4946 21.4375 10.5H11.2875C11.87 8.24953 13.1822 6.25573 15.0189 4.83074C16.8555 3.40575 19.1129 2.63002 21.4375 2.62501ZM10.9821 12.25H21.4375C23.1794 12.2456 24.9004 11.87 26.4858 11.1484C28.0712 10.4267 29.4846 9.37555 30.632 8.06488C31.4058 9.46798 31.8482 11.0296 31.9253 12.63C32.0025 14.2305 31.7123 15.8274 31.077 17.2984C30.4418 18.7694 29.4783 20.0755 28.2603 21.1167C27.0424 22.1578 25.6023 22.9064 24.0504 23.3052C22.4985 23.7039 20.8759 23.7422 19.3069 23.4171C17.7379 23.0919 16.2642 22.412 14.9985 21.4294C13.7328 20.4468 12.7088 19.1876 12.0049 17.7482C11.301 16.3087 10.9359 14.7273 10.9375 13.125C10.9375 12.8293 10.9576 12.5396 10.9821 12.25Z" fill="#183A37"/>
<path d="M40.206 31.976C34.4681 28.776 28.0072 27.0962 21.4373 27.0962C14.8673 27.0962 8.40649 28.776 2.66853 31.976C2.25613 32.2027 1.91249 32.5365 1.67381 32.9421C1.43513 33.3477 1.31024 33.8101 1.31228 34.2807V41.125C1.31228 41.8212 1.58884 42.4889 2.08113 42.9811C2.57341 43.4734 3.24109 43.75 3.93728 43.75H38.9373C39.6335 43.75 40.3012 43.4734 40.7934 42.9811C41.2857 42.4889 41.5623 41.8212 41.5623 41.125V34.2807C41.5643 33.8101 41.4394 33.3477 41.2007 32.9421C40.9621 32.5365 40.6184 32.2027 40.206 31.976ZM21.4373 28.8514C24.4472 28.8546 27.4451 29.2311 30.3623 29.9723C29.4321 31.5066 28.1222 32.7752 26.5588 33.6556C24.9954 34.536 23.2315 34.9986 21.4373 34.9986C19.6431 34.9986 17.8791 34.536 16.3158 33.6556C14.7524 32.7752 13.4424 31.5066 12.5123 29.9723C15.4295 29.2311 18.4274 28.8546 21.4373 28.8514ZM39.8123 41.125C39.8123 41.3571 39.7201 41.5796 39.556 41.7437C39.3919 41.9078 39.1693 42 38.9373 42H3.93728C3.70522 42 3.48266 41.9078 3.31856 41.7437C3.15447 41.5796 3.06228 41.3571 3.06228 41.125V34.2807C3.06039 34.1247 3.10059 33.9709 3.17866 33.8357C3.25672 33.7006 3.36977 33.5889 3.50591 33.5125C5.8128 32.256 8.24145 31.2372 10.7544 30.4719C11.8144 32.375 13.3636 33.9605 15.2418 35.0642C17.1199 36.168 19.2588 36.7499 21.4373 36.7499C23.6157 36.7499 25.7547 36.168 27.6328 35.0642C29.511 33.9605 31.0601 32.375 32.1202 30.4719C34.6331 31.2372 37.0618 32.256 39.3687 33.5125C39.5048 33.5889 39.6178 33.7006 39.6959 33.8357C39.774 33.9709 39.8142 34.1247 39.8123 34.2807V41.125Z" fill="#183A37"/>
</svg>
