<svg width="346" height="74" viewBox="0 0 346 74" fill="none" xmlns="http://www.w3.org/2000/svg">
<path d="M16.8485 39.8785C14.5762 39.8785 12.0637 39.9063 9.31101 39.962L9.20017 38.7653L13.3014 37.5409C13.7633 37.411 14.0035 37.1234 14.0219 36.6782C14.0589 35.2682 14.0774 33.4686 14.0774 31.2794V3.50641H4.29526L1.82895 10.9088L0.720495 11.1036L0 1.14098L0.193979 0.918346C4.73864 0.992555 9.08932 1.02966 13.246 1.02966H20.6449C24.7832 1.02966 29.1523 0.992555 33.7524 0.918346L33.9187 1.14098L32.1729 10.9088L31.0644 11.1036L29.2909 3.50641H19.5088V31.2794C19.5088 33.4686 19.5273 35.2682 19.5642 36.6782C19.5827 37.1234 19.8228 37.411 20.2847 37.5409L24.386 38.7653L24.4414 39.962C21.5779 39.9063 19.0469 39.8785 16.8485 39.8785Z" fill="white"/>
<path d="M46.5551 32.6152V36.8451C46.5551 37.3275 46.8137 37.6429 47.331 37.7913L50.4069 38.7653L50.4901 39.962C48.2916 39.9063 46.0932 39.8785 43.8948 39.8785C41.6963 39.8785 39.4055 39.9063 37.0224 39.962L36.9115 38.7653L40.32 37.7357C40.8003 37.5872 41.0497 37.2997 41.0682 36.873C41.1052 35.3702 41.1236 33.5243 41.1236 31.3351V8.76603C41.1236 6.91078 41.1052 5.37093 41.0682 4.14647C41.0497 3.66411 40.828 3.34871 40.4031 3.2003L36.9669 2.11498L36.9115 0.918346C39.2947 0.992555 41.5855 1.02966 43.7839 1.02966C46.0008 1.02966 48.19 0.992555 50.3515 0.918346L50.4901 2.11498L47.331 3.08898C46.8691 3.20029 46.629 3.48786 46.6105 3.95167C46.5735 5.28745 46.5551 6.85513 46.5551 8.65471V28.6079L67.1446 6.67888V3.95167C67.1446 3.52496 66.8859 3.2374 66.3687 3.08898L63.2927 2.11498L63.2096 0.918346C65.4634 0.992555 67.6988 1.02966 69.9157 1.02966C72.1141 1.02966 74.368 0.992555 76.6773 0.918346L76.7881 2.11498L73.2965 3.2003C72.8716 3.34871 72.6499 3.66411 72.6314 4.14647C72.576 5.37093 72.5483 6.91078 72.5483 8.76603V31.3351C72.5483 33.5243 72.576 35.3702 72.6314 36.873C72.6499 37.2997 72.8993 37.5872 73.3796 37.7357L76.7327 38.7653L76.7881 39.962C74.3311 39.9063 72.0033 39.8785 69.8049 39.8785C67.6064 39.8785 65.4542 39.9063 63.3481 39.962L63.2096 38.7653L66.3687 37.7913C66.8305 37.6614 67.0707 37.3461 67.0892 36.8451L67.1446 31.3351V10.6862L46.5551 32.6152Z" fill="white"/>
<path d="M91.9185 36.8451C91.937 37.3461 92.1772 37.6614 92.639 37.7913L95.715 38.7653L95.7981 39.962C93.5997 39.9063 91.4012 39.8785 89.2028 39.8785C87.0044 39.8785 84.7136 39.9063 82.3304 39.962L82.2196 38.7653L85.628 37.7357C86.1084 37.5872 86.3578 37.2997 86.3763 36.873C86.4132 35.3702 86.4317 33.5243 86.4317 31.3351V8.76603C86.4317 6.91078 86.4132 5.37093 86.3763 4.14647C86.3578 3.66411 86.1361 3.34871 85.7112 3.2003L82.275 2.11498L82.2196 0.918346C84.6027 0.992555 86.8935 1.02966 89.092 1.02966H113.672C115.87 1.02966 118.124 0.992555 120.433 0.918346L120.544 2.11498L117.053 3.2003C116.628 3.34871 116.406 3.66411 116.388 4.14647C116.351 5.37093 116.332 6.91078 116.332 8.76603V31.3351C116.332 33.5243 116.351 35.3702 116.388 36.873C116.406 37.2997 116.656 37.5872 117.136 37.7357L120.489 38.7653L120.544 39.962C118.106 39.9063 115.778 39.8785 113.561 39.8785C111.363 39.8785 109.21 39.9063 107.104 39.962L106.993 38.7653L110.125 37.7913C110.587 37.6614 110.827 37.3461 110.845 36.8451C110.901 35.361 110.929 33.5243 110.929 31.3351V3.56207H91.8631V31.3351C91.8631 33.5243 91.8816 35.361 91.9185 36.8451Z" fill="white"/>
<path d="M132.1 19.9253C132.1 25.9734 133.319 30.6115 135.758 33.8396C138.196 37.0492 141.771 38.654 146.482 38.654C151.119 38.654 154.537 37.1976 156.735 34.2849C158.952 31.3536 160.061 26.7619 160.061 20.5097C160.061 14.6471 158.888 10.1389 156.541 6.98499C154.195 3.83108 150.574 2.25412 145.679 2.25412C140.931 2.25412 137.476 3.71976 135.314 6.65105C133.171 9.56378 132.1 13.9885 132.1 19.9253ZM166.157 19.5635C166.157 25.9827 164.338 31.1495 160.698 35.0641C157.077 38.9601 152.006 40.9081 145.485 40.9081C139.296 40.9081 134.502 39.1085 131.102 35.5094C127.722 31.8916 126.031 27.0031 126.031 20.8437C126.031 14.4245 127.851 9.35043 131.49 5.62139C135.148 1.8738 140.21 0 146.676 0C152.883 0 157.678 1.75321 161.058 5.25962C164.458 8.74747 166.157 13.5155 166.157 19.5635Z" fill="white"/>
<path d="M181.288 31.3351C181.288 33.5243 181.306 35.3238 181.343 36.7338C181.362 37.1791 181.602 37.4666 182.064 37.5965L185.888 38.7653L185.943 39.962C183.264 39.9063 180.826 39.8785 178.627 39.8785C176.429 39.8785 174.138 39.9063 171.755 39.962L171.644 38.7653L175.053 37.7357C175.533 37.5872 175.782 37.2997 175.801 36.873C175.838 35.3702 175.856 33.5243 175.856 31.3351V8.76603C175.856 7.81985 175.847 6.96644 175.828 6.20579C175.828 5.44514 175.819 4.7587 175.801 4.14647C175.782 3.66411 175.561 3.34871 175.136 3.2003L171.699 2.11498L171.644 0.918346C174.027 0.992555 176.318 1.02966 178.516 1.02966H185.029C189.573 1.02966 193.952 0.992555 198.164 0.918346L198.33 1.14098L196.418 11.3541L195.31 11.5489L193.203 3.50641H181.288V31.3351Z" fill="white"/>
<path d="M212.491 21.0663C213.784 21.2889 215.058 21.4002 216.315 21.4002C219.271 21.4002 221.515 20.6396 223.049 19.1183C224.6 17.5784 225.376 15.2316 225.376 12.0776C225.376 9.05359 224.637 6.79947 223.159 5.31527C221.7 3.83108 219.391 3.08898 216.232 3.08898C214.994 3.08898 213.747 3.16319 212.491 3.31161V21.0663ZM212.491 31.3351C212.491 32.4482 212.491 33.4501 212.491 34.3406C212.509 35.2311 212.528 36.0288 212.546 36.7338C212.564 37.1605 212.805 37.4481 213.266 37.5965L217.091 38.7653L217.146 39.962C214.467 39.9063 212.029 39.8785 209.83 39.8785C207.595 39.8785 205.304 39.9063 202.958 39.962L202.847 38.7653L206.256 37.7357C206.736 37.5872 206.985 37.2997 207.004 36.873C207.022 36.1309 207.031 35.3053 207.031 34.3962C207.05 33.4686 207.059 32.4482 207.059 31.3351V8.76603C207.059 7.81985 207.05 6.96644 207.031 6.20579C207.031 5.44514 207.022 4.7587 207.004 4.14647C206.985 3.66411 206.764 3.34871 206.339 3.2003L202.902 2.11498L202.847 0.918346C205.23 0.992555 207.549 1.02966 209.803 1.02966C211.317 1.02966 212.777 0.992555 214.181 0.918346C215.603 0.844136 216.897 0.807031 218.061 0.807031C222.402 0.807031 225.681 1.66972 227.898 3.3951C230.133 5.10192 231.251 7.65288 231.251 11.048C231.251 15.0368 229.967 18.135 227.399 20.3427C224.831 22.5505 221.229 23.6544 216.592 23.6544C215.317 23.6544 213.95 23.5709 212.491 23.4039V31.3351Z" fill="white"/>
<path d="M249.814 0.334473L262.118 34.3689C262.579 35.649 262.995 36.521 263.365 36.9848C263.753 37.4301 264.298 37.764 265 37.9866L267.604 38.7658L267.66 39.9625C265.24 39.9068 262.995 39.879 260.926 39.879C258.82 39.879 256.335 39.9068 253.472 39.9625L253.361 38.7658L255.993 37.9866C256.363 37.8568 256.622 37.7176 256.769 37.5692C256.936 37.4022 257.019 37.1518 257.019 36.8178C257.019 36.4468 256.917 35.9644 256.714 35.3707C256.529 34.7585 256.261 33.9515 255.91 32.9497L253.305 25.4916H239.949L237.039 32.9218C236.651 33.9608 236.346 34.7863 236.124 35.3986C235.903 36.0108 235.792 36.4932 235.792 36.8457C235.792 37.1611 235.875 37.4022 236.041 37.5692C236.226 37.7176 236.494 37.8475 236.845 37.9588L239.422 38.7102L239.477 39.9625C236.854 39.9068 234.711 39.879 233.048 39.879C231.386 39.879 229.529 39.9068 227.478 39.9625L227.34 38.7658L230.139 37.9032C230.841 37.6805 231.358 37.3373 231.691 36.8735C232.023 36.4097 232.393 35.6861 232.799 34.7029L246.959 0.751902L249.814 0.334473ZM240.974 22.9592H252.391L246.987 7.62558L240.974 22.9592Z" fill="white"/>
<path d="M304.706 19.0609C304.706 23.0868 303.358 26.2871 300.661 28.6618C297.963 31.018 293.825 32.3723 288.246 32.7248V36.8991C288.246 37.3444 288.588 37.669 289.271 37.8731L292.43 38.8193L292.486 39.9603C290.084 39.9046 287.858 39.8768 285.807 39.8768C283.701 39.8768 281.475 39.9046 279.129 39.9603L278.99 38.8193L282.399 37.7896C282.953 37.6412 283.23 37.3536 283.23 36.9269V32.8083C277.392 32.5114 273.189 31.2777 270.621 29.1071C268.053 26.9179 266.77 23.866 266.77 19.9514C266.77 16.0369 268.044 12.9293 270.594 10.6288C273.162 8.32834 277.374 6.98329 283.23 6.59369V3.19859C283.23 2.73478 282.981 2.42867 282.482 2.28025L279.073 1.19493L278.99 0.0539551C281.392 0.109612 283.627 0.137441 285.696 0.137441C287.765 0.137441 289.982 0.109612 292.347 0.0539551L292.486 1.19493L289.049 2.22459C288.514 2.35446 288.246 2.63274 288.246 3.05945V6.53803C294.176 6.77921 298.397 7.98512 300.91 10.1558C303.441 12.3078 304.706 15.2762 304.706 19.0609ZM288.246 8.51387V30.8325C292.458 30.5913 295.321 29.6173 296.836 27.9104C298.351 26.1851 299.109 23.4393 299.109 19.6732C299.109 16.3523 298.425 13.7549 297.058 11.8811C295.709 9.98878 292.772 8.86636 288.246 8.51387ZM272.367 19.3392C272.367 22.9013 273.134 25.6099 274.667 27.4652C276.219 29.3204 279.073 30.415 283.23 30.749V8.48604C278.778 8.72722 275.85 9.71977 274.446 11.4637C273.06 13.2076 272.367 15.8328 272.367 19.3392Z" fill="white"/>
<path d="M345.913 19.0609C345.913 23.0868 344.565 26.2871 341.868 28.6618C339.17 31.018 335.032 32.3723 329.453 32.7248V36.8991C329.453 37.3444 329.795 37.669 330.478 37.8731L333.637 38.8193L333.693 39.9603C331.291 39.9046 329.065 39.8768 327.014 39.8768C324.908 39.8768 322.682 39.9046 320.336 39.9603L320.197 38.8193L323.606 37.7896C324.16 37.6412 324.437 37.3536 324.437 36.9269V32.8083C318.599 32.5114 314.396 31.2777 311.828 29.1071C309.261 26.9179 307.977 23.866 307.977 19.9514C307.977 16.0369 309.251 12.9293 311.801 10.6288C314.369 8.32834 318.581 6.98329 324.437 6.59369V3.19859C324.437 2.73478 324.188 2.42867 323.689 2.28025L320.28 1.19493L320.197 0.0539551C322.599 0.109612 324.834 0.137441 326.903 0.137441C328.973 0.137441 331.189 0.109612 333.554 0.0539551L333.693 1.19493L330.257 2.22459C329.721 2.35446 329.453 2.63274 329.453 3.05945V6.53803C335.383 6.77921 339.604 7.98512 342.117 10.1558C344.648 12.3078 345.913 15.2762 345.913 19.0609ZM329.453 8.51387V30.8325C333.665 30.5913 336.529 29.6173 338.043 27.9104C339.558 26.1851 340.316 23.4393 340.316 19.6732C340.316 16.3523 339.632 13.7549 338.265 11.8811C336.916 9.98878 333.979 8.86636 329.453 8.51387ZM313.574 19.3392C313.574 22.9013 314.341 25.6099 315.874 27.4652C317.426 29.3204 320.28 30.415 324.437 30.749V8.48604C319.985 8.72722 317.057 9.71977 315.653 11.4637C314.267 13.2076 313.574 15.8328 313.574 19.3392Z" fill="white"/>
<path d="M69.3742 70.697V72.1248C69.3742 72.2877 69.4615 72.3941 69.6362 72.4442L70.6744 72.773L70.7025 73.1769C69.9604 73.1581 69.2184 73.1487 68.4763 73.1487C67.7342 73.1487 66.961 73.1581 66.1566 73.1769L66.1191 72.773L67.2697 72.4254C67.4318 72.3753 67.516 72.2783 67.5222 72.1342C67.5347 71.627 67.5409 71.0039 67.5409 70.2649V62.6469C67.5409 62.0207 67.5347 61.501 67.5222 61.0877C67.516 60.9248 67.4411 60.8184 67.2977 60.7683L66.1378 60.4019L66.1191 59.998C66.9236 60.0231 67.6968 60.0356 68.4389 60.0356C69.1872 60.0356 69.9261 60.0231 70.6557 59.998L70.7025 60.4019L69.6362 60.7307C69.4803 60.7683 69.3992 60.8653 69.393 61.0219C69.3805 61.4728 69.3742 62.0019 69.3742 62.6094V69.3444L76.3241 61.9424V61.0219C76.3241 60.8779 76.2368 60.7808 76.0622 60.7307L75.0239 60.4019L74.9959 59.998C75.7566 60.0231 76.5112 60.0356 77.2595 60.0356C78.0015 60.0356 78.7623 60.0231 79.5418 59.998L79.5792 60.4019L78.4006 60.7683C78.2572 60.8184 78.1824 60.9248 78.1761 61.0877C78.1574 61.501 78.1481 62.0207 78.1481 62.6469V70.2649C78.1481 71.0039 78.1574 71.627 78.1761 72.1342C78.1824 72.2783 78.2666 72.3753 78.4287 72.4254L79.5605 72.773L79.5792 73.1769C78.7498 73.1581 77.9641 73.1487 77.222 73.1487C76.48 73.1487 75.7535 73.1581 75.0426 73.1769L74.9959 72.773L76.0622 72.4442C76.2181 72.4004 76.2991 72.2939 76.3054 72.1248L76.3241 70.2649V63.2951L69.3742 70.697Z" fill="white"/>
<path d="M84.6583 66.6485V70.2649C84.6583 71.0039 84.6645 71.6239 84.677 72.1248C84.6832 72.2939 84.7643 72.4004 84.9202 72.4442L85.9585 72.773L85.9865 73.1769C85.2445 73.1581 84.5024 73.1487 83.7603 73.1487C83.0183 73.1487 82.245 73.1581 81.4406 73.1769L81.4032 72.773L82.5537 72.4254C82.7158 72.3753 82.8 72.2783 82.8062 72.1342C82.8187 71.627 82.8249 71.0039 82.8249 70.2649V62.6469C82.8249 62.0207 82.8187 61.501 82.8062 61.0877C82.8 60.9248 82.7252 60.8184 82.5818 60.7683L81.4219 60.4019L81.4032 59.998C82.2076 60.0231 82.9808 60.0356 83.7229 60.0356C84.4712 60.0356 85.2102 60.0231 85.9398 59.998L85.9865 60.4019L84.9202 60.7307C84.7643 60.7683 84.6832 60.8653 84.677 61.0219C84.6645 61.4728 84.6583 62.0019 84.6583 62.6094V65.7937H91.4678V62.6094C91.4678 62.0019 91.4616 61.4728 91.4491 61.0219C91.4429 60.8653 91.3618 60.7683 91.2059 60.7307L90.1676 60.4019L90.1489 59.998C90.9097 60.0231 91.6611 60.0356 92.4032 60.0356C93.1453 60.0356 93.906 60.0231 94.6855 59.998L94.7229 60.4019L93.5444 60.7683C93.4009 60.8184 93.3261 60.9248 93.3199 61.0877C93.3074 61.501 93.3012 62.0207 93.3012 62.6469V70.2649C93.3012 71.0039 93.3074 71.627 93.3199 72.1342C93.3261 72.2783 93.4103 72.3753 93.5724 72.4254L94.7042 72.773L94.7229 73.1769C93.8998 73.1581 93.1141 73.1487 92.3658 73.1487C91.6237 73.1487 90.8972 73.1581 90.1864 73.1769L90.1489 72.773L91.2059 72.4442C91.3618 72.4004 91.4429 72.2939 91.4491 72.1248C91.4616 71.6239 91.4678 71.0039 91.4678 70.2649V66.6485H84.6583Z" fill="white"/>
<path d="M103.927 67.0149H102.646C102.515 67.0149 102.405 67.0274 102.318 67.0524C102.231 67.0775 102.153 67.1182 102.084 67.1745C102.016 67.2309 101.953 67.306 101.897 67.4C101.841 67.4876 101.779 67.5972 101.71 67.7287C101.392 68.2986 101.112 68.8278 100.868 69.3162C100.631 69.7984 100.404 70.2587 100.186 70.697C99.9486 71.173 99.721 71.5957 99.5027 71.9651C99.2844 72.3346 99.0444 72.6227 98.7825 72.8293C98.6702 72.9295 98.558 73.0109 98.4457 73.0736C98.3397 73.1299 98.2181 73.1738 98.0809 73.2051C97.9437 73.2426 97.7847 73.2677 97.6039 73.2802C97.423 73.2927 97.2079 73.299 96.9585 73.299C96.8026 73.299 96.6311 73.2927 96.444 73.2802C96.2632 73.2677 96.0668 73.2489 95.8547 73.2239L95.8267 72.8105C95.9888 72.7667 96.1291 72.726 96.2476 72.6884C96.3661 72.6509 96.4721 72.607 96.5656 72.5569C96.6654 72.5006 96.762 72.4379 96.8556 72.3691C96.9491 72.2939 97.052 72.2 97.1643 72.0873C97.264 71.9745 97.3763 71.8274 97.501 71.6458C97.6257 71.4579 97.7567 71.2481 97.8939 71.0164C98.031 70.7785 98.1713 70.5248 98.3148 70.2556C98.4644 69.98 98.6172 69.6951 98.7731 69.4008C99.06 68.8685 99.3499 68.3268 99.643 67.7757C99.9423 67.2246 100.251 66.7049 100.569 66.2164C100.357 66.0661 100.17 65.8877 100.008 65.681C99.8457 65.4681 99.696 65.2364 99.5588 64.9859C99.4216 64.7291 99.2907 64.4536 99.166 64.1593C99.0475 63.8649 98.9228 63.555 98.7918 63.2293C98.6172 62.791 98.4426 62.4121 98.268 62.0927C98.0996 61.7734 97.9063 61.5104 97.6881 61.3037C97.4761 61.097 97.2266 60.9436 96.9398 60.8434C96.6529 60.737 96.338 60.6775 95.995 60.665L95.9576 60.0826C96.575 60.0325 97.1705 60.0074 97.7442 60.0074C98.0934 60.0074 98.3709 60.0325 98.5767 60.0826C98.7825 60.1264 98.9539 60.2422 99.0911 60.4301C99.2346 60.618 99.3624 60.8998 99.4746 61.2755C99.5931 61.6513 99.7365 62.1679 99.9049 62.8254C100.042 63.3577 100.17 63.8117 100.288 64.1875C100.407 64.5569 100.528 64.8669 100.653 65.1174C100.778 65.3679 100.909 65.5651 101.046 65.7092C101.189 65.8532 101.349 65.9628 101.523 66.0379C101.698 66.1131 101.897 66.1601 102.122 66.1788C102.346 66.1976 102.605 66.207 102.898 66.207H103.927V62.6094C103.927 62.3025 103.924 62.0176 103.918 61.7546C103.918 61.4916 103.915 61.2473 103.908 61.0219C103.902 60.8653 103.821 60.7683 103.665 60.7307L102.627 60.4019L102.599 59.998C102.973 60.0105 103.341 60.0199 103.703 60.0262C104.07 60.0325 104.441 60.0356 104.816 60.0356C105.171 60.0356 105.527 60.0325 105.882 60.0262C106.244 60.0199 106.612 60.0105 106.986 59.998L107.023 60.4019L105.966 60.7307C105.804 60.7683 105.72 60.8653 105.714 61.0219C105.707 61.2473 105.701 61.4916 105.695 61.7546C105.695 62.0176 105.695 62.3025 105.695 62.6094V66.207H106.724C107.017 66.207 107.276 66.1976 107.5 66.1788C107.725 66.1601 107.924 66.1131 108.099 66.0379C108.28 65.9628 108.439 65.8532 108.576 65.7092C108.713 65.5651 108.844 65.3679 108.969 65.1174C109.093 64.8669 109.215 64.5569 109.333 64.1875C109.452 63.8117 109.58 63.3577 109.717 62.8254C109.829 62.3871 109.926 62.0145 110.007 61.7076C110.094 61.3945 110.178 61.1346 110.26 60.928C110.347 60.715 110.434 60.5491 110.521 60.4301C110.615 60.3111 110.724 60.2203 110.849 60.1577C110.974 60.0951 111.117 60.0544 111.279 60.0356C111.447 60.0168 111.65 60.0074 111.887 60.0074C112.405 60.0074 112.985 60.0325 113.627 60.0826L113.674 60.665C113.218 60.69 112.847 60.7651 112.561 60.8904C112.274 61.0156 112.027 61.1878 111.822 61.407C111.616 61.6262 111.435 61.8892 111.279 62.1961C111.129 62.5029 110.98 62.8473 110.83 63.2293C110.712 63.5237 110.59 63.8149 110.465 64.1029C110.341 64.391 110.207 64.6665 110.063 64.9295C109.92 65.1863 109.764 65.4242 109.595 65.6434C109.427 65.8626 109.24 66.0473 109.034 66.1976C109.352 66.6736 109.661 67.1933 109.96 67.7569C110.266 68.3205 110.562 68.8685 110.849 69.4008C111.011 69.6951 111.167 69.9769 111.316 70.2462C111.466 70.5154 111.606 70.7691 111.737 71.007C111.875 71.2387 112.002 71.4485 112.121 71.6364C112.246 71.818 112.361 71.9683 112.467 72.0873C112.567 72.2 112.663 72.2939 112.757 72.3691C112.851 72.4379 112.947 72.5006 113.047 72.5569C113.153 72.607 113.262 72.6509 113.374 72.6884C113.493 72.726 113.624 72.7636 113.767 72.8012L113.795 73.2145C113.352 73.2708 112.978 73.299 112.673 73.299C112.417 73.299 112.199 73.2927 112.018 73.2802C111.837 73.2677 111.678 73.2426 111.541 73.2051C111.404 73.1738 111.279 73.1299 111.167 73.0736C111.061 73.0109 110.952 72.9295 110.839 72.8293C110.578 72.6227 110.337 72.3346 110.119 71.9651C109.901 71.5957 109.673 71.173 109.436 70.697C109.224 70.2587 108.997 69.7984 108.754 69.3162C108.517 68.8278 108.239 68.2986 107.921 67.7287C107.846 67.5972 107.778 67.4876 107.715 67.4C107.659 67.306 107.597 67.2309 107.528 67.1745C107.466 67.1182 107.391 67.0775 107.304 67.0524C107.223 67.0274 107.117 67.0149 106.986 67.0149H105.695V70.2649C105.695 70.6407 105.695 70.9788 105.695 71.2794C105.701 71.58 105.707 71.8524 105.714 72.0967C105.72 72.297 105.804 72.4192 105.966 72.463L107.004 72.773L107.023 73.1769C106.281 73.1581 105.545 73.1487 104.816 73.1487C103.843 73.1487 103.119 73.1581 102.646 73.1769L102.599 72.773L103.665 72.463C103.815 72.4192 103.896 72.297 103.908 72.0967C103.915 71.8524 103.918 71.58 103.918 71.2794C103.924 70.9788 103.927 70.6407 103.927 70.2649V67.0149Z" fill="white"/>
<path d="M117.228 60.0356H119.501C120.898 60.0356 122.373 60.0231 123.925 59.998L123.981 60.0732L123.439 62.9757L123.065 63.0415L122.485 60.8716H118.163V66.0379H119.015C119.663 66.0379 120.387 66.0317 121.185 66.0192C121.347 66.0129 121.453 65.9315 121.503 65.7749L121.83 64.5068L122.335 64.488C122.317 65.3648 122.307 66.0129 122.307 66.4325C122.307 66.8395 122.317 67.4783 122.335 68.3487L121.83 68.3863L121.493 67.0994C121.443 66.9366 121.347 66.852 121.203 66.8458C120.393 66.8332 119.66 66.827 119.005 66.827H118.163V70.2462C118.163 70.9413 118.17 71.627 118.182 72.3033H122.672L123.813 69.9174L124.234 69.8422L124.028 73.1111L123.963 73.1769C122.348 73.1581 120.857 73.1487 119.492 73.1487H117.265C116.511 73.1487 115.738 73.1581 114.946 73.1769L114.908 72.773L116.059 72.4254C116.215 72.3816 116.299 72.2845 116.311 72.1342C116.318 71.8837 116.321 71.6051 116.321 71.2982C116.327 70.9851 116.33 70.6407 116.33 70.2649V62.6469C116.33 62.3276 116.327 62.0395 116.321 61.7828C116.321 61.526 116.318 61.2943 116.311 61.0877C116.305 60.9248 116.23 60.8184 116.087 60.7683L114.927 60.4019L114.908 59.998C115.713 60.0231 116.486 60.0356 117.228 60.0356Z" fill="white"/>
<path d="M129.294 66.6485V70.2649C129.294 71.0039 129.301 71.6239 129.313 72.1248C129.319 72.2939 129.4 72.4004 129.556 72.4442L130.595 72.773L130.623 73.1769C129.881 73.1581 129.139 73.1487 128.396 73.1487C127.654 73.1487 126.881 73.1581 126.077 73.1769L126.039 72.773L127.19 72.4254C127.352 72.3753 127.436 72.2783 127.442 72.1342C127.455 71.627 127.461 71.0039 127.461 70.2649V62.6469C127.461 62.0207 127.455 61.501 127.442 61.0877C127.436 60.9248 127.361 60.8184 127.218 60.7683L126.058 60.4019L126.039 59.998C126.844 60.0231 127.617 60.0356 128.359 60.0356C129.107 60.0356 129.846 60.0231 130.576 59.998L130.623 60.4019L129.556 60.7307C129.4 60.7683 129.319 60.8653 129.313 61.0219C129.301 61.4728 129.294 62.0019 129.294 62.6094V65.7937H136.104V62.6094C136.104 62.0019 136.098 61.4728 136.085 61.0219C136.079 60.8653 135.998 60.7683 135.842 60.7307L134.804 60.4019L134.785 59.998C135.546 60.0231 136.297 60.0356 137.039 60.0356C137.781 60.0356 138.542 60.0231 139.322 59.998L139.359 60.4019L138.18 60.7683C138.037 60.8184 137.962 60.9248 137.956 61.0877C137.944 61.501 137.937 62.0207 137.937 62.6469V70.2649C137.937 71.0039 137.944 71.627 137.956 72.1342C137.962 72.2783 138.046 72.3753 138.209 72.4254L139.34 72.773L139.359 73.1769C138.536 73.1581 137.75 73.1487 137.002 73.1487C136.26 73.1487 135.533 73.1581 134.822 73.1769L134.785 72.773L135.842 72.4442C135.998 72.4004 136.079 72.2939 136.085 72.1248C136.098 71.6239 136.104 71.0039 136.104 70.2649V66.6485H129.294Z" fill="white"/>
<path d="M143.512 60.0356H145.785C147.182 60.0356 148.657 60.0231 150.209 59.998L150.266 60.0732L149.723 62.9757L149.349 63.0415L148.769 60.8716H144.447V66.0379H145.299C145.947 66.0379 146.671 66.0317 147.469 66.0192C147.631 66.0129 147.737 65.9315 147.787 65.7749L148.114 64.5068L148.619 64.488C148.601 65.3648 148.591 66.0129 148.591 66.4325C148.591 66.8395 148.601 67.4783 148.619 68.3487L148.114 68.3863L147.777 67.0994C147.728 66.9366 147.631 66.852 147.487 66.8458C146.677 66.8332 145.944 66.827 145.289 66.827H144.447V70.2462C144.447 70.9413 144.454 71.627 144.466 72.3033H148.956L150.097 69.9174L150.518 69.8422L150.312 73.1111L150.247 73.1769C148.632 73.1581 147.141 73.1487 145.776 73.1487H143.55C142.795 73.1487 142.022 73.1581 141.23 73.1769L141.192 72.773L142.343 72.4254C142.499 72.3816 142.583 72.2845 142.595 72.1342C142.602 71.8837 142.605 71.6051 142.605 71.2982C142.611 70.9851 142.614 70.6407 142.614 70.2649V62.6469C142.614 62.3276 142.611 62.0395 142.605 61.7828C142.605 61.526 142.602 61.2943 142.595 61.0877C142.589 60.9248 142.514 60.8184 142.371 60.7683L141.211 60.4019L141.192 59.998C141.997 60.0231 142.77 60.0356 143.512 60.0356Z" fill="white"/>
<path d="M155.578 66.7988C156.015 66.874 156.445 66.9115 156.869 66.9115C157.867 66.9115 158.625 66.6548 159.142 66.1413C159.666 65.6215 159.928 64.8293 159.928 63.7648C159.928 62.744 159.679 61.9831 159.18 61.4822C158.687 60.9812 157.908 60.7307 156.841 60.7307C156.423 60.7307 156.002 60.7558 155.578 60.8059V66.7988ZM155.578 70.2649C155.578 70.6407 155.578 70.9788 155.578 71.2794C155.585 71.58 155.591 71.8493 155.597 72.0873C155.603 72.2313 155.684 72.3284 155.84 72.3785L157.131 72.773L157.15 73.1769C156.246 73.1581 155.423 73.1487 154.68 73.1487C153.926 73.1487 153.153 73.1581 152.361 73.1769L152.323 72.773L153.474 72.4254C153.636 72.3753 153.72 72.2783 153.726 72.1342C153.733 71.8837 153.736 71.6051 153.736 71.2982C153.742 70.9851 153.745 70.6407 153.745 70.2649V62.6469C153.745 62.3276 153.742 62.0395 153.736 61.7828C153.736 61.526 153.733 61.2943 153.726 61.0877C153.72 60.9248 153.645 60.8184 153.502 60.7683L152.342 60.4019L152.323 59.998C153.128 60.0231 153.91 60.0356 154.671 60.0356C155.182 60.0356 155.675 60.0231 156.149 59.998C156.629 59.973 157.066 59.9604 157.459 59.9604C158.924 59.9604 160.031 60.2516 160.779 60.834C161.534 61.4102 161.911 62.2712 161.911 63.4172C161.911 64.7636 161.478 65.8094 160.611 66.5546C159.744 67.2998 158.528 67.6724 156.963 67.6724C156.533 67.6724 156.071 67.6442 155.578 67.5878V70.2649Z" fill="white"/>
<path d="M166.333 66.6493V70.2657C166.333 71.0047 166.339 71.6246 166.352 72.1256C166.358 72.2947 166.439 72.4011 166.595 72.445L167.633 72.7737L167.661 73.1777C166.919 73.1589 166.177 73.1495 165.435 73.1495C164.693 73.1495 163.92 73.1589 163.116 73.1777L163.078 72.7737L164.229 72.4262C164.391 72.3761 164.475 72.279 164.481 72.135C164.494 71.6278 164.5 71.0047 164.5 70.2657V62.6477C164.5 62.0215 164.494 61.5017 164.481 61.0884C164.475 60.9256 164.4 60.8191 164.257 60.769L163.097 60.4027L163.078 59.9988C163.883 60.0238 164.656 60.0363 165.398 60.0363C166.146 60.0363 166.885 60.0238 167.615 59.9988L167.661 60.4027L166.595 60.7315C166.439 60.769 166.358 60.8661 166.352 61.0227C166.339 61.4735 166.333 62.0027 166.333 62.6101V65.7945H173.143V62.6101C173.143 62.0027 173.137 61.4735 173.124 61.0227C173.118 60.8661 173.037 60.769 172.881 60.7315L171.843 60.4027L171.824 59.9988C172.585 60.0238 173.336 60.0363 174.078 60.0363C174.82 60.0363 175.581 60.0238 176.36 59.9988L176.398 60.4027L175.219 60.769C175.076 60.8191 175.001 60.9256 174.995 61.0884C174.982 61.5017 174.976 62.0215 174.976 62.6477V70.2657C174.976 71.0047 174.982 71.6278 174.995 72.135C175.001 72.279 175.085 72.3761 175.247 72.4262L176.379 72.7737L176.398 73.1777C175.575 73.1589 174.789 73.1495 174.041 73.1495C173.299 73.1495 172.572 73.1589 171.861 73.1777L171.824 72.7737L172.881 72.445C173.037 72.4011 173.118 72.2947 173.124 72.1256C173.137 71.6246 173.143 71.0047 173.143 70.2657V66.6493H166.333Z" fill="white"/>
<path d="M184.367 59.8015L188.52 71.2896C188.676 71.7217 188.817 72.016 188.941 72.1726C189.072 72.3229 189.256 72.4356 189.493 72.5107L190.372 72.7737L190.391 73.1777C189.574 73.1589 188.817 73.1495 188.118 73.1495C187.407 73.1495 186.569 73.1589 185.602 73.1777L185.565 72.7737L186.453 72.5107C186.578 72.4669 186.665 72.4199 186.715 72.3698C186.771 72.3135 186.799 72.2289 186.799 72.1162C186.799 71.991 186.765 71.8281 186.696 71.6278C186.634 71.4211 186.544 71.1487 186.425 70.8105L185.546 68.2931H181.037L180.055 70.8011C179.924 71.1518 179.821 71.4305 179.747 71.6371C179.672 71.8438 179.634 72.0066 179.634 72.1256C179.634 72.2321 179.662 72.3135 179.718 72.3698C179.781 72.4199 179.871 72.4638 179.99 72.5013L180.86 72.755L180.878 73.1777C179.993 73.1589 179.269 73.1495 178.708 73.1495C178.147 73.1495 177.52 73.1589 176.828 73.1777L176.781 72.7737L177.726 72.4826C177.963 72.4074 178.138 72.2916 178.25 72.135C178.362 71.9784 178.487 71.7342 178.624 71.4023L183.404 59.9424L184.367 59.8015ZM181.383 67.4383H185.237L183.413 62.2626L181.383 67.4383Z" fill="white"/>
<path d="M197.191 67.1941C197.054 67.1941 196.939 67.2066 196.845 67.2317C196.758 67.2504 196.68 67.288 196.611 67.3444C196.543 67.4007 196.477 67.4759 196.415 67.5698C196.359 67.6575 196.293 67.7671 196.218 67.8986C196 68.2806 195.791 68.6688 195.592 69.0634C195.398 69.4516 195.196 69.8336 194.984 70.2094C194.672 70.7917 194.37 71.3178 194.076 71.7874C193.79 72.2571 193.503 72.6047 193.216 72.8301C193.097 72.924 192.979 73.0023 192.86 73.0649C192.742 73.1276 192.608 73.1745 192.458 73.2058C192.309 73.2434 192.137 73.2685 191.944 73.281C191.751 73.2935 191.526 73.2998 191.27 73.2998C190.959 73.2998 190.609 73.2747 190.223 73.2246L190.195 72.8113C190.357 72.7675 190.503 72.7268 190.634 72.6892C190.765 72.6516 190.887 72.6078 190.999 72.5577C191.111 72.5076 191.217 72.4481 191.317 72.3792C191.423 72.3041 191.535 72.207 191.654 72.088C191.866 71.8751 192.09 71.5714 192.327 71.1769C192.564 70.7824 192.832 70.3283 193.132 69.8148C193.375 69.3953 193.628 68.9444 193.889 68.4622C194.158 67.9737 194.457 67.4602 194.787 66.9217C192.935 66.427 192.009 65.3185 192.009 63.5964C192.009 62.4442 192.44 61.5487 193.3 60.9099C194.161 60.2712 195.28 59.9518 196.658 59.9518C197.026 59.9518 197.428 59.9675 197.865 59.9988C198.301 60.0238 198.772 60.0363 199.277 60.0363C199.976 60.0363 200.746 60.0238 201.588 59.9988L201.625 60.4121L200.446 60.7784C200.309 60.8285 200.234 60.9381 200.222 61.1072C200.216 61.3264 200.209 61.5643 200.203 61.8211C200.203 62.0778 200.203 62.369 200.203 62.6947V70.2657C200.203 70.6415 200.203 70.9796 200.203 71.2802C200.209 71.5808 200.216 71.8626 200.222 72.1256C200.228 72.2759 200.312 72.3761 200.474 72.4262L201.606 72.7737L201.625 73.1777C200.827 73.1589 200.041 73.1495 199.268 73.1495C198.501 73.1495 197.771 73.1589 197.079 73.1777L197.042 72.7737L198.108 72.445C198.258 72.4011 198.339 72.2822 198.351 72.088C198.357 71.8501 198.361 71.5808 198.361 71.2802C198.367 70.9796 198.37 70.6415 198.37 70.2657V67.1941H197.191ZM198.37 60.7972C197.908 60.7471 197.487 60.7221 197.107 60.7221C196.028 60.7221 195.236 60.9506 194.731 61.4078C194.232 61.8587 193.983 62.5726 193.983 63.5495C193.983 64.5765 194.26 65.3279 194.815 65.8039C195.377 66.2798 196.228 66.5178 197.369 66.5178C197.756 66.5178 198.089 66.5146 198.37 66.5084V60.7972Z" fill="white"/>
<path d="M211.559 72.1256C211.565 72.2947 211.646 72.4011 211.802 72.445L212.84 72.7737L212.868 73.1777C212.126 73.1589 211.384 73.1495 210.642 73.1495C209.9 73.1495 209.127 73.1589 208.322 73.1777L208.285 72.7737L209.435 72.4262C209.597 72.3761 209.682 72.279 209.688 72.135C209.7 71.6278 209.707 71.0047 209.707 70.2657V62.6477C209.707 62.0215 209.7 61.5017 209.688 61.0884C209.682 60.9256 209.607 60.8191 209.463 60.769L208.304 60.4027L208.285 59.9988C209.089 60.0238 209.863 60.0363 210.605 60.0363H218.901C219.643 60.0363 220.404 60.0238 221.184 59.9988L221.221 60.4027L220.043 60.769C219.899 60.8191 219.824 60.9256 219.818 61.0884C219.806 61.5017 219.799 62.0215 219.799 62.6477V70.2657C219.799 71.0047 219.806 71.6278 219.818 72.135C219.824 72.279 219.908 72.3761 220.071 72.4262L221.202 72.7737L221.221 73.1777C220.398 73.1589 219.612 73.1495 218.864 73.1495C218.122 73.1495 217.395 73.1589 216.685 73.1777L216.647 72.7737L217.704 72.445C217.86 72.4011 217.941 72.2947 217.947 72.1256C217.966 71.6246 217.975 71.0047 217.975 70.2657V60.8911H211.54V70.2657C211.54 71.0047 211.546 71.6246 211.559 72.1256Z" fill="white"/>
<path d="M225.374 60.0363H227.647C229.044 60.0363 230.519 60.0238 232.071 59.9988L232.128 60.0739L231.585 62.9765L231.211 63.0422L230.631 60.8724H226.31V66.0387H227.161C227.809 66.0387 228.533 66.0324 229.331 66.0199C229.493 66.0137 229.599 65.9322 229.649 65.7757L229.976 64.5076L230.481 64.4888C230.463 65.3655 230.453 66.0137 230.453 66.4332C230.453 66.8403 230.463 67.479 230.481 68.3495L229.976 68.387L229.639 67.1002C229.59 66.9373 229.493 66.8528 229.35 66.8465C228.539 66.834 227.806 66.8277 227.151 66.8277H226.31V70.2469C226.31 70.942 226.316 71.6278 226.328 72.3041H230.818L231.959 69.9182L232.38 69.843L232.174 73.1119L232.109 73.1777C230.494 73.1589 229.003 73.1495 227.638 73.1495H225.412C224.657 73.1495 223.884 73.1589 223.092 73.1777L223.054 72.7737L224.205 72.4262C224.361 72.3824 224.445 72.2853 224.457 72.135C224.464 71.8845 224.467 71.6058 224.467 71.299C224.473 70.9859 224.476 70.6415 224.476 70.2657V62.6477C224.476 62.3283 224.473 62.0403 224.467 61.7835C224.467 61.5268 224.464 61.2951 224.457 61.0884C224.451 60.9256 224.376 60.8191 224.233 60.769L223.073 60.4027L223.054 59.9988C223.859 60.0238 224.632 60.0363 225.374 60.0363Z" fill="white"/>
<path d="M236.426 62.6101V63.8876C236.426 64.8332 236.644 65.4939 237.081 65.8696C237.524 66.2454 238.181 66.4332 239.054 66.4332C239.934 66.4332 240.807 66.2642 241.673 65.926V62.6101C241.673 62.0027 241.667 61.4735 241.655 61.0227C241.649 60.8661 241.567 60.769 241.412 60.7315L240.373 60.4027L240.355 59.9988C241.109 60.0238 241.861 60.0363 242.609 60.0363C243.351 60.0363 244.112 60.0238 244.891 59.9988L244.929 60.4027L243.75 60.769C243.607 60.8191 243.532 60.9256 243.526 61.0884C243.513 61.5017 243.507 62.0215 243.507 62.6477V70.2657C243.507 71.0047 243.513 71.6278 243.526 72.135C243.532 72.279 243.616 72.3761 243.778 72.4262L244.91 72.7738L244.929 73.1777C244.105 73.1589 243.32 73.1495 242.571 73.1495C241.829 73.1495 241.037 73.1589 240.196 73.1777L240.158 72.7738L241.412 72.3886C241.567 72.3385 241.649 72.2321 241.655 72.0693C241.667 71.6058 241.673 71.0047 241.673 70.2657V66.762C240.37 67.3506 239.151 67.645 238.016 67.645C236.875 67.645 236.018 67.3726 235.444 66.8278C234.876 66.2767 234.593 65.4501 234.593 64.3479V62.6477C234.593 62.0215 234.586 61.5017 234.574 61.0884C234.568 60.9256 234.493 60.8191 234.349 60.769L233.19 60.4027L233.171 59.9988C233.975 60.0238 234.749 60.0363 235.491 60.0363C236.233 60.0363 236.94 60.0238 237.614 59.9988L237.651 60.4027L236.688 60.7315C236.532 60.769 236.451 60.8661 236.445 61.0227C236.432 61.4735 236.426 62.0027 236.426 62.6101Z" fill="white"/>
<path d="M252.898 59.8015L257.051 71.2896C257.207 71.7217 257.347 72.016 257.472 72.1726C257.603 72.3229 257.787 72.4356 258.024 72.5107L258.903 72.7738L258.922 73.1777C258.105 73.1589 257.347 73.1495 256.649 73.1495C255.938 73.1495 255.099 73.1589 254.133 73.1777L254.095 72.7738L254.984 72.5107C255.109 72.4669 255.196 72.4199 255.246 72.3698C255.302 72.3135 255.33 72.2289 255.33 72.1162C255.33 71.991 255.296 71.8282 255.227 71.6278C255.165 71.4211 255.074 71.1487 254.956 70.8105L254.077 68.2931H249.568L248.586 70.8011C248.455 71.1518 248.352 71.4305 248.277 71.6372C248.202 71.8438 248.165 72.0066 248.165 72.1256C248.165 72.2321 248.193 72.3135 248.249 72.3698C248.312 72.4199 248.402 72.4638 248.52 72.5013L249.39 72.755L249.409 73.1777C248.524 73.1589 247.8 73.1495 247.239 73.1495C246.678 73.1495 246.051 73.1589 245.359 73.1777L245.312 72.7738L246.257 72.4826C246.494 72.4074 246.668 72.2916 246.781 72.135C246.893 71.9784 247.018 71.7342 247.155 71.4023L251.935 59.9424L252.898 59.8015ZM249.914 67.4383H253.768L251.944 62.2626L249.914 67.4383Z" fill="white"/>
<path d="M263.725 73.1487C262.958 73.1487 262.11 73.1581 261.181 73.1769L261.144 72.773L262.528 72.3597C262.684 72.3158 262.765 72.2188 262.771 72.0685C262.784 71.5925 262.79 70.9851 262.79 70.2462V60.8716H259.488L258.655 63.3702L258.281 63.436L258.038 60.0732L258.104 59.998C259.638 60.0231 261.106 60.0356 262.509 60.0356H265.007C266.403 60.0356 267.878 60.0231 269.431 59.998L269.487 60.0732L268.898 63.3702L268.524 63.436L267.925 60.8716H264.623V70.2462C264.623 70.9851 264.629 71.5925 264.642 72.0685C264.648 72.2188 264.729 72.3158 264.885 72.3597L266.269 72.773L266.288 73.1769C265.322 73.1581 264.467 73.1487 263.725 73.1487Z" fill="white"/>
<path d="M273.752 62.6094V65.6998C274.264 65.6497 274.772 65.6246 275.277 65.6246C276.936 65.6246 278.18 65.9346 279.009 66.5546C279.839 67.1683 280.253 68.0419 280.253 69.1753C280.253 69.9017 280.116 70.5217 279.842 71.0352C279.567 71.5487 279.196 71.9651 278.729 72.2845C278.261 72.6039 277.715 72.8387 277.092 72.989C276.474 73.133 275.823 73.2051 275.137 73.2051C274.819 73.2051 274.473 73.1957 274.098 73.1769C273.731 73.1581 273.316 73.1487 272.854 73.1487C272.1 73.1487 271.327 73.1581 270.535 73.1769L270.497 72.773L271.648 72.4254C271.804 72.3816 271.888 72.2845 271.9 72.1342C271.907 71.8837 271.91 71.6051 271.91 71.2982C271.916 70.9851 271.919 70.6407 271.919 70.2649V62.647C271.919 62.3276 271.916 62.0395 271.91 61.7828C271.91 61.526 271.907 61.2943 271.9 61.0877C271.894 60.9249 271.819 60.8184 271.676 60.7683L270.516 60.402L270.497 59.998C271.302 60.0231 272.075 60.0356 272.817 60.0356C273.565 60.0356 274.37 60.0231 275.23 59.998L275.277 60.402L274.014 60.7777C273.858 60.8341 273.777 60.9311 273.771 61.0689C273.765 61.2881 273.759 61.5292 273.752 61.7922C273.752 62.0489 273.752 62.3213 273.752 62.6094ZM273.752 66.4606V72.3127C274.083 72.4191 274.519 72.4724 275.062 72.4724C276.11 72.4724 276.898 72.2125 277.428 71.6927C277.965 71.1667 278.233 70.3996 278.233 69.3914C278.233 68.3769 277.952 67.6286 277.391 67.1464C276.836 66.6579 275.966 66.4137 274.781 66.4137C274.632 66.4137 274.47 66.4199 274.295 66.4325C274.127 66.4387 273.946 66.4481 273.752 66.4606Z" fill="white"/>
<path d="M58.1104 71.7192L0.769531 69.4771L58.1104 66.7368V71.7192Z" fill="#CB000D"/>
<path d="M288.3 71.7192L345.65 69.4771L288.3 66.7368V71.7192Z" fill="#CB000D"/>
</svg>
