<svg width="56" height="56" viewBox="0 0 56 56" fill="none" xmlns="http://www.w3.org/2000/svg">
<path d="M33.943 32.5386C33.7077 33.7899 34.3534 34.2247 35.3509 34.7462V30.8805C34.9878 31.0029 34.6648 31.222 34.4168 31.5141C34.1687 31.8062 34.005 32.1604 33.943 32.5386Z" fill="#EFD6AC"/>
<path d="M37.1008 37.3773V42.4908C37.6094 42.3278 38.0632 42.028 38.4128 41.6242C38.7623 41.2205 38.9941 40.7284 39.0827 40.2018C39.3461 38.6408 38.4265 37.8577 37.1008 37.3773Z" fill="#EFD6AC"/>
<path d="M36.3125 18.375C32.6783 18.375 29.1257 19.4527 26.1039 21.4717C23.0822 23.4908 20.727 26.3606 19.3362 29.7182C17.9455 33.0758 17.5816 36.7704 18.2906 40.3348C18.9996 43.8992 20.7496 47.1733 23.3194 49.7431C25.8892 52.3129 29.1633 54.0629 32.7277 54.7719C36.2921 55.4809 39.9867 55.1171 43.3443 53.7263C46.7019 52.3355 49.5717 49.9804 51.5908 46.9586C53.6098 43.9368 54.6875 40.3842 54.6875 36.75C54.6822 31.8783 52.7445 27.2076 49.2997 23.7628C45.8549 20.318 41.1842 18.3803 36.3125 18.375ZM36.3125 51.625C33.3705 51.625 30.4946 50.7526 28.0484 49.1181C25.6022 47.4836 23.6957 45.1605 22.5698 42.4424C21.4439 39.7244 21.1494 36.7335 21.7233 33.848C22.2973 30.9626 23.714 28.3121 25.7943 26.2318C27.8746 24.1515 30.5251 22.7348 33.4105 22.1608C36.296 21.5869 39.2869 21.8814 42.0049 23.0073C44.723 24.1331 47.0461 26.0397 48.6806 28.4859C50.3151 30.9321 51.1875 33.808 51.1875 36.75C51.1831 40.6937 49.6145 44.4747 46.8259 47.2634C44.0372 50.052 40.2563 51.6206 36.3125 51.625Z" fill="#EFD6AC"/>
<path d="M36.3125 23.625C33.7166 23.625 31.179 24.3948 29.0206 25.837C26.8622 27.2792 25.18 29.329 24.1866 31.7273C23.1932 34.1256 22.9333 36.7646 23.4397 39.3106C23.9461 41.8566 25.1962 44.1952 27.0317 46.0308C28.8673 47.8663 31.2059 49.1164 33.7519 49.6228C36.2979 50.1292 38.9369 49.8693 41.3352 48.8759C43.7335 47.8825 45.7833 46.2003 47.2255 44.0419C48.6677 41.8835 49.4375 39.3459 49.4375 36.75C49.4335 33.2702 48.0495 29.9341 45.5889 27.4736C43.1284 25.013 39.7922 23.6289 36.3125 23.625ZM40.8091 40.4924C40.6565 41.431 40.2187 42.2999 39.5551 42.981C38.8915 43.6621 38.0343 44.1225 37.1 44.2995V45.5C37.1 45.7321 37.0078 45.9546 36.8437 46.1187C36.6796 46.2828 36.4571 46.375 36.225 46.375C35.9929 46.375 35.7704 46.2828 35.6063 46.1187C35.4422 45.9546 35.35 45.7321 35.35 45.5V44.3704C34.1973 44.3356 33.0819 43.9541 32.1492 43.2757C32.0512 43.2137 31.9665 43.1329 31.9 43.0378C31.8335 42.9427 31.7866 42.8354 31.7619 42.7221C31.7373 42.6087 31.7354 42.4916 31.7565 42.3775C31.7775 42.2634 31.821 42.1547 31.8845 42.0576C31.948 41.9605 32.0301 41.8769 32.1261 41.8119C32.2222 41.7468 32.3302 41.7015 32.4439 41.6785C32.5576 41.6556 32.6747 41.6555 32.7885 41.6782C32.9023 41.701 33.0103 41.7461 33.1065 41.811C33.7555 42.3011 34.5376 42.5836 35.35 42.6212V36.687C33.1975 35.7367 31.7625 34.6518 32.2227 32.214C32.3575 31.4326 32.7301 30.7119 33.2899 30.1503C33.8496 29.5887 34.5691 29.2136 35.35 29.0762V28C35.35 27.7679 35.4422 27.5454 35.6063 27.3813C35.7704 27.2172 35.9929 27.125 36.225 27.125C36.4571 27.125 36.6796 27.2172 36.8437 27.3813C37.0078 27.5454 37.1 27.7679 37.1 28V29.0106C38.0245 29.1273 38.8965 29.5052 39.6139 30.1C39.7793 30.2581 39.8761 30.4747 39.8838 30.7033C39.8914 30.932 39.8092 31.1545 39.6547 31.3233C39.5003 31.4921 39.2858 31.5936 39.0574 31.6062C38.829 31.6188 38.6047 31.5414 38.4326 31.3906C38.0446 31.082 37.5877 30.8718 37.1009 30.7781V35.5075C37.4062 35.6239 37.7134 35.7359 38.0126 35.8418C38.9704 36.1354 39.7858 36.7727 40.302 37.6312C40.8182 38.4897 40.9988 39.5087 40.8091 40.4924Z" fill="#EFD6AC"/>
<path d="M42.4375 11.375H29.3125V3.5C29.3125 2.80381 29.0359 2.13613 28.5437 1.64384C28.0514 1.15156 27.3837 0.875 26.6875 0.875H3.9375C3.24131 0.875 2.57363 1.15156 2.08134 1.64384C1.58906 2.13613 1.3125 2.80381 1.3125 3.5V42C1.3125 42.6962 1.58906 43.3639 2.08134 43.8562C2.57363 44.3484 3.24131 44.625 3.9375 44.625H26.6875C27.3837 44.625 28.0514 44.3484 28.5437 43.8562C29.0359 43.3639 29.3125 42.6962 29.3125 42V34.125H42.4375C43.1337 34.125 43.8014 33.8484 44.2937 33.3562C44.7859 32.8639 45.0625 32.1962 45.0625 31.5V14C45.0625 13.3038 44.7859 12.6361 44.2937 12.1438C43.8014 11.6516 43.1337 11.375 42.4375 11.375ZM43.3125 14V15.75H12.6875V14C12.6875 13.7679 12.7797 13.5454 12.9438 13.3813C13.1079 13.2172 13.3304 13.125 13.5625 13.125H42.4375C42.6696 13.125 42.8921 13.2172 43.0562 13.3813C43.2203 13.5454 43.3125 13.7679 43.3125 14ZM43.3125 19.25H12.6875V17.5H43.3125V19.25ZM3.9375 2.625H26.6875C26.9196 2.625 27.1421 2.71719 27.3062 2.88128C27.4703 3.04538 27.5625 3.26794 27.5625 3.5V5.25H3.0625V3.5C3.0625 3.26794 3.15469 3.04538 3.31878 2.88128C3.48288 2.71719 3.70544 2.625 3.9375 2.625ZM26.6875 42.875H3.9375C3.70544 42.875 3.48288 42.7828 3.31878 42.6187C3.15469 42.4546 3.0625 42.2321 3.0625 42V40.25H27.5625V42C27.5625 42.2321 27.4703 42.4546 27.3062 42.6187C27.1421 42.7828 26.9196 42.875 26.6875 42.875ZM27.5625 38.5H3.0625V7H27.5625V11.375H13.5625C12.8663 11.375 12.1986 11.6516 11.7063 12.1438C11.2141 12.6361 10.9375 13.3038 10.9375 14V31.5C10.9375 32.1962 11.2141 32.8639 11.7063 33.3562C12.1986 33.8484 12.8663 34.125 13.5625 34.125H27.5625V38.5ZM42.4375 32.375H13.5625C13.3304 32.375 13.1079 32.2828 12.9438 32.1187C12.7797 31.9546 12.6875 31.7321 12.6875 31.5V21H43.3125V31.5C43.3125 31.7321 43.2203 31.9546 43.0562 32.1187C42.8921 32.2828 42.6696 32.375 42.4375 32.375Z" fill="#183A37"/>
<path d="M27.5625 23.625H15.3125C15.0804 23.625 14.8579 23.7172 14.6938 23.8813C14.5297 24.0454 14.4375 24.2679 14.4375 24.5C14.4375 24.7321 14.5297 24.9546 14.6938 25.1187C14.8579 25.2828 15.0804 25.375 15.3125 25.375H27.5625C27.7946 25.375 28.0171 25.2828 28.1812 25.1187C28.3453 24.9546 28.4375 24.7321 28.4375 24.5C28.4375 24.2679 28.3453 24.0454 28.1812 23.8813C28.0171 23.7172 27.7946 23.625 27.5625 23.625Z" fill="#183A37"/>
<path d="M40.8684 26.5064L37.3684 23.0064C37.2044 22.8424 36.9818 22.7502 36.7498 22.7502C36.5178 22.7502 36.2953 22.8424 36.1312 23.0064L32.6312 26.5064C32.4672 26.6705 32.375 26.893 32.375 27.1251C32.375 27.3571 32.4672 27.5796 32.6312 27.7437L36.1312 31.2437C36.2953 31.4077 36.5178 31.4999 36.7498 31.4999C36.9818 31.4999 37.2044 31.4077 37.3684 31.2437L40.8684 27.7437C41.0325 27.5796 41.1246 27.3571 41.1246 27.1251C41.1246 26.893 41.0325 26.6705 40.8684 26.5064ZM36.7498 29.3878L34.4871 27.1251L36.7498 24.8623L39.0126 27.1251L36.7498 29.3878Z" fill="#183A37"/>
</svg>
