<svg width="22" height="22" viewBox="0 0 22 22" fill="none" xmlns="http://www.w3.org/2000/svg">
<g clip-path="url(#clip0)">
<path d="M18.7817 3.2198C14.4897 -1.07131 7.50963 -1.07131 3.21762 3.2198C-1.07254 7.51091 -1.07254 14.4927 3.21762 18.7838C5.36363 20.9289 8.18185 22.001 11.0001 22.001C13.8184 22.001 16.6357 20.9289 18.7817 18.7838C23.0728 14.4928 23.0728 7.51091 18.7817 3.2198ZM15.5388 14.2442C15.8974 14.6028 15.8974 15.1824 15.5388 15.541C15.36 15.7198 15.1252 15.8097 14.8904 15.8097C14.6556 15.8097 14.4208 15.7198 14.242 15.541L11.0001 12.2981L7.75906 15.54C7.57932 15.7189 7.34451 15.8088 7.11065 15.8088C6.87589 15.8088 6.64109 15.7189 6.46225 15.54C6.10368 15.1815 6.10368 14.6009 6.46225 14.2433L9.70327 11.0013L6.46135 7.75942C6.10278 7.40085 6.10278 6.82033 6.46135 6.46266C6.81902 6.10409 7.39954 6.10409 7.75811 6.46266L11 9.70459L14.242 6.46266C14.6005 6.10409 15.1801 6.10409 15.5387 6.46266C15.8973 6.82033 15.8973 7.40085 15.5387 7.75942L12.2968 11.0013L15.5388 14.2442Z" fill="#432534"/>
</g>
<defs>
<clipPath id="clip0">
<rect width="22" height="22" fill="white"/>
</clipPath>
</defs>
</svg>
