<svg width="170" height="56" viewBox="0 0 170 56" fill="none" xmlns="http://www.w3.org/2000/svg">
<path d="M19.5521 30.5662C19.4989 30.5114 19.4352 30.4679 19.3649 30.4385C19.2946 30.409 19.2191 30.3941 19.1429 30.3947C19.0671 30.3942 18.9919 30.4089 18.9217 30.4377C18.8515 30.4665 18.7876 30.5089 18.7338 30.5626C18.6524 30.6439 18.5969 30.7477 18.5743 30.8607C18.5518 30.9738 18.5631 31.091 18.6069 31.1976C18.6507 31.3041 18.7251 31.3952 18.8205 31.4593C18.9159 31.5234 19.0281 31.5577 19.1429 31.5577C19.2577 31.5577 19.37 31.5234 19.4654 31.4593C19.5608 31.3952 19.6351 31.3041 19.679 31.1976C19.7228 31.091 19.7341 30.9738 19.7115 30.8607C19.6889 30.7477 19.6334 30.6439 19.5521 30.5626V30.5662ZM19.1429 29.8087C19.4128 29.8047 19.6756 29.8948 19.8868 30.0635C20.098 30.2323 20.2443 30.4693 20.301 30.7343C20.3577 30.9993 20.3212 31.2758 20.1977 31.5167C20.0742 31.7577 19.8714 31.9482 19.6237 32.0559C19.3761 32.1636 19.0989 32.1817 18.8394 32.1072C18.5799 32.0328 18.3542 31.8703 18.2006 31.6474C18.047 31.4246 17.9751 31.1552 17.997 30.8851C18.019 30.615 18.1335 30.3609 18.3211 30.166C18.4279 30.055 18.5555 29.9664 18.6965 29.905C18.8376 29.8437 18.9893 29.811 19.1429 29.8087Z" fill="#E3000F"/>
<path d="M4.33179 44.4998C4.31745 44.4468 4.31546 44.3912 4.32599 44.3373C4.33651 44.2835 4.35927 44.2327 4.39247 44.1891C4.42568 44.1455 4.46846 44.1101 4.51748 44.0858C4.56649 44.0615 4.62044 44.0488 4.67511 44.0488C4.72979 44.0488 4.78373 44.0615 4.83275 44.0858C4.88177 44.1101 4.92454 44.1455 4.95775 44.1891C4.99096 44.2327 5.01371 44.2835 5.02423 44.3373C5.03476 44.3912 5.03277 44.4468 5.01844 44.4998C5.01844 47.2146 6.09233 49.8182 8.00388 51.7378C9.91543 53.6575 12.508 54.7359 15.2114 54.7359C17.9147 54.7359 20.5073 53.6575 22.4189 51.7378C24.3304 49.8182 25.4043 47.2146 25.4043 44.4998C25.39 44.4468 25.388 44.3912 25.3985 44.3373C25.4091 44.2835 25.4318 44.2327 25.465 44.1891C25.4982 44.1455 25.541 44.1101 25.59 44.0858C25.639 44.0615 25.693 44.0488 25.7477 44.0488C25.8023 44.0488 25.8563 44.0615 25.9053 44.0858C25.9543 44.1101 25.9971 44.1455 26.0303 44.1891C26.0635 44.2327 26.0863 44.2835 26.0968 44.3373C26.1073 44.3912 26.1053 44.4468 26.091 44.4998C26.091 47.3975 24.9447 50.1764 22.9044 52.2254C20.8641 54.2744 18.0968 55.4254 15.2114 55.4254C12.3259 55.4254 9.55867 54.2744 7.51835 52.2254C5.47803 50.1764 4.33179 47.3975 4.33179 44.4998Z" fill="#E3000F"/>
<path d="M1.91647 43.5676C1.86167 43.5725 1.80649 43.5645 1.75527 43.5444C1.70404 43.5242 1.65817 43.4924 1.62126 43.4514C1.58435 43.4105 1.5574 43.3615 1.54253 43.3083C1.52767 43.2551 1.52529 43.1992 1.53558 43.1449C1.54587 43.0906 1.56856 43.0395 1.60186 42.9955C1.63516 42.9515 1.67816 42.9159 1.72748 42.8914C1.77681 42.8669 1.83111 42.8543 1.88613 42.8545C1.94114 42.8546 1.99537 42.8676 2.04455 42.8924C2.06946 42.8924 11.1595 44.7073 14.2192 37.7118C14.2684 37.6527 14.3352 37.6112 14.4098 37.5934C14.4844 37.5756 14.5627 37.5825 14.6331 37.613C14.7035 37.6435 14.7622 37.6961 14.8004 37.7628C14.8386 37.8295 14.8544 37.9069 14.8453 37.9833C11.558 45.4862 1.93782 43.5891 1.91647 43.5676Z" fill="#E3000F"/>
<path d="M7.92914 35.1965C8.00499 35.1841 8.0828 35.1967 8.15093 35.2324C8.21906 35.2681 8.27384 35.325 8.30708 35.3946C8.34033 35.4642 8.35024 35.5427 8.33534 35.6184C8.32044 35.6941 8.28153 35.7629 8.22443 35.8146C6.83864 36.4919 5.55377 37.3601 4.40697 38.3941C3.00158 39.6692 1.80142 41.1552 0.849224 42.7994C0.834191 42.8522 0.80723 42.9009 0.770432 42.9415C0.733634 42.9822 0.68799 43.0138 0.637054 43.0339C0.586119 43.0539 0.531264 43.0619 0.47675 43.0572C0.422237 43.0525 0.369535 43.0353 0.322744 43.0068C0.275953 42.9783 0.236329 42.9394 0.206961 42.893C0.177592 42.8467 0.15927 42.7941 0.153412 42.7395C0.147555 42.6849 0.154322 42.6296 0.173189 42.578C0.192056 42.5265 0.222517 42.48 0.262198 42.4421C1.24741 40.7372 2.48955 39.1957 3.94446 37.8725C5.14229 36.7987 6.48345 35.898 7.92914 35.1965ZM15.283 34.1461H15.2118H15.1371C14.7809 34.1385 14.4245 34.1516 14.0698 34.1854C14.0184 34.2045 13.9632 34.2114 13.9086 34.2056C13.8541 34.1998 13.8016 34.1814 13.7553 34.1518C13.709 34.1223 13.6701 34.0823 13.6418 34.0352C13.6134 33.988 13.5962 33.9349 13.5917 33.88C13.5871 33.8251 13.5953 33.7699 13.6155 33.7187C13.6357 33.6674 13.6675 33.6216 13.7082 33.5848C13.749 33.5479 13.7978 33.521 13.8506 33.5062C13.9035 33.4914 13.959 33.4891 14.0129 33.4994C14.3972 33.4631 14.7833 33.45 15.1692 33.4601H15.2652C15.2937 33.4601 24.647 33.0314 30.1722 42.4528C30.195 42.5289 30.1919 42.6103 30.1634 42.6844C30.135 42.7585 30.0828 42.8209 30.0151 42.8619C29.9474 42.9028 29.868 42.92 29.7895 42.9106C29.711 42.9013 29.6378 42.8659 29.5816 42.8101C24.2628 33.7352 15.3079 34.1425 15.283 34.1461Z" fill="#E3000F"/>
<path d="M28.3856 42.8922C28.4627 42.8991 28.5355 42.931 28.5929 42.9832C28.6503 43.0354 28.6892 43.1049 28.7037 43.1813C28.7182 43.2576 28.7075 43.3367 28.6732 43.4064C28.6389 43.4761 28.5829 43.5326 28.5137 43.5675C28.4852 43.5675 18.865 45.4861 15.5848 37.9832C15.5525 37.8999 15.5525 37.8074 15.5847 37.724C15.617 37.6407 15.6792 37.5725 15.7591 37.533C15.843 37.4998 15.9362 37.4997 16.0201 37.5329C16.104 37.5661 16.1722 37.6299 16.211 37.7117C19.2671 44.7072 28.3607 42.8994 28.3856 42.8922Z" fill="#E3000F"/>
<path d="M25.2198 36.7793C25.22 36.871 25.1849 36.9593 25.122 37.0258C25.0591 37.0923 24.9731 37.1319 24.8819 37.1365C24.7875 37.1365 24.697 37.0989 24.6303 37.0319C24.5636 36.9649 24.5261 36.874 24.5261 36.7793L24.4656 30.5733C24.3441 29.247 23.8299 27.9877 22.9891 26.9576C22.9349 26.885 22.9102 26.7943 22.9201 26.7041C22.93 26.6138 22.9738 26.5307 23.0425 26.4717C23.1146 26.4183 23.2041 26.3941 23.2931 26.404C23.3821 26.414 23.4642 26.4573 23.5228 26.5253C24.4518 27.6736 25.018 29.0745 25.1487 30.5483L25.2198 36.7793Z" fill="#E3000F"/>
<path d="M25.8105 37.8011C25.7333 37.7906 25.6618 37.755 25.6067 37.6998C25.5517 37.6445 25.5162 37.5727 25.5057 37.4952C25.4952 37.4178 25.5103 37.339 25.5486 37.271C25.5869 37.203 25.6464 37.1495 25.718 37.1187C26.5016 37.0054 27.2135 36.5984 27.7106 35.9796C28.2078 35.3608 28.4533 34.576 28.3979 33.7829C28.3425 32.9898 27.9902 32.2471 27.4119 31.7041C26.8336 31.161 26.0721 30.8579 25.2804 30.8556H25.1167H24.9531C24.9019 30.8765 24.8467 30.8852 24.7916 30.881C24.7366 30.8768 24.6832 30.8598 24.6359 30.8313C24.5885 30.8028 24.5484 30.7636 24.5187 30.7169C24.489 30.6702 24.4706 30.6171 24.4648 30.562C24.4591 30.5068 24.4662 30.4511 24.4856 30.3992C24.505 30.3473 24.5362 30.3006 24.5766 30.2629C24.6171 30.2252 24.6657 30.1974 24.7187 30.1819C24.7717 30.1663 24.8276 30.1633 24.8819 30.1732H25.0811H25.2804C26.2451 30.177 27.1727 30.5472 27.877 31.2094C28.5812 31.8717 29.0099 32.7769 29.077 33.7434C29.1441 34.7099 28.8446 35.6662 28.2387 36.4201C27.6329 37.1741 26.7654 37.67 25.8105 37.8083V37.8011Z" fill="#E3000F"/>
<path d="M8.58398 20.3332V3.78043C8.60745 3.12846 8.81201 2.49607 9.17457 1.95472C9.54457 1.38428 10.0558 0.920138 10.6582 0.607774C11.7006 0.100435 13.0205 0.136163 14.2728 0.168319C14.5432 0.168319 14.81 0.168319 15.1373 0.168319C15.4647 0.168319 15.6924 0.168319 15.9556 0.168319C17.2151 0.136163 18.72 0.100435 19.6592 0.5649C20.266 0.863669 20.7902 1.30786 21.1855 1.85826C21.5635 2.38035 21.7845 3.0003 21.8223 3.64466C21.8342 9.31351 21.8401 14.9919 21.8401 20.6798H8.58398V20.3332ZM9.27063 3.79472V20.0081H21.1606L21.1286 3.66967C21.0933 3.16083 20.9171 2.67203 20.6198 2.25841C20.2905 1.80183 19.8543 1.43371 19.3497 1.18657C18.5599 0.797133 17.1439 0.829288 15.9592 0.857871C15.639 0.857871 15.333 0.857871 15.1267 0.857871C14.9203 0.857871 14.5681 0.857871 14.2444 0.857871C13.0774 0.825715 11.8393 0.79356 10.9463 1.21515C10.4561 1.47585 10.0417 1.85996 9.74381 2.32987C9.45272 2.76408 9.28878 3.27159 9.27063 3.79472Z" fill="#E3000F"/>
<path d="M9.98938 28.2048C9.90918 28.2048 9.83226 28.1728 9.77555 28.1158C9.71884 28.0589 9.68697 27.9816 9.68697 27.9011C9.68697 27.8206 9.71884 27.7433 9.77555 27.6864C9.83226 27.6294 9.90918 27.5974 9.98938 27.5974C10.693 27.5974 11.3809 27.807 11.966 28.1995C12.551 28.5921 13.007 29.1501 13.2763 29.803C13.5456 30.4558 13.616 31.1742 13.4788 31.8672C13.3415 32.5603 13.0026 33.1969 12.5051 33.6966C12.0075 34.1962 11.3736 34.5365 10.6835 34.6744C9.99333 34.8122 9.27798 34.7415 8.62789 34.4711C7.9778 34.2006 7.42216 33.7427 7.03123 33.1552C6.6403 32.5676 6.43164 31.8769 6.43164 31.1702C6.43164 31.1303 6.43946 31.0908 6.45466 31.054C6.46986 31.0172 6.49213 30.9837 6.52022 30.9555C6.5483 30.9273 6.58163 30.9049 6.61832 30.8896C6.65501 30.8744 6.69433 30.8665 6.73405 30.8665C6.77376 30.8665 6.81308 30.8744 6.84977 30.8896C6.88646 30.9049 6.9198 30.9273 6.94788 30.9555C6.97596 30.9837 6.99824 31.0172 7.01344 31.054C7.02864 31.0908 7.03646 31.1303 7.03646 31.1702C7.03716 31.7552 7.21052 32.3268 7.53464 32.8128C7.85876 33.2988 8.31908 33.6774 8.85742 33.9008C9.39575 34.1241 9.98795 34.1822 10.5591 34.0677C11.1303 33.9531 11.6549 33.6711 12.0665 33.2572C12.4781 32.8433 12.7584 32.3162 12.8717 31.7425C12.9851 31.1687 12.9266 30.5741 12.7035 30.0337C12.4804 29.4934 12.1029 29.0316 11.6185 28.7067C11.1341 28.3818 10.5647 28.2084 9.98227 28.2084L9.98938 28.2048Z" fill="#E3000F"/>
<path d="M8.16396 32.5132C8.11207 32.5549 8.04581 32.5742 7.97975 32.5668C7.9137 32.5595 7.85327 32.526 7.81175 32.4739C7.77023 32.4218 7.75103 32.3553 7.75837 32.2889C7.76571 32.2226 7.79898 32.1619 7.85088 32.1202L10.199 30.2552C10.2247 30.2348 10.2541 30.2197 10.2857 30.2107C10.3172 30.2017 10.3501 30.199 10.3827 30.2029C10.4152 30.2067 10.4467 30.2169 10.4753 30.2329C10.5039 30.249 10.5291 30.2705 10.5494 30.2963C10.5698 30.3221 10.5848 30.3517 10.5938 30.3833C10.6027 30.415 10.6054 30.4481 10.6016 30.4808C10.5978 30.5134 10.5876 30.545 10.5716 30.5738C10.5557 30.6025 10.5342 30.6278 10.5085 30.6482L8.16396 32.5132Z" fill="#E3000F"/>
<path d="M9.1418 33.3102C9.11588 33.3314 9.08596 33.3472 9.05384 33.3565C9.02172 33.3658 8.98806 33.3686 8.95486 33.3646C8.92165 33.3606 8.88959 33.3499 8.86059 33.3332C8.83158 33.3165 8.80622 33.2941 8.78603 33.2673C8.76442 33.2415 8.74833 33.2115 8.73874 33.1792C8.72915 33.1468 8.72626 33.1129 8.73026 33.0794C8.73427 33.0459 8.74506 33.0136 8.762 32.9845C8.77894 32.9553 8.80164 32.93 8.82872 32.91L11.9916 30.4091C12.0173 30.3874 12.0472 30.3712 12.0793 30.3616C12.1115 30.352 12.1454 30.3491 12.1787 30.3531C12.2121 30.3571 12.2442 30.3679 12.2732 30.385C12.3022 30.402 12.3275 30.4248 12.3473 30.452C12.3687 30.4778 12.3846 30.5076 12.3942 30.5397C12.4038 30.5719 12.4068 30.6056 12.4032 30.6389C12.3995 30.6723 12.3892 30.7045 12.3729 30.7338C12.3566 30.763 12.3346 30.7887 12.3082 30.8092L9.1418 33.3102Z" fill="#E3000F"/>
<path d="M5.28598 37.1582C5.26346 37.231 5.21833 37.2947 5.1572 37.3399C5.09607 37.3851 5.02214 37.4095 4.94621 37.4095C4.87029 37.4095 4.79636 37.3851 4.73522 37.3399C4.67409 37.2947 4.62896 37.231 4.60645 37.1582L4.66693 30.9308C4.79867 29.4574 5.36473 28.0567 6.29282 26.9078C6.35606 26.8624 6.4324 26.839 6.51015 26.8412C6.5879 26.8435 6.66277 26.8712 6.72331 26.9203C6.78384 26.9693 6.82671 27.0369 6.84535 27.1128C6.86398 27.1886 6.85736 27.2685 6.82648 27.3402C5.98615 28.3708 5.47086 29.6296 5.34646 30.9558L5.28598 37.1582Z" fill="#E3000F"/>
<path d="M4.22569 37.1187C4.29722 37.1495 4.35671 37.203 4.39505 37.271C4.4334 37.339 4.44848 37.4178 4.43798 37.4952C4.42748 37.5727 4.39199 37.6445 4.33693 37.6998C4.28188 37.755 4.21031 37.7906 4.13318 37.8011C3.17828 37.6628 2.31081 37.167 1.70492 36.413C1.09903 35.659 0.799577 34.7028 0.866682 33.7363C0.933787 32.7698 1.36248 31.8645 2.0667 31.2023C2.77091 30.5401 3.69852 30.1699 4.66329 30.166H4.86252H5.06176C5.15104 30.1785 5.23229 30.2245 5.28909 30.2948C5.34588 30.3651 5.37399 30.4544 5.36772 30.5447C5.35486 30.6299 5.31177 30.7076 5.24639 30.7634C5.18101 30.8192 5.09775 30.8494 5.01195 30.8484H4.8483H4.68108C3.88936 30.8507 3.12784 31.1539 2.54954 31.6969C1.97123 32.2399 1.61899 32.9826 1.56357 33.7757C1.50815 34.5689 1.75368 35.3537 2.2508 35.9725C2.74793 36.5913 3.45983 36.9982 4.24347 37.1116L4.22569 37.1187Z" fill="#E3000F"/>
<path fill-rule="evenodd" clip-rule="evenodd" d="M19.7925 30.1826C19.6087 30.0357 19.3799 29.9573 19.145 29.9608C19.0112 29.9628 18.8792 29.9913 18.7564 30.0446C18.6337 30.098 18.5226 30.1752 18.4296 30.2718C18.2664 30.4414 18.1667 30.6626 18.1476 30.8977C18.1285 31.1328 18.1911 31.3673 18.3248 31.5612C18.4584 31.7552 18.6549 31.8966 18.8808 31.9615C19.1067 32.0263 19.3479 32.0105 19.5635 31.9168C19.779 31.8231 19.9556 31.6572 20.0631 31.4475C20.1706 31.2377 20.2024 30.9971 20.153 30.7664C20.1037 30.5358 19.9763 30.3295 19.7925 30.1826ZM19.1405 29.6571C19.4453 29.6526 19.7423 29.7543 19.9808 29.945C20.2193 30.1356 20.3846 30.4034 20.4487 30.7026C20.5127 31.0019 20.4715 31.3143 20.332 31.5865C20.1925 31.8587 19.9633 32.0739 19.6836 32.1955C19.4039 32.3171 19.0908 32.3376 18.7977 32.2535C18.5046 32.1693 18.2496 31.9858 18.0761 31.7341C17.9026 31.4824 17.8214 31.1781 17.8462 30.873C17.871 30.5678 18.0003 30.2808 18.2122 30.0607C18.3329 29.9354 18.477 29.8352 18.6363 29.7659C18.7956 29.6967 18.967 29.6597 19.1405 29.6571ZM19.4007 30.1974L19.6586 30.4552C19.7612 30.5578 19.8311 30.6886 19.8596 30.8311C19.8881 30.9736 19.8738 31.1214 19.8185 31.2557C19.7633 31.3901 19.6696 31.505 19.5493 31.5858C19.429 31.6666 19.2875 31.7097 19.1428 31.7097C18.998 31.7097 18.8565 31.6666 18.7362 31.5858C18.6159 31.505 18.5222 31.3901 18.467 31.2557C18.4117 31.1214 18.3975 30.9736 18.4259 30.8311C18.4544 30.6886 18.5244 30.5578 18.6269 30.4552L18.7336 30.5628L18.6271 30.455C18.6951 30.3873 18.7757 30.3337 18.8643 30.2973C18.9526 30.2611 19.0472 30.2426 19.1426 30.243C19.2308 30.2425 19.3183 30.2584 19.4007 30.2897V30.1974ZM19.4805 30.7103L19.4436 30.6724C19.4047 30.6323 19.358 30.6004 19.3065 30.5788C19.255 30.5572 19.1997 30.5463 19.1439 30.5467L19.1419 30.5467V30.5467C19.086 30.5464 19.0305 30.5572 18.9787 30.5785C18.927 30.5997 18.8799 30.631 18.8402 30.6705C18.7801 30.7307 18.7391 30.8073 18.7224 30.8908C18.7057 30.9744 18.7141 31.0611 18.7465 31.1398C18.7789 31.2186 18.8338 31.286 18.9044 31.3334C18.9749 31.3808 19.0579 31.4061 19.1428 31.4061C19.2276 31.4061 19.3106 31.3808 19.3811 31.3334C19.4517 31.286 19.5066 31.2186 19.539 31.1398C19.5714 31.0611 19.5798 30.9744 19.5631 30.8908C19.5499 30.8248 19.5215 30.763 19.4805 30.7103Z" fill="#E3000F"/>
<path d="M25.0416 22.7062H5.39569C5.28454 22.7061 5.17447 22.7282 5.07187 22.7711C4.96927 22.814 4.87618 22.877 4.79799 22.9563C4.63973 23.1158 4.55027 23.3314 4.54895 23.5566V23.9389C4.54883 24.0505 4.57079 24.161 4.61354 24.2641C4.65629 24.3671 4.71899 24.4606 4.79799 24.5391C4.87569 24.6191 4.96869 24.6825 5.0714 24.7255C5.17412 24.7684 5.28442 24.7901 5.39569 24.7892H25.0416C25.1528 24.7897 25.263 24.7678 25.3656 24.7249C25.4683 24.6819 25.5613 24.6188 25.6393 24.5391C25.7183 24.4606 25.781 24.3671 25.8237 24.2641C25.8665 24.161 25.8884 24.0505 25.8883 23.9389V23.5566C25.8874 23.3313 25.7979 23.1156 25.6393 22.9563C25.4807 22.7971 25.2659 22.7072 25.0416 22.7062ZM5.40993 22.0203H25.0416C25.4474 22.0212 25.8363 22.1833 26.1236 22.4711C26.4108 22.7589 26.5731 23.1491 26.575 23.5566V23.9389C26.575 24.3476 26.4135 24.7396 26.1261 25.029C25.8386 25.3183 25.4486 25.4814 25.0416 25.4823H5.39569C4.98869 25.4814 4.59867 25.3183 4.31121 25.029C4.02374 24.7396 3.8623 24.3476 3.8623 23.9389V23.5566C3.86418 23.1491 4.02645 22.7589 4.31371 22.4711C4.60097 22.1833 4.98992 22.0212 5.39569 22.0203H5.40993Z" fill="#E3000F"/>
<path fill-rule="evenodd" clip-rule="evenodd" d="M4.67593 44.2011C4.64449 44.2011 4.61347 44.2084 4.58529 44.2224C4.5571 44.2364 4.5325 44.2567 4.51341 44.2818C4.49431 44.3069 4.48123 44.3361 4.47518 44.367C4.46913 44.398 4.47027 44.43 4.47851 44.4605L4.3326 44.5003H4.4838C4.4838 47.3577 5.61412 50.098 7.62608 52.1185C9.63804 54.139 12.3668 55.2741 15.2122 55.2741C18.0575 55.2741 20.7864 54.139 22.7983 52.1185C24.8103 50.098 25.9406 47.3577 25.9406 44.5003V44.48L25.9459 44.4605C25.9541 44.43 25.9553 44.398 25.9492 44.367C25.9432 44.3361 25.9301 44.3069 25.911 44.2818C25.8919 44.2567 25.8673 44.2364 25.8391 44.2224C25.8109 44.2084 25.7799 44.2011 25.7485 44.2011C25.717 44.2011 25.686 44.2084 25.6578 44.2224C25.6296 44.2364 25.605 44.2567 25.586 44.2818C25.5669 44.3069 25.5538 44.3361 25.5477 44.367C25.5417 44.398 25.5428 44.43 25.5511 44.4605L25.5564 44.48V44.5003C25.5564 47.2553 24.4665 49.8975 22.5266 51.8457C20.5867 53.7938 17.9556 54.8882 15.2122 54.8882C12.4688 54.8882 9.83768 53.7938 7.89778 51.8457C5.95787 49.8975 4.86804 47.2553 4.86804 44.5003V44.48L4.87334 44.4605C4.88158 44.43 4.88272 44.398 4.87667 44.367C4.87062 44.3361 4.85754 44.3069 4.83845 44.2818C4.81935 44.2567 4.79476 44.2364 4.76657 44.2224C4.73838 44.2084 4.70737 44.2011 4.67593 44.2011ZM4.18141 44.5188C4.16588 44.4498 4.16483 44.3782 4.17843 44.3086C4.19342 44.2318 4.22585 44.1595 4.27317 44.0974C4.32049 44.0352 4.38144 43.9848 4.45129 43.9502C4.52114 43.9155 4.59801 43.8975 4.67593 43.8975C4.75385 43.8975 4.83071 43.9155 4.90056 43.9502C4.97041 43.9848 5.03136 44.0352 5.07869 44.0974C5.12602 44.1595 5.15843 44.2318 5.17342 44.3086C5.18701 44.3781 5.18597 44.4497 5.17047 44.5187C5.1753 47.1865 6.23273 49.7441 8.11161 51.6309C9.9948 53.5221 12.549 54.5845 15.2122 54.5845C17.8754 54.5845 20.4296 53.5221 22.3128 51.6309C24.1917 49.7441 25.2491 47.1865 25.2539 44.5187C25.2384 44.4497 25.2374 44.3781 25.251 44.3086C25.266 44.2318 25.2984 44.1595 25.3457 44.0974C25.393 44.0352 25.454 43.9848 25.5238 43.9502C25.5937 43.9155 25.6706 43.8975 25.7485 43.8975C25.8264 43.8975 25.9033 43.9155 25.9731 43.9502C26.043 43.9848 26.1039 44.0352 26.1512 44.0974C26.1986 44.1595 26.231 44.2318 26.246 44.3086C26.2596 44.3782 26.2585 44.4498 26.243 44.5188C26.2381 47.4501 25.0765 50.2602 23.0122 52.3332C20.9435 54.4107 18.1377 55.5778 15.2122 55.5778C12.2866 55.5778 9.48092 54.4107 7.41224 52.3332C5.34792 50.2602 4.18628 47.4501 4.18141 44.5188Z" fill="#E3000F"/>
<path fill-rule="evenodd" clip-rule="evenodd" d="M14.573 37.7524C14.5325 37.7349 14.4875 37.7309 14.4446 37.7411C14.4077 37.7499 14.3742 37.7688 14.3475 37.7955C12.7859 41.3416 9.69751 42.6512 7.0172 43.0754C5.67396 43.288 4.42795 43.2795 3.5168 43.2181C3.06095 43.1874 2.68826 43.1435 2.4283 43.1071C2.29829 43.0889 2.19648 43.0726 2.12656 43.0608C2.0916 43.0549 2.06468 43.0501 2.04633 43.0468L2.03157 43.0442H2.0086L1.97661 43.0281C1.94833 43.0138 1.91715 43.0064 1.88551 43.0063C1.85388 43.0062 1.82266 43.0135 1.7943 43.0275C1.76593 43.0416 1.7412 43.0621 1.72206 43.0874C1.70291 43.1127 1.68987 43.1421 1.68395 43.1733C1.67803 43.2045 1.6794 43.2366 1.68795 43.2672C1.6965 43.2978 1.71199 43.326 1.73322 43.3496C1.75444 43.3731 1.78082 43.3914 1.81027 43.403C1.83973 43.4146 1.87146 43.4192 1.90296 43.4164L1.9733 43.4101L1.99246 43.4293C2.00872 43.4326 2.02994 43.4367 2.05599 43.4415C2.12646 43.4543 2.23066 43.4719 2.3647 43.4913C2.63275 43.53 3.01926 43.5761 3.49316 43.6077C4.44146 43.6708 5.73671 43.6753 7.13168 43.4472C9.91574 42.992 13.0778 41.6151 14.6964 37.9457C14.6973 37.9083 14.6879 37.8712 14.6692 37.8385C14.6472 37.8002 14.6135 37.77 14.573 37.7524ZM2.02178 43.0425L2.02179 43.0425L2.02178 43.0425ZM14.3747 37.4457C14.481 37.4203 14.5926 37.4301 14.6929 37.4736C14.7932 37.5171 14.8768 37.592 14.9313 37.687C14.9858 37.7821 15.0082 37.8923 14.9953 38.0013L14.9926 38.0238L14.9836 38.0445C13.3117 41.8603 10.0275 43.2814 7.18028 43.747C5.75663 43.9797 4.43738 43.9749 3.47317 43.9107C2.99081 43.8786 2.59656 43.8316 2.32159 43.7918C2.18411 43.772 2.07622 43.7538 2.00183 43.7402C1.96471 43.7335 1.93551 43.7277 1.91489 43.7234C1.91028 43.7224 1.90591 43.7215 1.90185 43.7206C1.83299 43.7229 1.76427 43.7111 1.69994 43.6857C1.62695 43.657 1.56158 43.6117 1.50898 43.5533C1.45638 43.4949 1.41798 43.4251 1.39679 43.3493C1.37561 43.2735 1.37221 43.1938 1.38688 43.1165C1.40155 43.0391 1.43388 42.9662 1.48133 42.9036C1.52878 42.8409 1.59006 42.7901 1.66035 42.7553C1.73063 42.7204 1.80801 42.7024 1.88641 42.7026C1.95671 42.7028 2.02611 42.7177 2.09023 42.7462L2.09931 42.7478C2.11701 42.751 2.14292 42.7556 2.17665 42.7613C2.24412 42.7727 2.34314 42.7885 2.47005 42.8063C2.72392 42.8418 3.08937 42.885 3.53703 42.9151C4.43288 42.9755 5.65527 42.9835 6.97012 42.7754C9.60028 42.3591 12.5793 41.0831 14.0806 37.6507L14.0892 37.6309L14.103 37.6144C14.1731 37.5302 14.2684 37.471 14.3747 37.4457Z" fill="#E3000F"/>
<path fill-rule="evenodd" clip-rule="evenodd" d="M15.165 33.6119C14.7852 33.6019 14.4052 33.6148 14.0269 33.6506L14.0055 33.6526L13.9844 33.6485C13.9534 33.6426 13.9215 33.6439 13.8911 33.6525C13.8607 33.661 13.8327 33.6764 13.8092 33.6976C13.7858 33.7188 13.7675 33.7452 13.7559 33.7746C13.7443 33.8041 13.7396 33.8358 13.7422 33.8674C13.7448 33.899 13.7547 33.9295 13.771 33.9566C13.7873 33.9837 13.8097 34.0067 13.8363 34.0237C13.8629 34.0407 13.8931 34.0513 13.9244 34.0546C13.9558 34.058 13.9875 34.054 14.0171 34.043L14.0357 34.0361L14.0554 34.0342C14.4154 34 14.777 33.9866 15.1386 33.9942H15.2783L15.2836 33.994C15.289 33.9937 15.2965 33.9934 15.3059 33.9931C15.3248 33.9925 15.3519 33.9917 15.387 33.9912C15.4571 33.9903 15.5591 33.9901 15.6899 33.9933C15.9515 33.9996 16.3284 34.0192 16.7962 34.0712C17.7316 34.1754 19.0311 34.4099 20.4973 34.9305C23.4272 35.9708 27.021 38.1534 29.7003 42.7136C29.7306 42.739 29.7677 42.7551 29.8072 42.7598C29.8523 42.7652 29.898 42.7554 29.9369 42.7318C29.9758 42.7083 30.0059 42.6723 30.0222 42.6298C30.0367 42.5921 30.0397 42.5511 30.0312 42.5119C24.601 33.273 15.4614 33.6048 15.2681 33.6118C15.2663 33.6119 15.2653 33.6119 15.2651 33.6119L15.165 33.6119ZM15.2828 34.1461V34.2979H15.1338C14.7894 34.2906 14.4448 34.3029 14.1018 34.3349C14.0344 34.3567 13.9631 34.3641 13.8925 34.3566C13.8148 34.3483 13.74 34.3221 13.674 34.2799C13.608 34.2378 13.5526 34.1809 13.5122 34.1137C13.4718 34.0465 13.4473 33.9709 13.4408 33.8926C13.4343 33.8144 13.4459 33.7357 13.4748 33.6627C13.5036 33.5897 13.5488 33.5244 13.6069 33.4719C13.6651 33.4193 13.7345 33.381 13.8098 33.3599C13.8776 33.3409 13.9486 33.3364 14.0181 33.3464C14.4013 33.311 14.7863 33.2982 15.171 33.3082H15.2651C15.2603 33.3082 15.4202 33.3016 15.6909 33.3083C15.964 33.315 16.3576 33.3354 16.8459 33.3894C17.8222 33.4974 19.1783 33.7404 20.7074 34.2802C23.7673 35.3603 27.5185 37.6288 30.3023 42.3758L30.3116 42.3915L30.3168 42.4091C30.3493 42.5174 30.3449 42.6335 30.3044 42.739C30.2638 42.8446 30.1895 42.9336 30.093 42.9919C29.9965 43.0503 29.8834 43.0747 29.7715 43.0614C29.6596 43.048 29.5554 42.9977 29.4752 42.9182L29.4611 42.9042L29.4511 42.8871C26.8128 38.3857 23.2758 36.2392 20.3965 35.2168C18.956 34.7053 17.6798 34.4752 16.7629 34.3731C16.3045 34.322 15.9363 34.3031 15.6826 34.2969C15.5557 34.2938 15.4576 34.294 15.3912 34.2949C15.358 34.2954 15.3328 34.296 15.316 34.2966C15.3076 34.2969 15.3014 34.2971 15.2974 34.2973C15.2937 34.2975 15.2924 34.2976 15.2926 34.2976C15.2931 34.2976 15.2985 34.2972 15.3042 34.2964L15.2828 34.1461ZM7.97223 35.3441C6.54797 36.0379 5.22642 36.9268 4.04541 37.9854C2.60223 39.298 1.37011 40.8271 0.392814 42.5183L0.381903 42.5372L0.366137 42.5522C0.343317 42.574 0.325803 42.6007 0.314956 42.6304C0.304108 42.66 0.300216 42.6918 0.303585 42.7232C0.306953 42.7546 0.317489 42.7849 0.334374 42.8115C0.351259 42.8382 0.374043 42.8605 0.400951 42.8769C0.427854 42.8933 0.458157 42.9032 0.489505 42.9059C0.520849 42.9086 0.552389 42.904 0.581678 42.8925C0.61097 42.8809 0.637215 42.8628 0.658371 42.8394C0.679527 42.816 0.695031 42.7881 0.703676 42.7577L0.708863 42.7394L0.718355 42.7231C1.67841 41.0653 2.88846 39.567 4.30545 38.2815L4.30579 38.2811C5.45701 37.2431 6.74611 36.3707 8.13618 35.6888C8.16187 35.6609 8.17947 35.6264 8.18684 35.5889C8.19541 35.5454 8.18971 35.5002 8.1706 35.4602C8.15148 35.4202 8.11998 35.3875 8.0808 35.367C8.04729 35.3494 8.0097 35.3416 7.97223 35.3441ZM7.92898 35.1965L7.90468 35.0466C8.01276 35.0289 8.12364 35.0469 8.22073 35.0978C8.31781 35.1486 8.39588 35.2297 8.44325 35.3289C8.49062 35.428 8.50474 35.5399 8.48351 35.6478C8.46228 35.7557 8.40683 35.8538 8.32547 35.9274L8.30962 35.9417L8.29044 35.9511C6.91739 36.6222 5.64431 37.4824 4.50803 38.5069C3.11853 39.7676 1.93133 41.2362 0.988397 42.8609C0.966154 42.9285 0.929992 42.9908 0.882167 43.0437C0.829727 43.1016 0.764684 43.1466 0.692105 43.1752C0.619523 43.2038 0.541354 43.2152 0.463671 43.2085C0.385991 43.2018 0.310891 43.1772 0.244212 43.1366C0.177537 43.0961 0.121074 43.0406 0.0792222 42.9745C0.0373694 42.9085 0.0112608 42.8336 0.00291409 42.7557C-0.00543289 42.6779 0.00420949 42.5992 0.0310963 42.5257C0.0552699 42.4596 0.0927961 42.3993 0.141216 42.3487C1.13267 40.637 2.38121 39.0892 3.8428 37.76L3.84361 37.7592C5.05193 36.676 6.40483 35.7675 7.86319 35.0598L7.92898 35.1965Z" fill="#E3000F"/>
<path fill-rule="evenodd" clip-rule="evenodd" d="M15.8213 37.6721C15.778 37.6951 15.7443 37.7331 15.7265 37.7791C15.7083 37.8261 15.7079 37.8782 15.7255 37.9255C17.3379 41.6098 20.5044 42.9856 23.2936 43.439C24.6886 43.6658 25.9844 43.6606 26.9338 43.5985C27.4082 43.5675 27.7955 43.5222 28.0646 43.4848C28.1991 43.4662 28.3041 43.4494 28.3757 43.4374C28.4115 43.4314 28.439 43.4266 28.4578 43.4232L28.4636 43.4222C28.4956 43.4021 28.5215 43.3733 28.5384 43.3391C28.5581 43.299 28.5643 43.2536 28.5559 43.2097C28.5476 43.1658 28.5252 43.1258 28.4922 43.0958C28.4639 43.07 28.429 43.0528 28.3916 43.046C28.3898 43.0463 28.3879 43.0467 28.386 43.047C28.3672 43.0506 28.34 43.0556 28.3049 43.0617C28.2347 43.0739 28.1327 43.0905 28.0026 43.1089C27.7424 43.1458 27.3695 43.1901 26.9135 43.221C26.002 43.2827 24.7557 43.291 23.4122 43.0779C20.7264 42.652 17.6314 41.3364 16.0744 37.7751C16.052 37.729 16.0131 37.693 15.9655 37.6742C15.9192 37.6559 15.8679 37.6552 15.8213 37.6721ZM15.7044 37.3918C15.8239 37.3444 15.9568 37.3443 16.0763 37.3916C16.1958 37.4388 16.293 37.5299 16.3483 37.6463L16.3503 37.6506L16.3502 37.6506C17.8497 41.083 20.8288 42.3608 23.4594 42.778C24.7744 42.9865 25.9971 42.9787 26.8932 42.918C27.341 42.8877 27.7065 42.8442 27.9603 42.8082C28.0872 42.7902 28.1861 42.7741 28.2534 42.7624C28.287 42.7566 28.3127 42.7519 28.3299 42.7486L28.3491 42.7449C28.3495 42.7448 28.3498 42.7448 28.3501 42.7447L28.3718 42.7385L28.3997 42.741C28.5096 42.7507 28.6133 42.7962 28.6951 42.8706C28.7769 42.9449 28.8324 43.044 28.853 43.1528C28.8737 43.2617 28.8584 43.3743 28.8095 43.4736C28.7606 43.5729 28.6809 43.6535 28.5822 43.7032L28.5503 43.7193H28.5271L28.5105 43.7223C28.4911 43.7257 28.4626 43.7307 28.4255 43.737C28.3515 43.7494 28.2437 43.7666 28.106 43.7857C27.8308 43.8239 27.4362 43.87 26.9534 43.9015C25.9885 43.9647 24.6689 43.9702 23.2453 43.7388C20.3981 43.2759 17.1155 41.8602 15.4472 38.0442L15.4459 38.0413L15.4447 38.0383C15.3987 37.9195 15.3986 37.7878 15.4446 37.669C15.4906 37.5502 15.5793 37.4531 15.6931 37.3968L15.6987 37.3941L15.7044 37.3918Z" fill="#E3000F"/>
<path fill-rule="evenodd" clip-rule="evenodd" d="M23.1366 26.5907C23.0994 26.6244 23.0757 26.6706 23.0702 26.7207C23.0646 26.7717 23.0782 26.8228 23.1083 26.8642C23.9668 27.9172 24.4919 29.2041 24.616 30.5594L24.6166 30.5656L24.6771 36.7792C24.6771 36.8337 24.6987 36.886 24.7371 36.9245C24.7745 36.9621 24.825 36.9837 24.8779 36.9846C24.929 36.9811 24.9769 36.9585 25.0122 36.9212C25.0483 36.8831 25.0684 36.8326 25.0685 36.7801C25.0685 36.7799 25.0685 36.7797 25.0685 36.7794L24.9974 30.5559C24.8685 29.1153 24.3148 27.7461 23.407 26.6231C23.3734 26.5849 23.3268 26.5606 23.2762 26.5549C23.2268 26.5494 23.1772 26.5622 23.1366 26.5907ZM22.9525 26.3495C23.0552 26.2734 23.1828 26.239 23.3096 26.2531C23.4365 26.2673 23.5534 26.329 23.637 26.4259L23.6401 26.4295C24.5881 27.6013 25.1658 29.0309 25.2992 30.5348L25.2997 30.5406L25.3709 36.7791C25.3711 36.9098 25.3211 37.0356 25.2315 37.1303C25.1418 37.2251 25.0193 37.2816 24.8893 37.2882L24.8855 37.2884H24.8817C24.7472 37.2884 24.6183 37.2347 24.5232 37.1392C24.4283 37.044 24.3749 36.9148 24.3747 36.78C24.3747 36.7798 24.3747 36.7795 24.3747 36.7792L24.3143 30.581C24.1946 29.2872 23.6923 28.0589 22.872 27.0539L22.87 27.0513L22.868 27.0487C22.7907 26.9452 22.7555 26.816 22.7697 26.6874C22.7838 26.5588 22.8461 26.4404 22.9441 26.3563L22.9482 26.3528L22.9525 26.3495Z" fill="#E3000F"/>
<path fill-rule="evenodd" clip-rule="evenodd" d="M24.8549 30.3231C24.8236 30.3174 24.7915 30.3191 24.761 30.3281C24.7306 30.337 24.7026 30.353 24.6793 30.3747C24.6561 30.3964 24.6381 30.4232 24.627 30.453C24.6158 30.4829 24.6117 30.5149 24.615 30.5466C24.6184 30.5783 24.629 30.6088 24.646 30.6357C24.6631 30.6626 24.6862 30.6851 24.7134 30.7015C24.7406 30.7179 24.7713 30.7277 24.8029 30.7301C24.8346 30.7325 24.8664 30.7275 24.8958 30.7155L24.9232 30.7042H25.2806C26.1106 30.7066 26.9088 31.0244 27.515 31.5936C28.1212 32.1628 28.4904 32.9414 28.5485 33.7727C28.6066 34.6041 28.3493 35.4268 27.8281 36.0754C27.3118 36.7181 26.5745 37.1428 25.7621 37.2661C25.7278 37.2844 25.6993 37.3122 25.68 37.3463C25.658 37.3854 25.6493 37.4307 25.6553 37.4752C25.6614 37.5198 25.6818 37.5611 25.7134 37.5929C25.7451 37.6246 25.7862 37.6451 25.8306 37.6511L25.8341 37.6516C26.7333 37.5099 27.5486 37.0374 28.1209 36.3253C28.7028 35.6011 28.9904 34.6827 28.926 33.7545C28.8615 32.8262 28.4498 31.9568 27.7734 31.3208C27.0972 30.6848 26.2064 30.3293 25.2799 30.3255H24.8682L24.8549 30.3231ZM25.6591 37.9158C25.5999 37.8905 25.5458 37.8539 25.4997 37.8077C25.4212 37.7289 25.3706 37.6266 25.3557 37.5162C25.3407 37.4059 25.3622 37.2936 25.4169 37.1967C25.4715 37.0998 25.5563 37.0235 25.6582 36.9796L25.6765 36.9717L25.6962 36.9689C26.4421 36.861 27.1196 36.4737 27.5928 35.8848C28.0659 35.2958 28.2996 34.5489 28.2469 33.794C28.1941 33.0391 27.8589 32.3323 27.3085 31.8154C26.7581 31.2987 26.0334 31.0102 25.28 31.0079H24.9798C24.9156 31.0295 24.8477 31.0381 24.7799 31.0329C24.7015 31.0269 24.6255 31.0026 24.558 30.962C24.4905 30.9214 24.4334 30.8656 24.3911 30.799C24.3488 30.7324 24.3225 30.6568 24.3143 30.5783C24.3061 30.4997 24.3162 30.4203 24.3439 30.3463C24.3715 30.2723 24.4159 30.2059 24.4736 30.1521C24.5312 30.0984 24.6006 30.0588 24.6761 30.0366C24.7469 30.0158 24.8213 30.0108 24.8941 30.0218H25.2808C26.2837 30.0258 27.2481 30.4106 27.9801 31.0991C28.7122 31.7875 29.1579 32.7286 29.2276 33.7334C29.2974 34.7381 28.9861 35.7322 28.3562 36.516C27.7264 37.2998 26.8246 37.8153 25.8319 37.959L25.6591 37.984V37.9158Z" fill="#E3000F"/>
<path fill-rule="evenodd" clip-rule="evenodd" d="M17.9169 0.332337C17.2742 0.287806 16.5902 0.304482 15.9593 0.32059L15.9555 0.320688L14.2688 0.320639C13.0067 0.288234 11.7282 0.256856 10.7257 0.744055C10.1473 1.04434 9.65646 1.49021 9.3011 2.03808L9.29988 2.03995C8.95357 2.55705 8.75794 3.16097 8.73503 3.78368V20.5284H21.6888C21.6887 14.8929 21.6828 9.26668 21.671 3.64983C21.6341 3.03598 21.4232 2.44548 21.0631 1.94802L21.0627 1.94756C20.6819 1.41738 20.177 0.989508 19.5925 0.701714C19.1495 0.482653 18.5618 0.377016 17.9169 0.332337ZM19.7258 0.429096C19.2295 0.183731 18.595 0.0749007 17.9378 0.029369C17.2791 -0.0162664 16.5816 0.00091737 15.9536 0.0169507H14.2746L14.2424 0.0161228C13.0097 -0.0155738 11.6641 -0.0501754 10.592 0.471608L10.5886 0.473333C9.96332 0.797593 9.43257 1.27933 9.04832 1.87138C8.67041 2.43603 8.45719 3.09552 8.43272 3.77542L8.43262 3.77816V20.8321H21.9912V20.6803C21.9912 14.9923 21.9853 9.31378 21.9734 3.64482L21.9734 3.6405L21.9731 3.63619C21.9336 2.96295 21.7027 2.31521 21.3078 1.76969C20.898 1.19921 20.3547 0.738799 19.7258 0.429096ZM14.2463 0.706502H15.9572C16.5479 0.692252 17.2039 0.676885 17.8117 0.71438C18.4164 0.751691 18.993 0.842115 19.416 1.05066C19.9428 1.30873 20.3983 1.6931 20.7421 2.16981C21.0559 2.60638 21.242 3.12252 21.2793 3.65959L21.2796 3.66471L21.312 20.1604H9.11926V3.79519H9.27046L9.11935 3.78991C9.13847 3.23904 9.31092 2.70458 9.61714 2.24716C9.92905 1.75581 10.3626 1.35414 10.8754 1.08144L10.8786 1.07975L10.8818 1.07821C11.3525 0.85601 11.9064 0.756608 12.4817 0.715373C13.0568 0.674156 13.6648 0.690481 14.2463 0.706502ZM9.42167 3.79788V19.8568H21.009L20.9772 3.67566C20.9431 3.19688 20.7768 2.73708 20.4971 2.34779C20.1824 1.91148 19.7655 1.55971 19.2833 1.32352L19.2829 1.32335C18.9162 1.14251 18.3899 1.05432 17.7931 1.0175C17.1999 0.980896 16.5562 0.995827 15.9627 1.01015L15.959 1.01023L14.24 1.01019C13.6552 0.994075 13.0615 0.978277 12.5032 1.01829C11.9459 1.05824 11.4355 1.15317 11.0137 1.35151C10.5481 1.59987 10.1544 1.9652 9.87119 2.41189L9.86912 2.41517C9.59431 2.82509 9.43929 3.30407 9.42167 3.79788Z" fill="#E3000F"/>
<path fill-rule="evenodd" clip-rule="evenodd" d="M9.98922 27.7492C9.94912 27.7492 9.91066 27.7652 9.8823 27.7937C9.85395 27.8222 9.83802 27.8608 9.83802 27.9011C9.83802 27.9414 9.85395 27.98 9.8823 28.0085C9.91066 28.0369 9.94912 28.0529 9.98922 28.0529H10.6302L10.5265 28.1049C10.945 28.18 11.3456 28.3411 11.7023 28.5804C12.2115 28.922 12.6085 29.4075 12.843 29.9756C13.0775 30.5437 13.1391 31.1688 13.0199 31.772C12.9007 32.3752 12.6061 32.9294 12.1733 33.3645C11.7406 33.7996 11.1891 34.0961 10.5886 34.2165C9.98808 34.337 9.36549 34.2759 8.79952 34.0411C8.23355 33.8063 7.7496 33.4082 7.40885 32.8973C7.06809 32.3863 6.88583 31.7854 6.88509 31.1704L6.88509 31.1702C6.88509 31.1503 6.88118 31.1305 6.87358 31.1121C6.86599 31.0937 6.85485 31.0769 6.8408 31.0628C6.82676 31.0487 6.81009 31.0376 6.79175 31.0299C6.7734 31.0223 6.75374 31.0184 6.73388 31.0184C6.71403 31.0184 6.69437 31.0223 6.67602 31.0299C6.65768 31.0376 6.64101 31.0487 6.62697 31.0628C6.61292 31.0769 6.60179 31.0937 6.59419 31.1121C6.58659 31.1305 6.58268 31.1503 6.58268 31.1702C6.58268 31.8468 6.78247 32.5082 7.15679 33.0708C7.5311 33.6334 8.06313 34.0718 8.68559 34.3308C9.30806 34.5897 9.993 34.6574 10.6538 34.5254C11.3146 34.3934 11.9216 34.0676 12.398 33.5892C12.8744 33.1108 13.1989 32.5012 13.3303 31.8376C13.4617 31.174 13.3943 30.4862 13.1365 29.8611C12.8786 29.236 12.442 28.7017 11.8818 28.3258C11.3216 27.9499 10.663 27.7492 9.98922 27.7492ZM9.65105 28.2047C9.57691 28.1214 9.53561 28.0134 9.53561 27.9011C9.53561 27.7803 9.5834 27.6644 9.66847 27.579C9.75354 27.4936 9.86892 27.4456 9.98922 27.4456C10.7228 27.4456 11.4399 27.664 12.0498 28.0733C12.6597 28.4825 13.1351 29.0643 13.4158 29.7448C13.6966 30.4254 13.77 31.1743 13.6269 31.8969C13.4838 32.6194 13.1305 33.283 12.6118 33.8039C12.0931 34.3248 11.4323 34.6796 10.7128 34.8233C9.99333 34.967 9.24759 34.8932 8.56987 34.6113C7.89214 34.3294 7.31289 33.852 6.90534 33.2395C6.4978 32.627 6.28027 31.9069 6.28027 31.1702C6.28027 31.1104 6.292 31.0512 6.3148 30.9959C6.3376 30.9406 6.37102 30.8904 6.41313 30.8481C6.45525 30.8058 6.50526 30.7722 6.5603 30.7494C6.61533 30.7265 6.67431 30.7147 6.73388 30.7147C6.79345 30.7147 6.85244 30.7265 6.90747 30.7494C6.96251 30.7722 7.01252 30.8058 7.05464 30.8481C7.09675 30.8904 7.13017 30.9406 7.15297 30.9959C7.17576 31.0511 7.18749 31.1103 7.1875 31.1701C7.1875 31.1701 7.1875 31.1702 7.1875 31.1702H7.03629L7.1875 31.17C7.1875 31.1701 7.1875 31.1701 7.1875 31.1701C7.18818 31.725 7.35265 32.2672 7.66011 32.7283C7.96759 33.1893 8.40428 33.5485 8.91499 33.7604C9.4257 33.9723 9.9875 34.0274 10.5294 33.9187C11.0713 33.8101 11.5689 33.5425 11.9594 33.1499C12.3499 32.7573 12.6157 32.2572 12.7233 31.7129C12.8308 31.1686 12.7753 30.6045 12.5637 30.0919C12.352 29.5793 11.9939 29.1412 11.5344 28.8329C11.0749 28.5247 10.5347 28.3602 9.98211 28.3602L9.34116 28.3602L9.65105 28.2047Z" fill="#E3000F"/>
<path fill-rule="evenodd" clip-rule="evenodd" d="M10.365 30.3542C10.3522 30.3527 10.3392 30.3537 10.3268 30.3572C10.3144 30.3608 10.3028 30.3667 10.2926 30.3748L7.94517 32.2393C7.94509 32.2393 7.94526 32.2392 7.94517 32.2393C7.92474 32.2558 7.91139 32.28 7.90849 32.3062C7.90558 32.3325 7.91319 32.3589 7.92966 32.3795C7.94612 32.4002 7.97009 32.4135 7.99629 32.4164C8.02249 32.4193 8.04876 32.4117 8.06935 32.3951L8.06992 32.3947L10.4145 30.5297C10.4246 30.5216 10.4331 30.5116 10.4394 30.5003C10.4457 30.489 10.4497 30.4765 10.4512 30.4636C10.4527 30.4508 10.4517 30.4377 10.4481 30.4252C10.4446 30.4128 10.4387 30.4011 10.4307 30.391C10.4227 30.3808 10.4128 30.3723 10.4015 30.366C10.3902 30.3597 10.3778 30.3557 10.365 30.3542ZM10.2442 30.0651C10.2949 30.0507 10.3478 30.0464 10.4001 30.0525C10.4523 30.0586 10.5029 30.0751 10.5488 30.1008C10.5948 30.1265 10.6352 30.1611 10.6679 30.2026C10.7005 30.244 10.7247 30.2915 10.7391 30.3423C10.7534 30.3932 10.7577 30.4464 10.7516 30.4988C10.7455 30.5513 10.7291 30.6021 10.7035 30.6482C10.6779 30.6944 10.6435 30.735 10.6022 30.7677C10.6022 30.7677 10.6023 30.7677 10.6022 30.7677L8.25826 32.6323C8.25815 32.6323 8.25804 32.6324 8.25794 32.6325C8.17477 32.6992 8.06866 32.73 7.96289 32.7182C7.85698 32.7064 7.76009 32.6528 7.69352 32.5692C7.62695 32.4857 7.59616 32.379 7.60793 32.2726C7.61969 32.1663 7.67305 32.069 7.75626 32.0021L7.75692 32.0016L10.105 30.1366C10.1463 30.1038 10.1936 30.0795 10.2442 30.0651Z" fill="#E3000F"/>
<path fill-rule="evenodd" clip-rule="evenodd" d="M12.1615 30.5036C12.1487 30.502 12.1357 30.5032 12.1233 30.5068C12.111 30.5105 12.0995 30.5168 12.0896 30.5251L12.086 30.5282L8.92107 33.0307L8.91902 33.0322C8.90861 33.0399 8.89989 33.0496 8.89339 33.0608C8.88689 33.0719 8.88274 33.0843 8.88121 33.0972C8.87967 33.1101 8.88078 33.1231 8.88446 33.1355C8.88815 33.148 8.89433 33.1595 8.90262 33.1694L8.90506 33.1723L8.90736 33.1754C8.91529 33.1859 8.92525 33.1947 8.93665 33.2012C8.94805 33.2078 8.96064 33.212 8.97368 33.2136C8.98673 33.2152 8.99995 33.2141 9.01257 33.2104C9.02519 33.2067 9.03694 33.2005 9.04713 33.1922L9.04913 33.1906L12.2164 30.689C12.2267 30.6809 12.2354 30.6708 12.2418 30.6593C12.2482 30.6478 12.2522 30.6352 12.2537 30.6221C12.2551 30.609 12.2539 30.5957 12.2501 30.5831C12.2464 30.5705 12.2401 30.5587 12.2318 30.5486L12.2289 30.5452L12.2263 30.5416C12.2186 30.5311 12.2089 30.5224 12.1978 30.5158C12.1867 30.5093 12.1743 30.5051 12.1615 30.5036ZM12.037 30.2158C12.089 30.2002 12.1436 30.1956 12.1975 30.2021C12.2514 30.2086 12.3034 30.2261 12.3503 30.2536C12.3959 30.2803 12.4357 30.3159 12.4674 30.3582C12.5002 30.3989 12.5248 30.4457 12.5398 30.4959C12.5552 30.5475 12.5601 30.6017 12.5543 30.6553C12.5484 30.7088 12.5319 30.7607 12.5057 30.8077C12.4795 30.8545 12.4443 30.8957 12.4021 30.9286C12.402 30.9287 12.4018 30.9289 12.4017 30.929L9.237 33.4286C9.19558 33.4622 9.1479 33.4872 9.09674 33.5021C9.04512 33.5171 8.99102 33.5215 8.93765 33.5151C8.88429 33.5087 8.83276 33.4915 8.78615 33.4647C8.74063 33.4384 8.70071 33.4035 8.66863 33.3618C8.63494 33.3207 8.60978 33.2733 8.59464 33.2223C8.57914 33.17 8.57448 33.1152 8.58095 33.061C8.58742 33.0069 8.60486 32.9547 8.63224 32.9076C8.65913 32.8614 8.69502 32.8211 8.73776 32.7891L11.8972 30.2908C11.9383 30.2566 11.9858 30.2311 12.037 30.2158Z" fill="#E3000F"/>
<path fill-rule="evenodd" clip-rule="evenodd" d="M6.39575 27.0211C5.49649 28.1416 4.94748 29.5044 4.81812 30.9379L4.75797 37.132C4.77224 37.1658 4.79533 37.1953 4.82495 37.2172C4.86011 37.2432 4.90261 37.2572 4.94627 37.2572C4.98993 37.2572 5.03244 37.2432 5.06759 37.2172C5.09757 37.195 5.12085 37.1651 5.13509 37.1308L5.19538 30.9475L5.19598 30.9411C5.32244 29.5929 5.8439 28.3128 6.69422 27.2623C6.70627 27.2257 6.70786 27.1863 6.6986 27.1486C6.68789 27.105 6.66324 27.0662 6.62842 27.0379C6.59361 27.0097 6.55056 26.9938 6.50586 26.9925C6.46708 26.9914 6.42892 27.0014 6.39575 27.0211ZM6.20485 26.7839C6.29497 26.7191 6.40375 26.6857 6.51454 26.6889C6.62534 26.6921 6.73203 26.7317 6.81829 26.8016C6.90456 26.8715 6.96565 26.9678 6.9922 27.0759C7.01875 27.1839 7.00931 27.2978 6.96532 27.3999L6.95693 27.4194L6.94353 27.4359C6.12358 28.4415 5.62028 29.6694 5.49765 30.9632L5.43701 37.1815L5.43043 37.2028C5.39835 37.3065 5.33405 37.3973 5.24693 37.4617C5.15982 37.5261 5.05446 37.5609 4.94627 37.5609C4.83808 37.5609 4.73273 37.5261 4.64561 37.4617C4.55851 37.3973 4.4942 37.3065 4.46211 37.2028L4.45508 37.18L4.51585 30.9228L4.51639 30.9167C4.65082 29.4132 5.22843 27.984 6.17545 26.8117L6.18829 26.7958L6.20485 26.7839Z" fill="#E3000F"/>
<path fill-rule="evenodd" clip-rule="evenodd" d="M4.66253 30.0142L4.66313 30.0142L5.07205 30.0142L5.0824 30.0156C5.20963 30.0334 5.32542 30.0989 5.40635 30.1991C5.48728 30.2993 5.52733 30.4266 5.5184 30.5553L5.51798 30.5614L5.51706 30.5675C5.49872 30.6889 5.43732 30.7996 5.34415 30.8791C5.25122 30.9584 5.13294 31.0014 5.01101 31.0003H4.68116C3.9277 31.0025 3.203 31.291 2.65264 31.8078C2.10224 32.3246 1.76698 33.0315 1.71424 33.7864C1.6615 34.5412 1.89518 35.2882 2.36832 35.8771C2.84147 36.4661 3.51903 36.8534 4.26486 36.9613L4.82345 37.042L4.50946 37.1682C4.51541 37.1773 4.52109 37.1867 4.52647 37.1962C4.58111 37.2931 4.6026 37.4054 4.58764 37.5157C4.57268 37.6261 4.5221 37.7285 4.44365 37.8072C4.3652 37.8859 4.26321 37.9366 4.15331 37.9516L4.13236 37.9544L4.11145 37.9514C3.11876 37.8077 2.21695 37.2921 1.58709 36.5083C0.957219 35.7245 0.645921 34.7305 0.715681 33.7257C0.785442 32.721 1.2311 31.7799 1.96318 31.0915C2.69527 30.403 3.65958 30.0182 4.66253 30.0142ZM4.14721 37.2502C3.35524 37.117 2.63826 36.6968 2.13296 36.0678C1.61185 35.4192 1.35448 34.5965 1.41257 33.7651C1.47066 32.9337 1.8399 32.1552 2.4461 31.586C3.05231 31.0168 3.85056 30.699 4.68048 30.6966L4.68092 30.6966L5.0135 30.6966C5.06283 30.6971 5.11071 30.6798 5.1483 30.6477C5.18433 30.6169 5.20859 30.5746 5.21706 30.528C5.21903 30.4782 5.20288 30.4293 5.17151 30.3905C5.14075 30.3524 5.09752 30.3267 5.0497 30.3179H4.66343C3.73695 30.3216 2.84616 30.6772 2.16989 31.3131C1.49353 31.9492 1.08181 32.8186 1.01736 33.7468C0.952908 34.6751 1.24051 35.5935 1.82242 36.3176C2.39933 37.0355 3.22316 37.5098 4.13094 37.6473C4.16828 37.6387 4.20262 37.6197 4.22989 37.5924C4.26155 37.5606 4.28196 37.5193 4.28799 37.4748C4.29403 37.4302 4.28536 37.3849 4.26331 37.3458C4.24126 37.3067 4.20706 37.276 4.16593 37.2582L4.14721 37.2502Z" fill="#E3000F"/>
<path d="M42.5769 33.1007C41.697 33.1007 40.7241 33.1115 39.6582 33.133L39.6153 32.6697L41.2034 32.1955C41.3822 32.1452 41.4752 32.0339 41.4824 31.8615C41.4967 31.3155 41.5039 30.6186 41.5039 29.7709V19.0165H37.716L36.761 21.8829L36.3317 21.9583L36.0527 18.1005L36.1278 18.0143C37.8877 18.043 39.5724 18.0574 41.1819 18.0574H44.047C45.6494 18.0574 47.3413 18.043 49.1226 18.0143L49.1869 18.1005L48.5109 21.8829L48.0817 21.9583L47.3949 19.0165H43.6071V29.7709C43.6071 30.6186 43.6142 31.3155 43.6285 31.8615C43.6357 32.0339 43.7287 32.1452 43.9075 32.1955L45.4956 32.6697L45.5171 33.133C44.4083 33.1115 43.4282 33.1007 42.5769 33.1007Z" fill="#1A1A18"/>
<path d="M54.0801 30.2882V31.9261C54.0801 32.1129 54.1802 32.235 54.3805 32.2925L55.5716 32.6697L55.6038 33.133C54.7525 33.1115 53.9012 33.1007 53.05 33.1007C52.1987 33.1007 51.3116 33.1115 50.3888 33.133L50.3458 32.6697L51.6657 32.2709C51.8517 32.2135 51.9483 32.1021 51.9554 31.9369C51.9697 31.355 51.9769 30.6402 51.9769 29.7925V21.0531C51.9769 20.3347 51.9697 19.7385 51.9554 19.2643C51.9483 19.0775 51.8624 18.9554 51.6979 18.8979L50.3673 18.4777L50.3458 18.0143C51.2687 18.043 52.1557 18.0574 53.007 18.0574C53.8655 18.0574 54.7132 18.043 55.5502 18.0143L55.6038 18.4777L54.3805 18.8548C54.2017 18.8979 54.1087 19.0093 54.1015 19.1889C54.0872 19.7061 54.0801 20.3132 54.0801 21.01V28.7364L62.0529 20.2449V19.1889C62.0529 19.0237 61.9527 18.9123 61.7524 18.8548L60.5614 18.4777L60.5292 18.0143C61.4019 18.043 62.2675 18.0574 63.126 18.0574C63.9772 18.0574 64.85 18.043 65.7442 18.0143L65.7871 18.4777L64.4351 18.8979C64.2705 18.9554 64.1847 19.0775 64.1776 19.2643C64.1561 19.7385 64.1454 20.3347 64.1454 21.0531V29.7925C64.1454 30.6402 64.1561 31.355 64.1776 31.9369C64.1847 32.1021 64.2813 32.2135 64.4673 32.2709L65.7657 32.6697L65.7871 33.133C64.8357 33.1115 63.9343 33.1007 63.083 33.1007C62.2317 33.1007 61.3983 33.1115 60.5828 33.133L60.5292 32.6697L61.7524 32.2925C61.9313 32.2422 62.0243 32.1201 62.0314 31.9261L62.0529 29.7925V21.7967L54.0801 30.2882Z" fill="#1A1A18"/>
<path d="M71.646 31.9261C71.6532 32.1201 71.7462 32.2422 71.925 32.2925L73.1161 32.6697L73.1483 33.133C72.297 33.1115 71.4457 33.1007 70.5944 33.1007C69.7431 33.1007 68.8561 33.1115 67.9333 33.133L67.8903 32.6697L69.2102 32.2709C69.3962 32.2135 69.4928 32.1021 69.4999 31.9369C69.5142 31.355 69.5214 30.6402 69.5214 29.7925V21.0531C69.5214 20.3347 69.5142 19.7385 69.4999 19.2643C69.4928 19.0775 69.4069 18.9554 69.2424 18.8979L67.9118 18.4777L67.8903 18.0143C68.8132 18.043 69.7002 18.0574 70.5515 18.0574H80.0695C80.9208 18.0574 81.7936 18.043 82.6878 18.0143L82.7307 18.4777L81.3786 18.8979C81.2141 18.9554 81.1283 19.0775 81.1211 19.2643C81.1068 19.7385 81.0997 20.3347 81.0997 21.0531V29.7925C81.0997 30.6402 81.1068 31.355 81.1211 31.9369C81.1283 32.1021 81.2248 32.2135 81.4108 32.2709L82.7092 32.6697L82.7307 33.133C81.7864 33.1115 80.885 33.1007 80.0266 33.1007C79.1753 33.1007 78.3419 33.1115 77.5264 33.133L77.4835 32.6697L78.696 32.2925C78.8749 32.2422 78.9678 32.1201 78.975 31.9261C78.9965 31.3514 79.0072 30.6402 79.0072 29.7925V19.038H71.6246V29.7925C71.6246 30.6402 71.6317 31.3514 71.646 31.9261Z" fill="#1A1A18"/>
<path d="M87.2053 25.3743C87.2053 27.7163 87.6775 29.5123 88.6218 30.7623C89.5661 32.0051 90.9503 32.6265 92.7745 32.6265C94.5701 32.6265 95.8935 32.0626 96.7448 30.9347C97.6033 29.7996 98.0325 28.0216 98.0325 25.6006C98.0325 23.3305 97.5782 21.5847 96.6697 20.3635C95.7612 19.1422 94.3591 18.5315 92.4633 18.5315C90.6248 18.5315 89.2871 19.0991 88.4501 20.2342C87.6203 21.362 87.2053 23.0754 87.2053 25.3743ZM100.393 25.2342C100.393 27.7199 99.6886 29.7206 98.2793 31.2364C96.8772 32.7451 94.9135 33.4994 92.3882 33.4994C89.9917 33.4994 88.1353 32.8026 86.819 31.4089C85.5099 30.008 84.8554 28.115 84.8554 25.7299C84.8554 23.2442 85.56 21.2794 86.9693 19.8354C88.3857 18.3843 90.3458 17.6587 92.8496 17.6587C95.2533 17.6587 97.1097 18.3376 98.4188 19.6954C99.7351 21.0459 100.393 22.8922 100.393 25.2342Z" fill="#1A1A18"/>
<path d="M106.252 29.7925C106.252 30.6402 106.259 31.337 106.274 31.883C106.281 32.0554 106.374 32.1668 106.553 32.2171L108.033 32.6697L108.055 33.133C107.018 33.1115 106.073 33.1007 105.222 33.1007C104.371 33.1007 103.484 33.1115 102.561 33.133L102.518 32.6697L103.838 32.2709C104.024 32.2135 104.12 32.1021 104.127 31.9369C104.142 31.355 104.149 30.6402 104.149 29.7925V21.0531C104.149 20.6867 104.145 20.3563 104.138 20.0617C104.138 19.7672 104.135 19.5014 104.127 19.2643C104.12 19.0775 104.034 18.9554 103.87 18.8979L102.539 18.4777L102.518 18.0143C103.441 18.043 104.328 18.0574 105.179 18.0574H107.701C109.461 18.0574 111.156 18.043 112.787 18.0143L112.851 18.1005L112.111 22.0553L111.682 22.1307L110.866 19.0165H106.252V29.7925Z" fill="#1A1A18"/>
<path d="M118.335 25.8161C118.835 25.9023 119.329 25.9454 119.816 25.9454C120.96 25.9454 121.829 25.6509 122.423 25.0618C123.024 24.4655 123.324 23.5568 123.324 22.3355C123.324 21.1645 123.038 20.2916 122.466 19.7169C121.901 19.1422 121.007 18.8548 119.783 18.8548C119.304 18.8548 118.821 18.8836 118.335 18.941V25.8161ZM118.335 29.7925C118.335 30.2235 118.335 30.6114 118.335 30.9563C118.342 31.3011 118.349 31.61 118.356 31.883C118.363 32.0482 118.456 32.1596 118.635 32.2171L120.116 32.6697L120.137 33.133C119.1 33.1115 118.156 33.1007 117.305 33.1007C116.439 33.1007 115.552 33.1115 114.643 33.133L114.6 32.6697L115.92 32.2709C116.106 32.2135 116.203 32.1021 116.21 31.9369C116.217 31.6495 116.221 31.3298 116.221 30.9778C116.228 30.6186 116.232 30.2235 116.232 29.7925V21.0531C116.232 20.6867 116.228 20.3563 116.221 20.0617C116.221 19.7672 116.217 19.5014 116.21 19.2643C116.203 19.0775 116.117 18.9554 115.953 18.8979L114.622 18.4777L114.6 18.0143C115.523 18.043 116.421 18.0574 117.294 18.0574C117.88 18.0574 118.446 18.043 118.989 18.0143C119.54 17.9856 120.041 17.9712 120.492 17.9712C122.173 17.9712 123.442 18.3053 124.301 18.9734C125.167 19.6343 125.599 20.6221 125.599 21.9368C125.599 23.4813 125.102 24.681 124.108 25.5359C123.113 26.3908 121.718 26.8183 119.923 26.8183C119.429 26.8183 118.9 26.786 118.335 26.7213V29.7925Z" fill="#1A1A18"/>
<path d="M132.787 17.7883L137.552 30.9674C137.731 31.4631 137.892 31.8007 138.035 31.9803C138.185 32.1527 138.396 32.282 138.668 32.3682L139.676 32.67L139.698 33.1333C138.761 33.1118 137.892 33.101 137.09 33.101C136.275 33.101 135.313 33.1118 134.204 33.1333L134.161 32.67L135.18 32.3682C135.323 32.318 135.424 32.2641 135.481 32.2066C135.545 32.142 135.577 32.045 135.577 31.9157C135.577 31.772 135.538 31.5852 135.459 31.3553C135.388 31.1182 135.284 30.8057 135.148 30.4178L134.14 27.5298H128.967L127.841 30.407C127.69 30.8093 127.572 31.129 127.487 31.3661C127.401 31.6032 127.358 31.7899 127.358 31.9264C127.358 32.0486 127.39 32.142 127.454 32.2066C127.526 32.2641 127.63 32.3144 127.766 32.3575L128.763 32.6484L128.785 33.1333C127.769 33.1118 126.939 33.101 126.295 33.101C125.652 33.101 124.933 33.1118 124.139 33.1333L124.085 32.67L125.169 32.3359C125.441 32.2497 125.641 32.1168 125.77 31.9372C125.898 31.7576 126.042 31.4774 126.199 31.0967L131.682 17.95L132.787 17.7883ZM129.364 26.5492H133.785L131.693 20.6116L129.364 26.5492Z" fill="#1A1A18"/>
<path d="M154.044 25.0397C154.044 26.5986 153.521 27.8379 152.477 28.7574C151.433 29.6698 149.83 30.1942 147.67 30.3307V31.9471C147.67 32.1195 147.802 32.2452 148.067 32.3243L149.29 32.6906L149.311 33.1325C148.382 33.1109 147.519 33.1001 146.725 33.1001C145.91 33.1001 145.048 33.1109 144.139 33.1325L144.086 32.6906L145.406 32.2919C145.62 32.2345 145.727 32.1231 145.727 31.9579V30.363C143.467 30.2481 141.839 29.7704 140.845 28.9298C139.851 28.0821 139.354 26.9003 139.354 25.3845C139.354 23.8687 139.847 22.6654 140.834 21.7746C141.829 20.8837 143.46 20.3629 145.727 20.212V18.8974C145.727 18.7178 145.631 18.5992 145.438 18.5418L144.118 18.1215L144.086 17.6797C145.016 17.7012 145.881 17.712 146.682 17.712C147.484 17.712 148.342 17.7012 149.258 17.6797L149.311 18.1215L147.981 18.5202C147.773 18.5705 147.67 18.6783 147.67 18.8435V20.1905C149.966 20.2839 151.601 20.7508 152.574 21.5914C153.554 22.4247 154.044 23.5742 154.044 25.0397ZM147.67 20.9556V29.5979C149.301 29.5045 150.41 29.1274 150.996 28.4665C151.583 27.7983 151.876 26.7351 151.876 25.2768C151.876 23.9908 151.611 22.9851 151.082 22.2595C150.56 21.5267 149.422 21.0921 147.67 20.9556ZM141.521 25.1474C141.521 26.5268 141.818 27.5756 142.412 28.294C143.013 29.0124 144.118 29.4363 145.727 29.5656V20.9448C144.003 21.0382 142.87 21.4225 142.326 22.0978C141.789 22.7731 141.521 23.7897 141.521 25.1474Z" fill="#1A1A18"/>
<path d="M170 25.0397C170 26.5986 169.478 27.8379 168.433 28.7574C167.389 29.6698 165.786 30.1942 163.626 30.3307V31.9471C163.626 32.1195 163.758 32.2452 164.023 32.3243L165.246 32.6906L165.268 33.1325C164.338 33.1109 163.476 33.1001 162.681 33.1001C161.866 33.1001 161.004 33.1109 160.095 33.1325L160.042 32.6906L161.362 32.2919C161.576 32.2345 161.684 32.1231 161.684 31.9579V30.363C159.423 30.2481 157.795 29.7704 156.801 28.9298C155.807 28.0821 155.31 26.9003 155.31 25.3845C155.31 23.8687 155.803 22.6654 156.79 21.7746C157.785 20.8837 159.416 20.3629 161.684 20.212V18.8974C161.684 18.7178 161.587 18.5992 161.394 18.5418L160.074 18.1215L160.042 17.6797C160.972 17.7012 161.837 17.712 162.639 17.712C163.44 17.712 164.298 17.7012 165.214 17.6797L165.268 18.1215L163.937 18.5202C163.73 18.5705 163.626 18.6783 163.626 18.8435V20.1905C165.922 20.2839 167.557 20.7508 168.53 21.5914C169.51 22.4247 170 23.5742 170 25.0397ZM163.626 20.9556V29.5979C165.257 29.5045 166.366 29.1274 166.952 28.4665C167.539 27.7983 167.832 26.7351 167.832 25.2768C167.832 23.9908 167.567 22.9851 167.038 22.2595C166.516 21.5267 165.378 21.0921 163.626 20.9556ZM157.477 25.1474C157.477 26.5268 157.774 27.5756 158.368 28.294C158.969 29.0124 160.074 29.4363 161.684 29.5656V20.9448C159.959 21.0382 158.826 21.4225 158.282 22.0978C157.745 22.7731 157.477 23.7897 157.477 25.1474Z" fill="#1A1A18"/>
<path d="M62.9157 45.0347V45.5876C62.9157 45.6506 62.9495 45.6918 63.0172 45.7112L63.4192 45.8385L63.4301 45.995C63.1427 45.9877 62.8554 45.984 62.568 45.984C62.2807 45.984 61.9813 45.9877 61.6698 45.995L61.6553 45.8385L62.1008 45.704C62.1636 45.6846 62.1962 45.647 62.1986 45.5912C62.2034 45.3948 62.2058 45.1535 62.2058 44.8674V41.9175C62.2058 41.675 62.2034 41.4737 62.1986 41.3137C62.1962 41.2506 62.1672 41.2094 62.1116 41.19L61.6625 41.0482L61.6553 40.8917C61.9668 40.9014 62.2662 40.9063 62.5535 40.9063C62.8433 40.9063 63.1294 40.9014 63.412 40.8917L63.4301 41.0482L63.0172 41.1755C62.9568 41.19 62.9254 41.2276 62.923 41.2882C62.9182 41.4628 62.9157 41.6677 62.9157 41.9029V44.5109L65.6069 41.6447V41.2882C65.6069 41.2324 65.5731 41.1949 65.5055 41.1755L65.1034 41.0482L65.0926 40.8917C65.3872 40.9014 65.6793 40.9063 65.9691 40.9063C66.2564 40.9063 66.551 40.9014 66.8529 40.8917L66.8674 41.0482L66.411 41.19C66.3555 41.2094 66.3265 41.2506 66.3241 41.3137C66.3168 41.4737 66.3132 41.675 66.3132 41.9175V44.8674C66.3132 45.1535 66.3168 45.3948 66.3241 45.5912C66.3265 45.647 66.3591 45.6846 66.4219 45.704L66.8601 45.8385L66.8674 45.995C66.5462 45.9877 66.242 45.984 65.9546 45.984C65.6673 45.984 65.386 45.9877 65.1107 45.995L65.0926 45.8385L65.5055 45.7112C65.5658 45.6943 65.5972 45.653 65.5997 45.5876L65.6069 44.8674V42.1685L62.9157 45.0347Z" fill="#1A1A18"/>
<path d="M68.8341 43.467V44.8674C68.8341 45.1535 68.8365 45.3936 68.8414 45.5876C68.8438 45.653 68.8752 45.6943 68.9355 45.7112L69.3376 45.8385L69.3484 45.995C69.0611 45.9877 68.7738 45.984 68.4864 45.984C68.1991 45.984 67.8996 45.9877 67.5881 45.995L67.5737 45.8385L68.0192 45.704C68.0819 45.6846 68.1145 45.647 68.117 45.5912C68.1218 45.3948 68.1242 45.1535 68.1242 44.8674V41.9175C68.1242 41.675 68.1218 41.4737 68.117 41.3137C68.1145 41.2506 68.0856 41.2094 68.03 41.19L67.5809 41.0482L67.5737 40.8917C67.8852 40.9014 68.1846 40.9063 68.4719 40.9063C68.7617 40.9063 69.0478 40.9014 69.3303 40.8917L69.3484 41.0482L68.9355 41.1755C68.8752 41.19 68.8438 41.2276 68.8414 41.2882C68.8365 41.4628 68.8341 41.6677 68.8341 41.9029V43.136H71.471V41.9029C71.471 41.6677 71.4685 41.4628 71.4637 41.2882C71.4613 41.2276 71.4299 41.19 71.3695 41.1755L70.9675 41.0482L70.9602 40.8917C71.2548 40.9014 71.5458 40.9063 71.8332 40.9063C72.1205 40.9063 72.4151 40.9014 72.7169 40.8917L72.7314 41.0482L72.275 41.19C72.2195 41.2094 72.1905 41.2506 72.1881 41.3137C72.1833 41.4737 72.1809 41.675 72.1809 41.9175V44.8674C72.1809 45.1535 72.1833 45.3948 72.1881 45.5912C72.1905 45.647 72.2231 45.6846 72.2859 45.704L72.7242 45.8385L72.7314 45.995C72.4127 45.9877 72.1084 45.984 71.8187 45.984C71.5313 45.984 71.25 45.9877 70.9747 45.995L70.9602 45.8385L71.3695 45.7112C71.4299 45.6943 71.4613 45.653 71.4637 45.5876C71.4685 45.3936 71.471 45.1535 71.471 44.8674V43.467H68.8341Z" fill="#1A1A18"/>
<path d="M76.2955 43.6088H75.7993C75.7486 43.6088 75.7063 43.6137 75.6725 43.6234C75.6387 43.6331 75.6085 43.6489 75.582 43.6707C75.5554 43.6925 75.5312 43.7216 75.5095 43.758C75.4878 43.7919 75.4636 43.8344 75.4371 43.8853C75.3139 44.106 75.2053 44.3109 75.1111 44.5C75.0193 44.6867 74.9312 44.8649 74.8467 45.0347C74.7549 45.219 74.6668 45.3827 74.5823 45.5257C74.4978 45.6688 74.4048 45.7803 74.3034 45.8604C74.2599 45.8992 74.2164 45.9307 74.173 45.9549C74.1319 45.9768 74.0848 45.9937 74.0317 46.0059C73.9786 46.0204 73.917 46.0301 73.847 46.035C73.777 46.0398 73.6937 46.0422 73.5971 46.0422C73.5367 46.0422 73.4703 46.0398 73.3979 46.035C73.3278 46.0301 73.2518 46.0228 73.1697 46.0131L73.1588 45.8531C73.2216 45.8361 73.2759 45.8204 73.3218 45.8058C73.3677 45.7913 73.4087 45.7743 73.445 45.7549C73.4836 45.7331 73.521 45.7088 73.5572 45.6821C73.5935 45.653 73.6333 45.6167 73.6768 45.573C73.7154 45.5294 73.7589 45.4724 73.8072 45.4021C73.8555 45.3293 73.9062 45.2481 73.9593 45.1584C74.0124 45.0662 74.0667 44.968 74.1223 44.8637C74.1802 44.757 74.2394 44.6467 74.2998 44.5327C74.4108 44.3266 74.5231 44.1169 74.6366 43.9035C74.7525 43.6901 74.872 43.4888 74.9952 43.2997C74.9131 43.2415 74.8406 43.1724 74.7779 43.0923C74.7151 43.0099 74.6571 42.9202 74.604 42.8232C74.5509 42.7238 74.5002 42.6171 74.4519 42.5031C74.406 42.3891 74.3577 42.2691 74.307 42.143C74.2394 41.9733 74.1718 41.8265 74.1042 41.7029C74.039 41.5792 73.9641 41.4774 73.8796 41.3973C73.7975 41.3173 73.7009 41.2579 73.5898 41.2191C73.4788 41.1779 73.3568 41.1548 73.224 41.15L73.2095 40.9245C73.4486 40.9051 73.6792 40.8954 73.9013 40.8954C74.0366 40.8954 74.144 40.9051 74.2237 40.9245C74.3034 40.9415 74.3698 40.9863 74.4229 41.0591C74.4784 41.1318 74.5279 41.2409 74.5714 41.3864C74.6173 41.5319 74.6728 41.732 74.738 41.9866C74.7911 42.1927 74.8406 42.3685 74.8865 42.514C74.9324 42.6571 74.9795 42.7771 75.0278 42.8741C75.0761 42.9711 75.1268 43.0475 75.1799 43.1033C75.2354 43.159 75.297 43.2015 75.3646 43.2306C75.4322 43.2597 75.5095 43.2778 75.5964 43.2851C75.6834 43.2924 75.7836 43.296 75.8971 43.296H76.2955V41.9029C76.2955 41.7841 76.2943 41.6738 76.2919 41.5719C76.2919 41.4701 76.2907 41.3755 76.2882 41.2882C76.2858 41.2276 76.2544 41.19 76.1941 41.1755L75.792 41.0482L75.7812 40.8917C75.926 40.8966 76.0685 40.9002 76.2086 40.9027C76.351 40.9051 76.4947 40.9063 76.6396 40.9063C76.7772 40.9063 76.9149 40.9051 77.0525 40.9027C77.1925 40.9002 77.335 40.8966 77.4799 40.8917L77.4944 41.0482L77.0851 41.1755C77.0223 41.19 76.9897 41.2276 76.9873 41.2882C76.9849 41.3755 76.9825 41.4701 76.9801 41.5719C76.9801 41.6738 76.9801 41.7841 76.9801 41.9029V43.296H77.3785C77.492 43.296 77.5922 43.2924 77.6791 43.2851C77.766 43.2778 77.8433 43.2597 77.9109 43.2306C77.9809 43.2015 78.0425 43.159 78.0956 43.1033C78.1488 43.0475 78.1995 42.9711 78.2478 42.8741C78.2961 42.7771 78.3431 42.6571 78.389 42.514C78.4349 42.3685 78.4844 42.1927 78.5375 41.9866C78.581 41.8168 78.6184 41.6726 78.6498 41.5537C78.6836 41.4325 78.7162 41.3319 78.7476 41.2518C78.7814 41.1694 78.8152 41.1051 78.849 41.0591C78.8852 41.013 78.9275 40.9778 78.9758 40.9536C79.0241 40.9293 79.0796 40.9136 79.1424 40.9063C79.2076 40.899 79.2861 40.8954 79.3778 40.8954C79.5782 40.8954 79.8028 40.9051 80.0515 40.9245L80.0696 41.15C79.8934 41.1597 79.7497 41.1888 79.6386 41.2373C79.5275 41.2858 79.4322 41.3525 79.3525 41.4373C79.2728 41.5222 79.2028 41.6241 79.1424 41.7429C79.0844 41.8617 79.0265 41.9951 78.9685 42.143C78.9227 42.257 78.8756 42.3697 78.8273 42.4813C78.779 42.5928 78.7271 42.6995 78.6715 42.8014C78.616 42.9008 78.5556 42.9929 78.4904 43.0778C78.4252 43.1627 78.3528 43.2342 78.2731 43.2924C78.3963 43.4767 78.5158 43.678 78.6317 43.8962C78.75 44.1144 78.8647 44.3266 78.9758 44.5327C79.0386 44.6467 79.0989 44.7558 79.1569 44.8601C79.2148 44.9644 79.2692 45.0626 79.3199 45.1547C79.373 45.2444 79.4225 45.3257 79.4684 45.3984C79.5167 45.4687 79.5613 45.5269 79.6024 45.573C79.641 45.6167 79.6785 45.653 79.7147 45.6821C79.7509 45.7088 79.7883 45.7331 79.827 45.7549C79.868 45.7743 79.9103 45.7913 79.9537 45.8058C79.9996 45.8204 80.0503 45.8349 80.1059 45.8495L80.1167 46.0095C79.9453 46.0313 79.8004 46.0422 79.6821 46.0422C79.5831 46.0422 79.4986 46.0398 79.4285 46.035C79.3585 46.0301 79.2969 46.0204 79.2438 46.0059C79.1907 45.9937 79.1424 45.9768 79.0989 45.9549C79.0579 45.9307 79.0156 45.8992 78.9722 45.8604C78.8707 45.7803 78.7778 45.6688 78.6933 45.5257C78.6088 45.3827 78.5206 45.219 78.4289 45.0347C78.3468 44.8649 78.2586 44.6867 78.1645 44.5C78.0727 44.3109 77.9652 44.106 77.8421 43.8853C77.8131 43.8344 77.7866 43.7919 77.7624 43.758C77.7407 43.7216 77.7165 43.6925 77.69 43.6707C77.6658 43.6489 77.6368 43.6331 77.603 43.6234C77.5716 43.6137 77.5306 43.6088 77.4799 43.6088H76.9801V44.8674C76.9801 45.0129 76.9801 45.1438 76.9801 45.2602C76.9825 45.3766 76.9849 45.4821 76.9873 45.5767C76.9897 45.6543 77.0223 45.7015 77.0851 45.7185L77.4871 45.8385L77.4944 45.995C77.207 45.9877 76.9221 45.984 76.6396 45.984C76.2629 45.984 75.9828 45.9877 75.7993 45.995L75.7812 45.8385L76.1941 45.7185C76.252 45.7015 76.2834 45.6543 76.2882 45.5767C76.2907 45.4821 76.2919 45.3766 76.2919 45.2602C76.2943 45.1438 76.2955 45.0129 76.2955 44.8674V43.6088Z" fill="#1A1A18"/>
<path d="M81.446 40.9063H82.3262C82.867 40.9063 83.4381 40.9014 84.0394 40.8917L84.0611 40.9208L83.851 42.0448L83.7061 42.0702L83.4816 41.23H81.8082V43.2306H82.1378C82.3889 43.2306 82.669 43.2281 82.9781 43.2233C83.0409 43.2209 83.0819 43.1893 83.1013 43.1287L83.228 42.6377L83.4236 42.6304C83.4164 42.9699 83.4128 43.2209 83.4128 43.3833C83.4128 43.541 83.4164 43.7883 83.4236 44.1254L83.228 44.1399L83.0976 43.6416C83.0783 43.5785 83.0409 43.5458 82.9854 43.5434C82.6715 43.5385 82.3877 43.5361 82.1342 43.5361H81.8082V44.8601C81.8082 45.1293 81.8106 45.3948 81.8154 45.6567H83.554L83.9959 44.7328L84.1589 44.7037L84.0792 45.9695L84.0539 45.995C83.4285 45.9877 82.8513 45.984 82.3225 45.984H81.4605C81.1683 45.984 80.8689 45.9877 80.5622 45.995L80.5477 45.8385L80.9932 45.704C81.0536 45.687 81.0862 45.6494 81.091 45.5912C81.0935 45.4942 81.0947 45.3863 81.0947 45.2675C81.0971 45.1462 81.0983 45.0129 81.0983 44.8674V41.9175C81.0983 41.7938 81.0971 41.6823 81.0947 41.5828C81.0947 41.4834 81.0935 41.3937 81.091 41.3137C81.0886 41.2506 81.0597 41.2094 81.0041 41.19L80.555 41.0482L80.5477 40.8917C80.8592 40.9014 81.1587 40.9063 81.446 40.9063Z" fill="#1A1A18"/>
<path d="M86.1184 43.467V44.8674C86.1184 45.1535 86.1208 45.3936 86.1257 45.5876C86.1281 45.653 86.1595 45.6943 86.2198 45.7112L86.6219 45.8385L86.6327 45.995C86.3454 45.9877 86.058 45.984 85.7707 45.984C85.4833 45.984 85.1839 45.9877 84.8724 45.995L84.8579 45.8385L85.3035 45.704C85.3662 45.6846 85.3988 45.647 85.4012 45.5912C85.4061 45.3948 85.4085 45.1535 85.4085 44.8674V41.9175C85.4085 41.675 85.4061 41.4737 85.4012 41.3137C85.3988 41.2506 85.3699 41.2094 85.3143 41.19L84.8652 41.0482L84.8579 40.8917C85.1694 40.9014 85.4689 40.9063 85.7562 40.9063C86.046 40.9063 86.3321 40.9014 86.6146 40.8917L86.6327 41.0482L86.2198 41.1755C86.1595 41.19 86.1281 41.2276 86.1257 41.2882C86.1208 41.4628 86.1184 41.6677 86.1184 41.9029V43.136H88.7552V41.9029C88.7552 41.6677 88.7528 41.4628 88.748 41.2882C88.7456 41.2276 88.7142 41.19 88.6538 41.1755L88.2518 41.0482L88.2445 40.8917C88.5391 40.9014 88.8301 40.9063 89.1174 40.9063C89.4048 40.9063 89.6994 40.9014 90.0012 40.8917L90.0157 41.0482L89.5593 41.19C89.5038 41.2094 89.4748 41.2506 89.4724 41.3137C89.4676 41.4737 89.4652 41.675 89.4652 41.9175V44.8674C89.4652 45.1535 89.4676 45.3948 89.4724 45.5912C89.4748 45.647 89.5074 45.6846 89.5702 45.704L90.0085 45.8385L90.0157 45.995C89.697 45.9877 89.3927 45.984 89.103 45.984C88.8156 45.984 88.5343 45.9877 88.259 45.995L88.2445 45.8385L88.6538 45.7112C88.7142 45.6943 88.7456 45.653 88.748 45.5876C88.7528 45.3936 88.7552 45.1535 88.7552 44.8674V43.467H86.1184Z" fill="#1A1A18"/>
<path d="M91.6239 40.9063H92.504C93.0449 40.9063 93.616 40.9014 94.2173 40.8917L94.239 40.9208L94.0289 42.0448L93.884 42.0702L93.6595 41.23H91.9861V43.2306H92.3157C92.5668 43.2306 92.8469 43.2281 93.156 43.2233C93.2188 43.2209 93.2598 43.1893 93.2791 43.1287L93.4059 42.6377L93.6015 42.6304C93.5943 42.9699 93.5906 43.2209 93.5906 43.3833C93.5906 43.541 93.5943 43.7883 93.6015 44.1254L93.4059 44.1399L93.2755 43.6416C93.2562 43.5785 93.2188 43.5458 93.1632 43.5434C92.8493 43.5385 92.5656 43.5361 92.3121 43.5361H91.9861V44.8601C91.9861 45.1293 91.9885 45.3948 91.9933 45.6567H93.7319L94.1738 44.7328L94.3368 44.7037L94.2571 45.9695L94.2317 45.995C93.6063 45.9877 93.0292 45.984 92.5004 45.984H91.6384C91.3462 45.984 91.0468 45.9877 90.7401 45.995L90.7256 45.8385L91.1711 45.704C91.2315 45.687 91.2641 45.6494 91.2689 45.5912C91.2713 45.4942 91.2725 45.3863 91.2725 45.2675C91.275 45.1462 91.2762 45.0129 91.2762 44.8674V41.9175C91.2762 41.7938 91.275 41.6823 91.2725 41.5828C91.2725 41.4834 91.2713 41.3937 91.2689 41.3137C91.2665 41.2506 91.2375 41.2094 91.182 41.19L90.7329 41.0482L90.7256 40.8917C91.0371 40.9014 91.3365 40.9063 91.6239 40.9063Z" fill="#1A1A18"/>
<path d="M96.2963 43.5252C96.4653 43.5543 96.6319 43.5688 96.7961 43.5688C97.1825 43.5688 97.4759 43.4694 97.6763 43.2706C97.8791 43.0693 97.9805 42.7626 97.9805 42.3503C97.9805 41.9551 97.8839 41.6604 97.6908 41.4664C97.5 41.2725 97.1982 41.1755 96.7853 41.1755C96.6235 41.1755 96.4605 41.1852 96.2963 41.2046V43.5252ZM96.2963 44.8674C96.2963 45.0129 96.2963 45.1438 96.2963 45.2602C96.2987 45.3766 96.3011 45.4809 96.3035 45.573C96.306 45.6288 96.3373 45.6664 96.3977 45.6858L96.8975 45.8385L96.9048 45.995C96.5547 45.9877 96.2359 45.984 95.9486 45.984C95.6564 45.984 95.357 45.9877 95.0503 45.995L95.0358 45.8385L95.4813 45.704C95.5441 45.6846 95.5767 45.647 95.5791 45.5912C95.5815 45.4942 95.5828 45.3863 95.5828 45.2675C95.5852 45.1462 95.5864 45.0129 95.5864 44.8674V41.9175C95.5864 41.7938 95.5852 41.6823 95.5828 41.5828C95.5828 41.4834 95.5815 41.3937 95.5791 41.3137C95.5767 41.2506 95.5477 41.2094 95.4922 41.19L95.0431 41.0482L95.0358 40.8917C95.3473 40.9014 95.6504 40.9063 95.945 40.9063C96.143 40.9063 96.3337 40.9014 96.5172 40.8917C96.7032 40.882 96.8722 40.8772 97.0243 40.8772C97.5918 40.8772 98.0204 40.99 98.3101 41.2155C98.6023 41.4386 98.7484 41.772 98.7484 42.2157C98.7484 42.7371 98.5806 43.1421 98.2449 43.4306C97.9093 43.7192 97.4384 43.8635 96.8324 43.8635C96.6657 43.8635 96.4871 43.8526 96.2963 43.8307V44.8674Z" fill="#1A1A18"/>
<path d="M100.462 43.4673V44.8677C100.462 45.1538 100.464 45.3939 100.469 45.5879C100.471 45.6534 100.503 45.6946 100.563 45.7116L100.965 45.8389L100.976 45.9953C100.689 45.988 100.401 45.9844 100.114 45.9844C99.8266 45.9844 99.5272 45.988 99.2157 45.9953L99.2012 45.8389L99.6467 45.7043C99.7095 45.6849 99.7421 45.6473 99.7445 45.5915C99.7493 45.3951 99.7517 45.1538 99.7517 44.8677V41.9178C99.7517 41.6753 99.7493 41.474 99.7445 41.314C99.7421 41.2509 99.7131 41.2097 99.6575 41.1903L99.2084 41.0485L99.2012 40.8921C99.5127 40.9018 99.8121 40.9066 100.099 40.9066C100.389 40.9066 100.675 40.9018 100.958 40.8921L100.976 41.0485L100.563 41.1758C100.503 41.1903 100.471 41.2279 100.469 41.2885C100.464 41.4631 100.462 41.668 100.462 41.9032V43.1363H103.098V41.9032C103.098 41.668 103.096 41.4631 103.091 41.2885C103.089 41.2279 103.057 41.1903 102.997 41.1758L102.595 41.0485L102.588 40.8921C102.882 40.9018 103.173 40.9066 103.461 40.9066C103.748 40.9066 104.043 40.9018 104.344 40.8921L104.359 41.0485L103.903 41.1903C103.847 41.2097 103.818 41.2509 103.816 41.314C103.811 41.474 103.808 41.6753 103.808 41.9178V44.8677C103.808 45.1538 103.811 45.3951 103.816 45.5915C103.818 45.6473 103.851 45.6849 103.913 45.7043L104.352 45.8389L104.359 45.9953C104.04 45.988 103.736 45.9844 103.446 45.9844C103.159 45.9844 102.878 45.988 102.602 45.9953L102.588 45.8389L102.997 45.7116C103.057 45.6946 103.089 45.6534 103.091 45.5879C103.096 45.3939 103.098 45.1538 103.098 44.8677V43.4673H100.462Z" fill="#1A1A18"/>
<path d="M107.445 40.8157L109.053 45.2642C109.113 45.4315 109.168 45.5455 109.216 45.6061C109.267 45.6643 109.338 45.7079 109.43 45.737L109.77 45.8389L109.777 45.9953C109.461 45.988 109.168 45.9844 108.897 45.9844C108.622 45.9844 108.297 45.988 107.923 45.9953L107.909 45.8389L108.253 45.737C108.301 45.72 108.335 45.7019 108.354 45.6825C108.376 45.6606 108.387 45.6279 108.387 45.5843C108.387 45.5358 108.373 45.4727 108.347 45.3951C108.323 45.3151 108.288 45.2096 108.242 45.0787L107.901 44.1038H106.155L105.775 45.075C105.724 45.2108 105.685 45.3187 105.656 45.3987C105.627 45.4788 105.612 45.5418 105.612 45.5879C105.612 45.6291 105.623 45.6606 105.645 45.6825C105.669 45.7019 105.704 45.7188 105.75 45.7334L106.087 45.8316L106.094 45.9953C105.751 45.988 105.471 45.9844 105.254 45.9844C105.036 45.9844 104.794 45.988 104.526 45.9953L104.507 45.8389L104.873 45.7261C104.965 45.697 105.033 45.6521 105.076 45.5915C105.12 45.5309 105.168 45.4363 105.221 45.3078L107.072 40.8702L107.445 40.8157ZM106.289 43.7728H107.782L107.075 41.7687L106.289 43.7728Z" fill="#1A1A18"/>
<path d="M112.411 43.6783C112.358 43.6783 112.313 43.6831 112.277 43.6928C112.243 43.7001 112.213 43.7146 112.186 43.7365C112.16 43.7583 112.134 43.7874 112.11 43.8238C112.088 43.8577 112.063 43.9002 112.034 43.9511C111.949 44.099 111.869 44.2493 111.791 44.4021C111.716 44.5525 111.638 44.7004 111.556 44.8459C111.435 45.0714 111.318 45.2751 111.205 45.4569C111.093 45.6388 110.982 45.7734 110.871 45.8607C110.825 45.8971 110.78 45.9274 110.734 45.9516C110.688 45.9759 110.636 45.9941 110.578 46.0062C110.52 46.0207 110.454 46.0304 110.379 46.0353C110.304 46.0401 110.217 46.0426 110.118 46.0426C109.997 46.0426 109.862 46.0329 109.712 46.0135L109.701 45.8534C109.764 45.8364 109.821 45.8207 109.872 45.8061C109.922 45.7916 109.969 45.7746 110.013 45.7552C110.056 45.7358 110.097 45.7128 110.136 45.6861C110.177 45.657 110.221 45.6194 110.266 45.5733C110.349 45.4909 110.435 45.3733 110.527 45.2205C110.619 45.0677 110.723 44.8919 110.839 44.6931C110.933 44.5306 111.031 44.356 111.132 44.1693C111.236 43.9802 111.352 43.7813 111.48 43.5728C110.763 43.3812 110.404 42.952 110.404 42.2852C110.404 41.839 110.571 41.4922 110.904 41.2449C111.237 40.9975 111.671 40.8739 112.204 40.8739C112.347 40.8739 112.502 40.8799 112.671 40.8921C112.841 40.9018 113.023 40.9066 113.218 40.9066C113.489 40.9066 113.787 40.9018 114.113 40.8921L114.128 41.0521L113.671 41.194C113.618 41.2134 113.589 41.2558 113.584 41.3213C113.582 41.4061 113.579 41.4983 113.577 41.5977C113.577 41.6971 113.577 41.8099 113.577 41.936V44.8677C113.577 45.0132 113.577 45.1441 113.577 45.2605C113.579 45.3769 113.582 45.486 113.584 45.5879C113.587 45.6461 113.619 45.6849 113.682 45.7043L114.12 45.8389L114.128 45.9953C113.818 45.988 113.514 45.9844 113.215 45.9844C112.918 45.9844 112.635 45.988 112.367 45.9953L112.353 45.8389L112.766 45.7116C112.824 45.6946 112.855 45.6485 112.86 45.5733C112.862 45.4812 112.863 45.3769 112.863 45.2605C112.866 45.1441 112.867 45.0132 112.867 44.8677V43.6783H112.411ZM112.867 41.2012C112.688 41.1818 112.525 41.1721 112.378 41.1721C111.96 41.1721 111.654 41.2606 111.458 41.4377C111.265 41.6123 111.168 41.8887 111.168 42.267C111.168 42.6647 111.276 42.9557 111.491 43.1399C111.708 43.3242 112.038 43.4164 112.48 43.4164C112.629 43.4164 112.758 43.4152 112.867 43.4127V41.2012Z" fill="#1A1A18"/>
<path d="M117.974 45.5879C117.977 45.6534 118.008 45.6946 118.068 45.7116L118.47 45.8389L118.481 45.9953C118.194 45.988 117.907 45.9844 117.619 45.9844C117.332 45.9844 117.032 45.988 116.721 45.9953L116.706 45.8389L117.152 45.7043C117.215 45.6849 117.247 45.6473 117.25 45.5915C117.255 45.3951 117.257 45.1538 117.257 44.8677V41.9178C117.257 41.6753 117.255 41.474 117.25 41.314C117.247 41.2509 117.218 41.2097 117.163 41.1903L116.714 41.0485L116.706 40.8921C117.018 40.9018 117.317 40.9066 117.605 40.9066H120.817C121.105 40.9066 121.399 40.9018 121.701 40.8921L121.716 41.0485L121.259 41.1903C121.204 41.2097 121.175 41.2509 121.172 41.314C121.168 41.474 121.165 41.6753 121.165 41.9178V44.8677C121.165 45.1538 121.168 45.3951 121.172 45.5915C121.175 45.6473 121.207 45.6849 121.27 45.7043L121.708 45.8389L121.716 45.9953C121.397 45.988 121.093 45.9844 120.803 45.9844C120.516 45.9844 120.234 45.988 119.959 45.9953L119.945 45.8389L120.354 45.7116C120.414 45.6946 120.446 45.6534 120.448 45.5879C120.455 45.3939 120.459 45.1538 120.459 44.8677V41.2376H117.967V44.8677C117.967 45.1538 117.969 45.3939 117.974 45.5879Z" fill="#1A1A18"/>
<path d="M123.324 40.9066H124.204C124.745 40.9066 125.316 40.9018 125.917 40.8921L125.939 40.9212L125.729 42.0451L125.584 42.0706L125.359 41.2303H123.686V43.2309H124.016C124.267 43.2309 124.547 43.2285 124.856 43.2236C124.919 43.2212 124.96 43.1897 124.979 43.129L125.106 42.638L125.301 42.6307C125.294 42.9702 125.291 43.2212 125.291 43.3836C125.291 43.5413 125.294 43.7886 125.301 44.1257L125.106 44.1402L124.975 43.6419C124.956 43.5789 124.919 43.5461 124.863 43.5437C124.549 43.5388 124.266 43.5364 124.012 43.5364H123.686V44.8604C123.686 45.1296 123.688 45.3951 123.693 45.657H125.432L125.874 44.7331L126.037 44.704L125.957 45.9698L125.932 45.9953C125.306 45.988 124.729 45.9844 124.2 45.9844H123.338C123.046 45.9844 122.747 45.988 122.44 45.9953L122.426 45.8389L122.871 45.7043C122.931 45.6873 122.964 45.6497 122.969 45.5915C122.971 45.4945 122.973 45.3866 122.973 45.2678C122.975 45.1466 122.976 45.0132 122.976 44.8677V41.9178C122.976 41.7941 122.975 41.6826 122.973 41.5832C122.973 41.4837 122.971 41.394 122.969 41.314C122.966 41.2509 122.938 41.2097 122.882 41.1903L122.433 41.0485L122.426 40.8921C122.737 40.9018 123.037 40.9066 123.324 40.9066Z" fill="#1A1A18"/>
<path d="M127.603 41.9032V42.3979C127.603 42.7641 127.688 43.0199 127.857 43.1654C128.028 43.3109 128.283 43.3837 128.621 43.3837C128.961 43.3837 129.3 43.3182 129.635 43.1872V41.9032C129.635 41.668 129.633 41.4631 129.628 41.2885C129.626 41.2279 129.594 41.1903 129.534 41.1758L129.132 41.0485L129.124 40.8921C129.417 40.9018 129.708 40.9066 129.997 40.9066C130.285 40.9066 130.579 40.9018 130.881 40.8921L130.896 41.0485L130.439 41.1903C130.384 41.2097 130.355 41.2509 130.352 41.314C130.348 41.474 130.345 41.6753 130.345 41.9178V44.8677C130.345 45.1538 130.348 45.3951 130.352 45.5915C130.355 45.6473 130.387 45.6849 130.45 45.7043L130.888 45.8389L130.896 45.9953C130.577 45.988 130.273 45.9844 129.983 45.9844C129.696 45.9844 129.389 45.988 129.063 45.9953L129.048 45.8389L129.534 45.6897C129.594 45.6703 129.626 45.6291 129.628 45.5661C129.633 45.3866 129.635 45.1538 129.635 44.8677V43.511C129.131 43.7389 128.658 43.8529 128.219 43.8529C127.777 43.8529 127.445 43.7474 127.223 43.5364C127.003 43.323 126.893 43.0029 126.893 42.5762V41.9178C126.893 41.6753 126.891 41.474 126.886 41.314C126.884 41.2509 126.855 41.2097 126.799 41.1903L126.35 41.0485L126.343 40.8921C126.654 40.9018 126.954 40.9066 127.241 40.9066C127.528 40.9066 127.802 40.9018 128.063 40.8921L128.078 41.0485L127.705 41.1758C127.644 41.1903 127.613 41.2279 127.61 41.2885C127.606 41.4631 127.603 41.668 127.603 41.9032Z" fill="#1A1A18"/>
<path d="M133.982 40.8157L135.59 45.2642C135.65 45.4315 135.705 45.5455 135.753 45.6061C135.804 45.6643 135.875 45.7079 135.967 45.737L136.307 45.8389L136.314 45.9953C135.998 45.988 135.705 45.9844 135.434 45.9844C135.159 45.9844 134.834 45.988 134.46 45.9953L134.445 45.8389L134.789 45.737C134.838 45.72 134.871 45.7019 134.891 45.6825C134.912 45.6606 134.923 45.6279 134.923 45.5843C134.923 45.5358 134.91 45.4727 134.884 45.3951C134.859 45.3151 134.824 45.2096 134.778 45.0787L134.438 44.1038H132.692L132.312 45.075C132.261 45.2108 132.221 45.3187 132.192 45.3987C132.163 45.4788 132.149 45.5418 132.149 45.5879C132.149 45.6291 132.16 45.6606 132.181 45.6825C132.206 45.7019 132.241 45.7188 132.287 45.7334L132.623 45.8316L132.631 45.9953C132.288 45.988 132.008 45.9844 131.79 45.9844C131.573 45.9844 131.33 45.988 131.062 45.9953L131.044 45.8389L131.41 45.7261C131.502 45.697 131.569 45.6522 131.613 45.5915C131.656 45.5309 131.705 45.4363 131.758 45.3078L133.609 40.8702L133.982 40.8157ZM132.826 43.7728H134.318L133.612 41.7687L132.826 43.7728Z" fill="#1A1A18"/>
<path d="M138.175 45.9841C137.878 45.9841 137.549 45.9878 137.19 45.995L137.175 45.8386L137.711 45.6786C137.772 45.6616 137.803 45.624 137.805 45.5658C137.81 45.3815 137.813 45.1463 137.813 44.8602V41.2301H136.534L136.212 42.1977L136.067 42.2231L135.973 40.9209L135.998 40.8918C136.592 40.9015 137.161 40.9064 137.704 40.9064H138.671C139.212 40.9064 139.783 40.9015 140.384 40.8918L140.406 40.9209L140.178 42.1977L140.033 42.2231L139.801 41.2301H138.523V44.8602C138.523 45.1463 138.525 45.3815 138.53 45.5658C138.532 45.624 138.564 45.6616 138.624 45.6786L139.16 45.8386L139.167 45.995C138.793 45.9878 138.462 45.9841 138.175 45.9841Z" fill="#1A1A18"/>
<path d="M142.058 41.903V43.0997C142.256 43.0803 142.452 43.0706 142.648 43.0706C143.29 43.0706 143.772 43.1906 144.093 43.4307C144.414 43.6684 144.575 44.0066 144.575 44.4455C144.575 44.7268 144.522 44.9669 144.416 45.1657C144.309 45.3646 144.166 45.5258 143.985 45.6495C143.803 45.7732 143.592 45.8641 143.351 45.9223C143.112 45.9781 142.859 46.0059 142.594 46.0059C142.471 46.0059 142.337 46.0023 142.192 45.995C142.049 45.9878 141.889 45.9841 141.71 45.9841C141.418 45.9841 141.118 45.9878 140.812 45.995L140.797 45.8386L141.243 45.704C141.303 45.6871 141.336 45.6495 141.34 45.5913C141.343 45.4943 141.344 45.3864 141.344 45.2676C141.347 45.1463 141.348 45.013 141.348 44.8675V41.9176C141.348 41.7939 141.347 41.6824 141.344 41.5829C141.344 41.4835 141.343 41.3938 141.34 41.3138C141.338 41.2507 141.309 41.2095 141.254 41.1901L140.804 41.0483L140.797 40.8918C141.109 40.9015 141.408 40.9064 141.695 40.9064C141.985 40.9064 142.297 40.9015 142.63 40.8918L142.648 41.0483L142.159 41.1937C142.099 41.2156 142.067 41.2532 142.065 41.3065C142.062 41.3914 142.06 41.4847 142.058 41.5866C142.058 41.686 142.058 41.7915 142.058 41.903ZM142.058 43.3943V45.6604C142.186 45.7016 142.355 45.7222 142.565 45.7222C142.97 45.7222 143.276 45.6216 143.481 45.4203C143.689 45.2166 143.793 44.9196 143.793 44.5292C143.793 44.1364 143.684 43.8466 143.467 43.6599C143.252 43.4707 142.915 43.3762 142.456 43.3762C142.398 43.3762 142.335 43.3786 142.268 43.3834C142.203 43.3859 142.133 43.3895 142.058 43.3943Z" fill="#1A1A18"/>
<path d="M58.5545 45.4303L36.3506 44.5621L58.5545 43.501V45.4303Z" fill="#E3000F"/>
<path d="M147.69 45.4303L169.898 44.5621L147.69 43.501V45.4303Z" fill="#E3000F"/>
</svg>
