<svg width="56" height="56" viewBox="0 0 56 56" fill="none" xmlns="http://www.w3.org/2000/svg">
<path d="M28 17.9375H51.4692C52.3572 17.9223 53.2195 18.2353 53.8909 18.8166C54.5623 19.3979 54.9955 20.2066 55.1075 21.0875C55.1564 21.5742 55.1028 22.0658 54.95 22.5305C54.7973 22.9952 54.5488 23.4227 54.2207 23.7854C53.8926 24.1482 53.492 24.4381 53.045 24.6366C52.5979 24.835 52.1141 24.9376 51.625 24.9375H25.375V20.5625C25.375 19.8664 25.6516 19.1987 26.1438 18.7064C26.6361 18.2141 27.3038 17.9375 28 17.9375Z" fill="#EFD6AC"/>
<path d="M55.125 25.3398V51.1873C55.125 52.1156 54.7563 53.0058 54.0999 53.6622C53.4435 54.3186 52.5533 54.6873 51.625 54.6873H49.875V26.6873H51.625C52.9183 26.687 54.1654 26.2068 55.125 25.3398Z" fill="#EFD6AC"/>
<path d="M29.75 34.125H43.75V37.625H29.75V34.125Z" fill="#EFD6AC"/>
<path d="M25.375 26.6875V52.0625C25.375 52.7587 25.6516 53.4264 26.1438 53.9187C26.6361 54.4109 27.3038 54.6875 28 54.6875H48.125V26.6875H25.375ZM45.5 38.5C45.5 38.7321 45.4078 38.9546 45.2437 39.1187C45.0796 39.2828 44.8571 39.375 44.625 39.375H28.875C28.6429 39.375 28.4204 39.2828 28.2563 39.1187C28.0922 38.9546 28 38.7321 28 38.5V33.25C28 33.0179 28.0922 32.7954 28.2563 32.6313C28.4204 32.4672 28.6429 32.375 28.875 32.375H44.625C44.8571 32.375 45.0796 32.4672 45.2437 32.6313C45.4078 32.7954 45.5 33.0179 45.5 33.25V38.5Z" fill="#EFD6AC"/>
<path d="M43.3946 13.1705C41.3538 11.8837 39.1057 10.9598 36.7499 10.4396V3.9375C36.7499 3.24131 36.4733 2.57363 35.981 2.08134C35.4888 1.58906 34.8211 1.3125 34.1249 1.3125H11.3749C10.6787 1.3125 10.011 1.58906 9.51873 2.08134C9.02645 2.57363 8.74989 3.24131 8.74989 3.9375V10.4396C6.39209 10.9598 4.14218 11.8843 2.09989 13.1722C1.72372 13.4094 1.41397 13.7383 1.1997 14.1279C0.985426 14.5176 0.873661 14.9553 0.874888 15.4V33.8625C0.876025 34.1698 0.958075 34.4714 1.11278 34.737C1.26749 35.0025 1.48941 35.2226 1.7562 35.3752C2.02299 35.5278 2.32525 35.6074 2.63258 35.606C2.9399 35.6047 3.24145 35.5224 3.50689 35.3675C5.13878 34.3958 6.90563 33.6714 8.74989 33.2176V42.4375C8.74989 43.1337 9.02645 43.8014 9.51873 44.2937C10.011 44.7859 10.6787 45.0625 11.3749 45.0625H34.1249C34.8211 45.0625 35.4888 44.7859 35.981 44.2937C36.4733 43.8014 36.7499 43.1337 36.7499 42.4375V33.2176C38.5943 33.6725 40.3612 34.3981 41.9929 35.371C42.2586 35.526 42.5605 35.6083 42.8681 35.6095C43.1757 35.6107 43.4782 35.5308 43.7451 35.3778C44.012 35.2249 44.2338 35.0042 44.3883 34.7382C44.5428 34.4722 44.6244 34.1701 44.6249 33.8625V16.4413C44.6249 14.9319 44.4158 13.7987 43.3946 13.1705ZM11.3749 3.0625H34.1249C34.357 3.0625 34.5795 3.15469 34.7436 3.31878C34.9077 3.48288 34.9999 3.70544 34.9999 3.9375V5.6875H10.4999V3.9375C10.4999 3.70544 10.5921 3.48288 10.7562 3.31878C10.9203 3.15469 11.1428 3.0625 11.3749 3.0625ZM10.4999 7.4375H34.9999V10.1701C30.6666 9.79503 26.3373 10.9342 22.7499 13.3936C19.1624 10.9344 14.8332 9.79492 10.4999 10.1692V7.4375ZM2.62489 33.8625V15.4C2.62273 15.2535 2.65791 15.1088 2.7271 14.9796C2.79629 14.8504 2.89722 14.7409 3.02039 14.6615C9.36239 10.7625 15.5329 10.85 21.8749 14.9214V33.7846C21.7199 33.7378 21.5693 33.6772 21.4251 33.6035C15.1006 30.0895 8.77351 30.275 2.62489 33.8625ZM34.1249 43.3125H11.3749C11.1428 43.3125 10.9203 43.2203 10.7562 43.0562C10.5921 42.8921 10.4999 42.6696 10.4999 42.4375V40.6875H34.9999V42.4375C34.9999 42.6696 34.9077 42.8921 34.7436 43.0562C34.5795 43.2203 34.357 43.3125 34.1249 43.3125ZM34.9999 38.9375H10.4999V32.9122C14.0097 32.5481 17.5432 33.327 20.5746 35.133C21.2342 35.5057 21.9784 35.7026 22.7359 35.7049C23.4935 35.7072 24.2389 35.5148 24.9006 35.1461C27.938 33.3318 31.4807 32.5482 34.9999 32.9122V38.9375ZM42.8749 33.8625C36.6309 30.2216 30.2968 30.1402 24.0493 33.621C23.913 33.6895 23.771 33.746 23.6249 33.7899V14.9214C29.966 10.8526 36.1374 10.7634 42.4776 14.6589C42.5966 14.7315 42.8749 14.903 42.8749 16.4386V33.8625Z" fill="#183A37"/>
<path d="M5.60068 19.6323C7.69033 18.6451 9.97357 18.1356 12.2847 18.1408C14.5957 18.1459 16.8767 18.6656 18.9619 19.662C19.067 19.7108 19.1807 19.7383 19.2964 19.7428C19.4121 19.7474 19.5276 19.7289 19.6361 19.6884C19.7447 19.648 19.8441 19.5864 19.9287 19.5072C20.0132 19.4281 20.0812 19.3329 20.1287 19.2273C20.1762 19.1216 20.2022 19.0076 20.2053 18.8918C20.2084 18.776 20.1885 18.6608 20.1467 18.5528C20.1049 18.4447 20.0421 18.3461 19.9619 18.2625C19.8817 18.179 19.7857 18.1122 19.6794 18.066C17.3674 16.9779 14.8446 16.4109 12.2894 16.4052C9.73412 16.3994 7.2088 16.9551 4.89193 18.0328C4.78414 18.0774 4.68639 18.1432 4.60441 18.2263C4.52243 18.3093 4.45789 18.4079 4.41457 18.5162C4.37126 18.6246 4.35005 18.7405 4.3522 18.8571C4.35434 18.9738 4.3798 19.0888 4.42707 19.1955C4.47434 19.3022 4.54246 19.3983 4.62744 19.4783C4.71242 19.5583 4.81252 19.6204 4.92188 19.6611C5.03123 19.7018 5.14762 19.7202 5.26419 19.7153C5.38076 19.7103 5.49517 19.6821 5.60068 19.6323Z" fill="#183A37"/>
<path d="M18.9643 26.662C19.0693 26.7108 19.183 26.7383 19.2988 26.7428C19.4145 26.7474 19.53 26.7289 19.6385 26.6884C19.7471 26.648 19.8465 26.5864 19.931 26.5072C20.0156 26.4281 20.0836 26.3329 20.1311 26.2273C20.1786 26.1216 20.2046 26.0076 20.2077 25.8918C20.2108 25.776 20.1909 25.6608 20.1491 25.5528C20.1073 25.4447 20.0445 25.3461 19.9642 25.2625C19.884 25.179 19.788 25.1122 19.6818 25.066C17.3698 23.9779 14.847 23.4109 12.2918 23.4052C9.7365 23.3994 7.21118 23.9551 4.8943 25.0328C4.69192 25.1325 4.5359 25.3067 4.45885 25.5188C4.38179 25.7308 4.38965 25.9645 4.48078 26.1709C4.57192 26.3774 4.73927 26.5406 4.94791 26.6266C5.15655 26.7125 5.39033 26.7146 5.60043 26.6323C7.69044 25.6447 9.97415 25.135 12.2857 25.1401C14.5973 25.1453 16.8787 25.6652 18.9643 26.662Z" fill="#183A37"/>
<path d="M40.6076 18.0331C38.2907 16.9557 35.7654 16.4002 33.2102 16.4059C30.655 16.4117 28.1322 16.9785 25.8201 18.0664C25.6114 18.1634 25.4493 18.3387 25.3689 18.5544C25.2885 18.7701 25.2964 19.0087 25.3908 19.2187C25.4852 19.4286 25.6585 19.5929 25.8731 19.6759C26.0878 19.759 26.3265 19.7541 26.5376 19.6624C28.6229 18.6661 30.9038 18.1465 33.2149 18.1414C35.526 18.1363 37.8092 18.6456 39.8989 19.6326C40.111 19.7268 40.3518 19.7329 40.5685 19.6496C40.7851 19.5662 40.9597 19.4002 41.0539 19.1881C41.1481 18.976 41.1542 18.7352 41.0708 18.5186C40.9875 18.302 40.8215 18.1273 40.6094 18.0331H40.6076Z" fill="#183A37"/>
<path d="M40.6076 25.0331C38.2907 23.9557 35.7654 23.4002 33.2102 23.4059C30.655 23.4117 28.1322 23.9785 25.8201 25.0664C25.6114 25.1634 25.4493 25.3387 25.3689 25.5544C25.2885 25.7701 25.2964 26.0087 25.3908 26.2187C25.4852 26.4286 25.6585 26.5929 25.8731 26.6759C26.0878 26.759 26.3265 26.7541 26.5376 26.6624C28.6229 25.6661 30.9038 25.1465 33.2149 25.1414C35.526 25.1363 37.8092 25.6456 39.8989 26.6326C40.111 26.7268 40.3518 26.7329 40.5685 26.6496C40.7851 26.5662 40.9597 26.4002 41.0539 26.1881C41.1481 25.976 41.1542 25.7352 41.0708 25.5186C40.9875 25.302 40.8215 25.1273 40.6094 25.0331H40.6076Z" fill="#183A37"/>
</svg>
